<mxfile host="app.diagrams.net" agent="Mozilla/5.0 (Windows NT 10.0; Win64; x64) AppleWebKit/537.36 (KHTML, like Gecko) Chrome/136.0.0.0 Safari/537.36 Edg/136.0.0.0" version="27.0.6">
  <diagram name="Page-1" id="O3umazQbtfbeOd_NB41M">
    <mxGraphModel dx="1149" dy="633" grid="1" gridSize="10" guides="1" tooltips="1" connect="1" arrows="1" fold="1" page="1" pageScale="1" pageWidth="827" pageHeight="1169" math="0" shadow="0">
      <root>
        <mxCell id="0" />
        <mxCell id="1" parent="0" />
        <mxCell id="myMftVf5L6ny_uZTM5kf-19" value="" style="rounded=0;whiteSpace=wrap;html=1;" vertex="1" parent="1">
          <mxGeometry x="330" y="420" width="178.18" height="100" as="geometry" />
        </mxCell>
        <mxCell id="myMftVf5L6ny_uZTM5kf-18" value="" style="rounded=0;whiteSpace=wrap;html=1;" vertex="1" parent="1">
          <mxGeometry x="599.09" y="180" width="210" height="130" as="geometry" />
        </mxCell>
        <mxCell id="myMftVf5L6ny_uZTM5kf-17" value="" style="rounded=0;whiteSpace=wrap;html=1;" vertex="1" parent="1">
          <mxGeometry x="599.09" y="35" width="210" height="130" as="geometry" />
        </mxCell>
        <mxCell id="myMftVf5L6ny_uZTM5kf-16" value="" style="rounded=0;whiteSpace=wrap;html=1;" vertex="1" parent="1">
          <mxGeometry x="20" y="159.1" width="210" height="154.2" as="geometry" />
        </mxCell>
        <mxCell id="myMftVf5L6ny_uZTM5kf-15" value="" style="rounded=0;whiteSpace=wrap;html=1;" vertex="1" parent="1">
          <mxGeometry x="290" y="60.8" width="200" height="69.2" as="geometry" />
        </mxCell>
        <mxCell id="myMftVf5L6ny_uZTM5kf-13" value="" style="rounded=0;whiteSpace=wrap;html=1;" vertex="1" parent="1">
          <mxGeometry x="290" y="180" width="190" height="80" as="geometry" />
        </mxCell>
        <mxCell id="myMftVf5L6ny_uZTM5kf-1" value="" style="shape=image;verticalLabelPosition=bottom;labelBackgroundColor=default;verticalAlign=top;aspect=fixed;imageAspect=0;image=https://logos-world.net/wp-content/uploads/2022/01/NET-Framework-Logo-2010.png;" vertex="1" parent="1">
          <mxGeometry x="33.11" y="155.8" width="177.78" height="100" as="geometry" />
        </mxCell>
        <mxCell id="myMftVf5L6ny_uZTM5kf-2" value="" style="shape=image;verticalLabelPosition=bottom;labelBackgroundColor=default;verticalAlign=top;aspect=fixed;imageAspect=0;image=https://ubuntu.com/wp-content/uploads/c9f4/visualstudio_code-card.png;" vertex="1" parent="1">
          <mxGeometry x="70" y="257.3" width="104" height="52" as="geometry" />
        </mxCell>
        <mxCell id="myMftVf5L6ny_uZTM5kf-3" value="&#xa;" style="shape=image;verticalLabelPosition=bottom;labelBackgroundColor=default;verticalAlign=top;aspect=fixed;imageAspect=0;image=https://intellyx.com/wp-content/uploads/2019/08/Render-cloud-intellyx-BC-logo.png;clipPath=inset(29.62% 17.67% 29.62% 15%);" vertex="1" parent="1">
          <mxGeometry x="294.24" y="192.5" width="181.52" height="57.5" as="geometry" />
        </mxCell>
        <mxCell id="myMftVf5L6ny_uZTM5kf-5" value="" style="shape=image;verticalLabelPosition=bottom;labelBackgroundColor=default;verticalAlign=top;aspect=fixed;imageAspect=0;image=https://1000logos.net/wp-content/uploads/2020/08/PostgreSQL-Logo.png;" vertex="1" parent="1">
          <mxGeometry x="293.36" y="35" width="193.28" height="120.8" as="geometry" />
        </mxCell>
        <mxCell id="myMftVf5L6ny_uZTM5kf-6" value="" style="shape=image;verticalLabelPosition=bottom;labelBackgroundColor=default;verticalAlign=top;aspect=fixed;imageAspect=0;image=https://download.logo.wine/logo/Swift_(programming_language)/Swift_(programming_language)-Logo.wine.png;" vertex="1" parent="1">
          <mxGeometry x="620" y="10" width="180" height="120" as="geometry" />
        </mxCell>
        <mxCell id="myMftVf5L6ny_uZTM5kf-7" value="" style="shape=image;verticalLabelPosition=bottom;labelBackgroundColor=default;verticalAlign=top;aspect=fixed;imageAspect=0;image=https://seeklogo.com/images/K/kotlin-logo-EE46F1FE44-seeklogo.com.png;clipPath=inset(35.67% 0.67% 35% 0.67%);" vertex="1" parent="1">
          <mxGeometry x="620" y="195" width="168.18" height="50" as="geometry" />
        </mxCell>
        <mxCell id="myMftVf5L6ny_uZTM5kf-8" value="" style="shape=image;verticalLabelPosition=bottom;labelBackgroundColor=default;verticalAlign=top;aspect=fixed;imageAspect=0;image=data:image/png,iVBORw0KGgoAAAANSUhEUgAAAmcAAAENCAYAAABKNcKwAAAAAXNSR0IArs4c6QAAAARnQU1BAACxjwv8YQUAAAAJcEhZcwAADsMAAA7DAcdvqGQAAP+lSURBVHhe7L1XlCVJet/3Xe/KV3szPa7H7c7OzM56jwUWu/AACdFJJI8oUe4cPehJrzp605ukB50jiYeiJHoRxAHoQQCE4QILLNaO23HdPe27vLne6v/74kZVVnVVd/W0mZ5l/meiM29mZGS4e+NXX7jMSLJUqVKlSpUqVapUD4Wy42OqVKlSpUqVKlWqh0ApnKVKlSpVqlSpUj1ESuEsVapUqVKlSpXqIVIKZ6lSpUqVKlWqVA+RUjhLlSpVqlSpUqV6iJTCWapUqVKlSpUq1UOkFM5SpUqVKlWqVKkeIqVwlipVqlSpUqVK9RAphbNUqVKlSpUqVaqHSCmcpXqoxQYW0aVKlSpVqlT/ISjdvinVQ6vdVTPDx0xGLnxGD1P1zRC3VKlSpUqV6i6Vwlmqh0vJ2rhXzdzFP6Ph0I+AEVUZN9x6MGkY1lXuj5+Pfgd+zMjncAuuOB4UtKLfrCK2+5nk54OGlypVqlSpUqVwlurh0q3gDL6humYCkCG8UIWHgrSBPnh1HmWtPxrDWMINdG3QH+menDz3hyPr6TgYDBTK0PJZIZaD1siyOs9mRreEKu4VsjnL5bJyOooF/Tm5nJ6N54Bb9J88pkqVKlWqVHsphbNUD6cETli0dlbPAGXDTM+vD+V6w4HgamTd3sC6eqbdbvtn7vd1D2gDwkbDnMPbQOA2UDDDcdjRIaDJ3diKdjuIArrEZpbPAGE2BrQAbPlcxoqFjJULBR1zVswH8MPl5D+e3+4dqVKlSpXqPzylcJbq4VQCzqIbGhYus2a3Z81ex/qDgbV6fev1g/VLB2uN4QxRs0dCqG2F81EmtwVFgFXU9ldhNxTup20/0X8MF6tbXpBWzI0EZhkrCdwqpbyVinkrAGyCtXw+76CGdS0FtVSpUqVKFZXCWaqHSowXo0qOBnRLBkhyq9igLxDr+bHZ7lu7PwxdkzpuKRvgZrgFZEnYEaappoeuSp2PQWgHEI32ArX9Ff0MEzDncZfDqgcwYrnjc3Y0tEIu4xa1cjFntWrRquWKVYpFK4xBDetb7Fp1N45CCm2pUqVK9R+WUjhL9YGLCiik8fN+v289QY1bwvpmPf3TFpT1BGHdvq4zZkz+BoCXYCqCC9U4I/qiuxILmT759Z3iqtBtTD3A2vtREpYiSEXFr9NA8egJJIFH0tQf9jzuPoFhOHBrGbBWKhWsWilbpZQTqBWsKFfKF6ycz1kun9m2qo3jmnxXqlSpUqX68VQKZ6k+MGElQ8yY9AH9DmTDMdT0BWNh3BhQgzLj7ki3rg3H1iU+D+VvPNife84//gSWMGBG/reYZnwH65mCPQjs7P6KJJ+JcUhei/5JE87HxSluMX2epjGAxmcLuayVi3kfn4ZlrVIqehcoljWOJV13UBvHOfm+VKlSpUr146UUzlI9cG3Bi6AJQGEgfwCXvnV64eh+BCMAybaFLHQ7ch66PQOMOeiIuZiFyTW6OzkOdC9jAeh2wwzPIcZ8MbMS/9E6hfwdhKfHOCL3Mw4neYwufkb+rFzs1nT41DtJm0PbQFBKmsdp5xrj7DjS7cqYtKKgrFwqWa1UsEo5bxOVineLAmpFQVuML+F7PqVKlSpVqh8LpXCW6oHKwUSOasfSFr1eLwzqh1YEYdns2EIkyME6hl+HL4e3cRchENfpuOPc4UYUBXCNsoCSwsmFcIrFsoNMGNM1DjcxIQDpS+CfgSLilYQ0BevXkorPJo+7ryGec+ganyeX98Bq5+nSC5Lpi+e46DeTHQgxR1atFAVoBTs0NWmTtYogrRhmiMqF9xIPf12qVKlSpfoQK4WzVA9MVDVgJQIVcMZ5ZxCsSsBZLpd3v1xvNtq2ubnpbmNjQ65ujUbDWq2WH3EAWggLw9PIZ0KWSmUrVSs2OTlpMzMzNjM95+e4UqlkBboMdQTYYnyIW4Q3LFiIa2Knm7QbxJJAljz358cORVBDyescATf4NMDoyKEVR/q6/Z6nsdNp2bDbsmPz03by2LwgbcomJiasXC57OHp7+Hc7CqlSpUqV6kOoFM5S3VdFCInVLMIQ0MHYMqCjp1vMwuy0ewKwTVtZWXG3vhbOV1dXbX193eGsXq87nHW7XXcRrBAghRUpmw3LVQBjUwKYubk5m5+ftxPHT9qxE8ft0KFDfq02Oe1ARpwII8JTtETxGWtcUvuBGNr9OcYLxbDRVnx13H2Ow6/ny7iLF3jluKY8WFtd9kkNxwVoTzxyzI4fPmSTlZpl80lrYGpBS5UqVaoPs1I4S3VfFWEjHoEMLF7A1maj7scVAdmGzjfW67awsCi34JYyYI1FZYExrEg3L0obgGjL4pUN92N3p8OVHLAFrNVqk3bq1Cl79Myj9thjj9vpM4/Y4cOHrTY1ud3lqedx2Uyw4LlNb9c7k9oNZDu1PQ4sGUZ8x14ueT/G361q+txsdzy/VuVG3Y4dmpywp86ctFNHD1u5GiyBIT4hTreMWqpUqVKlemiVwlmq+6oIGViCOK6trdl7771n58+ft4WlRbeKLa9v+H26NrudYE0LoBTGZYWAAjz5wq1jy1Z0QdzfHlwPoDWbTbe00S3KOTBYKJS8q/PkyZN29uzT9tHnn7ennnrKpqenrVAuO6Sh+LXg+H6+Ins/sR32fi7eTx7JF85ZVqTVadvK2oYtLy5au96047NT9swTj9qJY4dtYqIalt9wOEsBLVWqVKk+rErhLNV9FdUrwhnWrGvXrtlbb71lb7zxhq1vbgTAyhWsOlGzWq1mhXxp6zmsZkCVd4H2wkQAwsJxP7oAaFkb6ch2SsVcADjeidWNMHCLAprFlWVr1Fv+zMzcYXv66aftU5/+tD377LN29OhRqygeAKCC3XrXQUQ89hLv4Y4fx35CvLetdNvXgpUu6RdxDqAxRo8FeevNti0tLdnywrJZr2tH52fssUdO2KnjR2xmqmoFpT+Gg/MwEpCmq+OzoPiJV469p0qVKlWqD1ApnKW6r6J6RTija5IxZHRbXr9+XVCWDQPzi2WHKfxFaxdgRtcm3Xjhc9evxYHynOP6/e4WyHAErJidGSYGlHywfPzMGLf6ZlNgsyxQWxYcNqxYLtnp06ftc5/7nD330Y/YI488YtNTs/4s6vR7fowIc7dfF54nBD8m4u1wGeHMr277iW8kf+jibHd6tlFv2IIAbXVp1QbKgyNzjEE7YY+fPmqzk1NbUEa+or3gjNf6q6XEbQe0JKQRr91izblUqVKlSnV/lMJZqvsqqleEMyxfjDfzLsbNTQcj1O8NHcSwBmHdAt7CBABmaG643zgzM04CYAIBkBa7MVFmGGZcxrFXnANmzGicnJm22dlZ777kPmB37cZ1u3rluq3qHWcefdw+9rEX7VOf+bQ9dfYZO3bsmD/b6obxa7fT3l+jJPIERX8c3SWuIc7jU1t+EvcHSmu717Vmq2Or9Q1bFpwtLa1www7PT9uzj50SoB23mYmap59nfTydQDgqCWcs4IvcysZRHwGzAHPRircXnMUwtp9PjrFLlSpVqlTvXymcpbqvonol4SwC1vLysq+Uz5izhRtLduXKFbt8+bJb1IAx/EXwinAEZOCwBmEJSwJCBDTCjuPNcAAcz2BBq1arPnuTSQDTc7Oq/TmHwff0Xt555Ohx++xnP2uf/uzn7Jmnn/MZnYQbw74TJb9WwxBNvxavx9tJf/E8ANFOMEseSWOz1bJ6q2n1RssWV9dsbW3DBt2ezc/N2NlHjtmTp4/Z/GwAUdIfHmZcXjhFMV7KZut1+w6shE/eFvPkcc5yehY4YzxfFPuSbn/aqRTSUqVKlerulcJZqvsqqleEMxzgdOPGDfvhD39ol69e8S5LZmkmuyyBCaCCrsXYJenAoPPkNfwBAzF83kX4hBUnAmwvwxGscNwH7pihOTt3yIGtp+eJU0eAArg9/8KL9qUvfsXHowF1xCWpCIV3ouTXjPFjiGvRKdQdflCENJQ8OpwJPFtKp5932rZZb9raxqbVmx3f8unEsTl77PgROzo/a5NMFFCa85mdExJY+Be4w3K4srzm+cRCuOQt+QLczSifqjU2aFd+58KOCrBehOSonXmSwlmqVKlS3Y1SOEt1X0X12g1ndFv+yZ/8iV1fuBEa9dE2jAFDHHFcAxQ44hwwdAQMIphF0IguAl60oAFpzBDFUodlDsd5o93yLZ8qlYpNzc76exjLBdjNzh+yz332C/aFL3zBJwlgQbudDgpsMZ5RjCELuhnEYpi7P5Mu4KytNGBVJF+7vb6t1xt2Y1EwqjSzQ8J0tWyHZybs9OEZq+l8olL1/GMcnU+UaHXsmspiQc8Adw2lnS5mukCL+YJNT9bkJm1OkDaLm560qUkWvS0K1lRGxVAuWNWIGct9hDiGskmVKlWqVO9PKZyluq+iesWuQYeIsdXn3XfftXa344143MQ8WseSVrHdDiXPUTyP7+I9HPnM++KOAkxGuHr1qnehXrxy2WeOMmOUlfln5uetUqtau9X1/S7PPvm0feYzn7Hnn3/ezp49q5fs7NpMvj8prm99pQSdUUn/3I9+iGdQeC52NSYV/cY8CXDWsG6rLcBk/beQ7kana8urG3Kbtu5j9HpWLWRsrtC3yUrZZ8MSBnAWLG9dW2Sx382ODbNFywq0RpmdYJXTKRuyA3ezU1M2OyM3PWVHD8/bkcOHbHqipjIrqAwZl8a+oJTNzu2xUqVKlSrVnSmFs1T3VVQvXLScYenBAQe+NITgCbCIMBUa99CwRxjhmIS1qGTVje+JYeFQ8r1ADaCGJQ1IO3fhoq+5dunSJWs021YWvGBN6/YHvhbac889Zy+//LK9+OKLYZuk4vZCr8l4RO2+th2/AGl6yjIslBu3h9J/MZ6MwNf/4zBCWuLzHIC2mAduFcRy1mnaaNC3bIZwlEaFVW/1bKXesOW1pq2t163VaAri6vqih8V4Q3gjn7lKvLB2+X6m+QDFWM24T56xQ8FQIOdxsTApgDDmq3k7NjNhzzzzjH3kuWcDUCtdjE9zK9oeeRN1q3upUqVKlSoo9z9I4/NUqe6bImxE592UgoK8GvsSY8nkynRnendZ+BxdsYArJFz4XMhvXwvngoTxMVzLb/kJ4ZdtcoKuOcabzbrl5/CheZvX+XA0sI7AbXNjQwDXFOwIXQQS4ZkJq1boai0KLrB2AXx0J7LuGtACRN3slMyxxtd8UD1uG1BCr2aEvdA9GO/GxwEzIZTOsK4JYhW5Qb9jw0HH8npJRuBUyA3lBEfKz2y2oMjnBHsZpStjPYBTrq+A+qOsPudMvm2YK1u+MmGF6pTlypOWK9Usq/Qaa80p31iwN6d8y+uIVW2oOPQVTqe+ZmsL16xWq9rJY8etomfYEzUrQNtOy7bLOHXqlE9+L1WqVKlS3Uqp5SzVfVUSyKIVC2tRPOL2q4I05LjdljNcfGa/YwwXF98T34+L3as4BsJjQXvttdfs9ddftxvLSzYYZm3u8GF75Mxj3r35kY98xI4dOepWohge2ituyYHyaHdXocd/bE2LcbzpfkyHLgdk21a317Gud2tiEetbTsCmKAjMCqZP1hCJbbb7tt5oW6OxvW6cmwW3lHXYyhcFcgIxy9ClOd5TVGECnhmHTz0zHLnlkbF85F2msWCtxatuUfzSl74Ulh1RGEwYQImkuGDSkYNpSFuqVKlSpbq1UjhLdV8V4SM6GneOEW44Tx6jaMSTDgFBKH7e/QziWtLxnuiPdwMZETTike5OZnIyBg04+973vmfnLpx3aDl6/KR94hOftBdeeMG3fGLcFmPJCJN47J6ggNs6x5Ll1wK1KCZbfnCI8XZofHDF53nC4w/cCaSYbMnnTqNum6ur1u80LS9v2cwgdEkWFZdcybqjnLV6Q2u0uj7JARAlrYGPFHc9M+gTLh/DODMsYkO9hXThl8V9w1Gg1guTDqJrLpy36++84RMmvv71r/tG8uxK4FtHedx5z7ZSOEuVKlWqO1ParZnqvivZIHMeYQYLEy55fjsX/cYwdrvkveRzu59JXscaBmQxU5SxZpwvLq74MhxFAc/UZM1qE5NWKpU9/sNBmBUKuAAzSejDAVBcG4Y+S/kJYLj9WdDIUS4eA0AyoB44I78CyGHfCnQDbAokmw1bW1mxlZVF21xfF3yxBEnXx7I5wmWxfgVAotu4VCzYZK3iS2KE2ZZVm6hWrVIueDdytVqystJPF3CxwOzLgiCLWbHZ8FmASXxyfC6WPB1LV9+zzuaajzljX1LAkPFm2Rzvvxm+/Mr4cgpnqVKlSnV7pXCW6oGIRjkJZvuB0u7rHOOzd+KS4cSw9rq3+70s4YF1rNPp2hJLbjSb/nlicsqX3QBEMDkBYb0+uwcI0gZjp3O6AzkP49GC5W4wGHerDkNXLmIsGDwWtmyKiIZdy+1XwclvJiMH/HV7grENW7h23S5fvmjXr1y1FcVvY2Pd6ptsHN93C9mgL78OjgODkypKz2StalMTSkO1YtVyyYoCsZLAqwygyTHbEhDbHqenfNDnQolxZyxnUnSAzWXz3gV85fxblht07aMf/aidOXNmDGfKRz1H/u5WCmepUqVKdWdK4SzVfVUEooO65DPJ86S7nfZ7JnkExJL3I6ABGkBYLl+wZrtliwuLArMJm5masaogh/tMHmi2GtZuNKzb6bjryfXpPgSMgCSOAJoce18CTQAUS074shNbTmA2PmZEaxm2SvJrcoK2ocCu1+7Y8sqyXXnvPXvn7TftwrlzdvXaZVtmb83VZYe0er1h9Y26QK1uzWbd48SEhmq5aLVKycoVAAtLWEbOBF9Kp+5hPQPKcmPrWL4whlY/DzM4gTOsiUx+uH7jil18502ryR9jzujq3YKzcTfubvmV8eW97qdKlSpVqp1K4SzVQ6UkMN3LhjyGFceK4RxCdlnOELDhXXj9vq2urFhboEO3Zk2QVmDU+2Dg8NNph4Vg222Bms753GmHbsZut2WjnoAN123LdWwoYGPpCxxAFo4BzljqAsfg+6FAjiPv7zRbtry8aBcvnLM333zD3n3nbbt+7arV11etydizjbA5vO9BimMf0mbTARAom1K8WeEfGGN1f8+FCF8CULotPQ8EX3RlAlj4jTNgCyI5rGg5U3x6bbvwzht29cK7dnRu1l566SWfDODj7sjDOMbOczGhxIV7WaapUqVK9eOqFM5SfagVxmodXAzK5wl/ClDgf6BsfM4xly241Qk4YvHay1euWKFStblDJ6xWFuSMutYToDHTs9dpWU/w1RN84bCS8bkveOsyHkyu2+35vS7WNIEbXY6EHcaqhUH2Pg5NbBY+h4kKwNf1G9ftvIDsrbfesPPn3rblpQWF21ICWKds6P5ana5tCMrqzYY7LG3FQs5mZ2bs0KE5m5ioeHclafMuVLpTSa7cuANVH5QHug5ahbFjgtVMzvI6FnQr229bY23Z3vj+d23lxlV78vFH7YUXPmbz83OCs2A1A/JiNu6nFM5SpUqV6vZK4SzVh1ZJMOMc4IjgtZ9LWs2ii5+RQ5IAZjDs+yB7rGA3FhZ9fbDK1JxNVXKCFfalHArOGj5Avwucjbs1A5B1rDOGMmaCtluh67MriOrJ9bt96zik9f283xOMyS/g1m5hiWv5WDJ2Mnjnnbe8K/PKpYveZUm3J2PGWIMMDGI9W1bIaLV7Cp9tmRgH1/XxZWw9deTIEZusTThs0i3Z6/c8fSBZyA9PdsgDnWMBK4wd0AXkVeSYGXrx3XfsB9/9U0Hjhj3/0Y/67gnT09PB8uYu5GEKZ6lSpUp1dwq/pqlSfQgVQSvCFd120dGBh9v9mYmPvqoDVDPuQsRyFR2r7HfcGiXIEb5MzMza5OycdQRrjXZDgDMe3N+Vf/lrd1sBwNrtrXXTWFcMt76x6rsRrK+HzdfX1lfcMU5sfWXZ1pZXbH01uNXlJVtZWrTlxQUf7H9BIPSj1161H73+ql1674KHx04ADMzPZPMe156oTGxnPVHpUNda3ZFtbDZtc6PlG5oTLxSX+/DJCHIjPcfzYa23hu80gIXPdxsw1kxTnuWzVhKcVYt5Kxd0ddBRHBdsQ2lhO6f5Q7NWKhcUl9GW287cVKlSpUp1N0rhLNWPpSK0RdGdyXZRuD4WJIFIQ0Cy2Wrb6vqmXV1atUuLy3Z5ccXOXV+yH126Zq+9d80ur7dsY5CxZm/k1q5srqiQ8oKV3tgKFiAHOIt7eOJ87Ndm3Rr1MA5sY2PNNtcFagKxNcFZALUldyurC7a0tGALC9ftypVL9u65N+3Nt96wc+ff8U3i2229V8DESv28u9MdWr09cBgbGLsBVCxbrNoom1O6RtZWPIFE3kucsNAh3zGAvABAle664rS8sCgoXHboIq6dVlNpags8u0JZlspVfnU7trmyateuXva0stzI7OysLz0SlczrVKlSpUp1d0oXoU31oZR3Y46r7tZRfMA5C6r6fdBCINLFyqSLwFW327e2u46P1eoIcpo6rmxs2Gq9bhvNlm3W27aG9avRsmZj05auXrFuY8OeevSUfe6FZ226WgwD9QVUDd1n8/FogYtxiXCIA6ySji5ArFmFYtmPiGeJK0B148YNWxcwYvkivPgMi9mGdAi2MgXLVyqWL1UtXyw5HAJ/zc01HxN3bH7Wnnn6CR+0//TTT9vU9LQNMuP8UPp5D1a95eVljwegxSxVHJMhMiyfURb0KRfJg1e//137nd/6t3b58mX72AsftZ//+Z/32ZrVapjBikWPeCLfrukmbedLqlSpUqW6tVI4S3VHSlaW99/MYr/ZT7c35jp4yQEa8YhljFCxKjUFH52BzgU8zVbP1ptYyLrWaHatjnWLo641W21rtQVqgrZ6u+NLZ7CifqsfLGFNXTOWwaiv2ai5Zo8dm7Uvf+olOzk/ZUPB3eLCVbeCeXfoeID/SJDmGnfvASwR0FAENmALqOE6aWBgPxuu03158dIVayhuZYGXL+shP32FzUbkdGUCZrlSxapT04KueStNVN1ChlVuY+mG731ZzAzs6JE533bqObkjx45bQc8g0ra0tOQ7IgBbrO1WrU745u6s6QaoZYsFKwF/SsZmfd2+8+0/s1e+/wN/9stf+aJ99atfdeiLa7/hInilcJYqVapUd6cUzlLdkW5VWXY0u9Hjnm1xgKqk6KBLKjMSzMg543iDrhMgRpAyYIX+PmO/RoIxwVV/ZA1BVb0LfPVtQ25dALYh8Kp3hn6v3ROwAT+Ci4agqyEQY/YkVi8FFMDKww5WsG6/48A0FLgNGxsCtGU7PVuzn/jMS3b2zHHBWdsWr122jfUV8RsWuW7wr7AANdKXBDMHskwANO7xHq5hOeNzo9W0tTrjxRq2trEu2ClZrTrp9wkvdFW2bag8yRVrDmZHT56yY8dP2SBbskampLR33BJWX77u8S1by47MTthTTzxhZx55xA4fPuxxwdp38eJFu3TpklvPsHoBWVjBOAJr0ZpGurAQvvnmmz5Bge7Mr33tJ+1LX/iCPaIweRYwI54pnKVKlSrVvVEKZ6nuSMnKcnMzO7aIUaWAK5QJ14bjahaqW7AWbX/GGhSAjb0mxV426DO7kC7KrEBMEDYYWkvHtkCl0QOyerbW6tlmd2Cb7YEDGPtJdro9nfd1jhsIasJekQAY4AQU8ZklL0aDboC/0UCvH/g4MpaxcFgTDAFb+Gcvy+Hmqh2bLNg3vvAJe/mjT9qwuWlXLp23lZUlX7oCiPFwh8GChvO1zJQmhzDlllvPxtsbDWL69RHwYiD/6kYYJ0b3pXcv5gKY+YQD+cFoNlC+FiuTVp2Zt8PHTtjhoyfN8iXLlSdMHGorG5vWXF+2xsaK9ZobZoLME4cO26G5KZufm7GpqoCrU7drly7Y1atXfWxaMVd0IHMoK8uNLWGlUsXzAIB79913jbXcnnvuOfupn/op++TLL4U9Nd2f3k+3K4mRUv5KlSpVqrtTCmep9tR+1SJaPnbeDwAW22S/N4azaBFjMp9QxeGLhRwGY2uVeEvnWMQEYA5hGUEYXZOMBdOxZ1Zn6yJBVqPb12dBmqCrqWt0XwJhXVFL3y1pcNX2/pbhM9A3tsqNZ2jy3qHgzEZYzcYQJX8sQQEBjRQGMxc9nL7eU2/YqL5sc6WM/eyXP2Vf+dTHLCPAufTeu7a4uLgFZwHmYhdnz8MM8WCR2RAH8o+B+Yiu2I7CB8xWVtdtvdF2gJuo1twSNQQwWy13PYUBpOUEYrXpQzY9P29z80dtcnrWMvI7sKINBHWDXMH6yt8eeaPnWCtt0GlaQW+brORtplYy69Vt4fp7tqa4E998hgVoWZ4jWMBwlmO3hJLHn65WJiaUy0Xf7PwrX/mKfeTZp21qasqf8a2dxpu7p2CWKlWqVHevFM5S3aRYJfYEsETrm7zPefzslq8Rlq8xIOkC18RPxpAsrGA+JkwXGoItrFsNubpcS1DWkmc/CnIaQBowJr8AHPtU+qxLwRPnLH3Be1SR9X5eFuALKMwAYxJwlmWNe+KXgDMgDJhzOCNcAdVw1LcsMOWQ1XU46zSaNmys2UxhZN/4/Mv201/6pJVHXbt88T0fvA804bxbU3GOFrcAaaGr1Lds0js8T7ASKhsdfAR2Cytrtrqy7gP9AZ5aperPtfVeZn76xIAx5M66xey4wOyQ1San3WoF7DJWrqP86Qu0ermytUcFQevIuuNM7zQ2LTtoW3GkuNaXbH3lmrWbm5bTbYCQnQ/CWmVhtwTgDAseIj0sBTI/P2tf//rX7fOf/7w9/ugj3u0JmPlkgPFYwRTOUqVKlerulcJZqpuUBK3t6qFWXIptL1cDcIXuSM67Ap+uvHXEO4ABY8EAhq5Dl5yuN3oByprc05GuSO9+HGQFaYK2cXgMgAeUADKWvhDXbMULoNo+B00k+WFmocdzfN0EcMEfK+PrnuIH5DCmDPDKKNCR3oFVCzjjfRxt2NO9AFas71UAthrrNpkf2Zc/+bz9zJc+YzOVnF2/esUWlhaNpS4inLFBOcdeL3z2a4OuDboCLMUJqCT+vqSH4I1xZtcWVmxjo+5QBJxhuXKrl++T2TQ2WAea2GT87BNP+nF6dsbKzKoUDZFWJjM0Wr0w67Q9sJV61+p9IVOhqvBK1m21fYHc9uairS9dstbaoo36bcsDogojn9k5Pm7k3a/jrmmJuD4qIPvFX/xF+/jHP25HBIcRzLCejdefTZUqVapU90ApnKW6SQFogosSVggsACUMMQHCgC+6ILtqxAGsMCYsdEWyLhjWsFY/rBHmTnBG1yXdkDAQgAJY9McWLj67gCidO0jpPvFwa9k4Pnxm/S2X/NJl6uPGxtay2J3IeXwe6xm4QXcllixgDgDL6RmcW9m4pnCzbk2jS5PuTixpekZwVs4O7eVnn7ZvfOXzdnSmamtrLCi76jMYo/WMbZlCF2fo6gyO7Z0ANKxpjB2jyzQA3fL6pl26ypIcLZ8piSUMoKMrEcsZYQONlVLZPvOZzzgYPfnkkz5438d5MWhO6QOeGs22rayt2uJ6wy5eW7KLN5asNcjpWz5p2XzBrXWtjSVbXbxozfVFy/ablhE0kn+xvKMbOvFuExdWspdffMl++Zd/2c6efcLjCpgRX3YSGA+lS5UqVapU90ApnD1EunVRCDb27TNKmi3G0LKnbm/eAGaiVUes4tajvlrq/iBjm7rWBLZ0vdXL2mabz2YNkVZTwBZgjHusLYYljbByPl4KqIsimQ4BSo6/TxjGu/waN30SwShYtMZ5wnErCN0HpoibXx8DWE7xhlWy+uxwRp7JH0dekNWbvMvSLWN87ltRwbEdE4CWl7+83pvPhK5NwsBtstp+s6Wwe/aRJx51ODt9ZE4wxC4AGzvgbMtaprzyfTZ17pMFfIsnluhoWqfbsq6ewTq2uLxsF6/c0HnHt0IiHdFixn3SmMtnfJmLT3ziE/a5z33OnnjiCcvnwrpi+QJrpyl5AkmW2iC+jMO7trhsb7z7rl24umKXbrRsavaIVWoTisuabSxfs5bgTKRmw1ZdhTyGZOKMtVDnlEns1iROwNhXv/wVX9/s1KkTO7o02bYphbNUqVKlundK4ewh0K1LIN4ENvYT1pEAKFHuN34U5PhBjAIkYZOiq28oh9VKXDXukgzdkG2BWFuP1N0ylrGGGn66I8PYMJ0DYHJiM+vwnN5L9yMYtK0xCOo+8aLBRyGO3Bu6xcahQBGLqQsWrnCPZ8O1EEaEuWhV87AcurB2CbLoniPRhKFnQzhDKyh7SnJVQRfD5QvKK6xhAd4UDjAiKHGwEqCECQY68nnQt41mx+od+csU7NOPH7Vf/olP2pPHZh3KNrs9X86DZ/nMcxHQHGw9HF0fAxqfW426NTY3fRwXy1Ncv7bg14uVstXrTWsL8mI4bTksZCxt8fynPm9f+uIX7aWzj1itJCgStNEFCqRllRoc72wrToxVW1lZsXOXrtifvv6mLaw2rTZ9zGbnjnh4reaG75HZFJx1m5vWFQgCjb50iOI51PmIxXUFeuQTe3T+4s/9vP3ET/yEL6cRwQzH3wwpnKVKlSrVvVMKZw+BYhEATNsKMBPlIMFYIPndbUGjkw+oCdCFCw2139Nn365omBUEhS5FBuNj2QKu6Ips6JyuyIbONwVZm91wjbFjjA3rKSrdYUagEro2mV3JOxj073sqSuPDDiXTFeIVPhP/jKBpLzhzyxfzDUmr4hBgLDyLf7rxcoIsrFwgHuPMsJgxXxEIq+hiUX6K8lzOZfyog+6TT8qjPou9CqhwQJVoFQDC2lfvdH0WqG9YLkjB30BwAvB0lRnFfMk+/9QR+ws/9Rl7+sS8dTot29DznXZY38zjr3jjHyuapy0Ba/0e0KV31QM4sR0SS1Rwns2GZTM2sJq1u9ZTegFejvl80eHsIy+8ZF/94mftMx89azMTNYczn2GZzYV8UtkGyBy41Q1Y3BAI/tn3f2g/ePNtQXTBDp18wg6feNSyCq/pG7LLXwMrXdN3AmjJNeub1ttcsEF90ScSsPn5k48/ar/0S79kH3/pE96lGsGsIDikOu6qkqlSpUqV6i6UwtkD1n7ZvX8x7LSY4Q+fHAOkYTfaORYMCxiswHUgjG4uuiLpkgTAwngwzoGygYOYD94XgLX1LM/Li94hp2sxbv5OHXkvoMRG3PtqFNYySwJjOG4/w+MRvvAXghsKpgQkgB8pFaHldMa78nppMZu1CcFZFRhTPAr5rANYUVCWz4RnY5gOKgJTFp9tAljAqCDJ10ETALV9RmWwbjGDFP+4MC4tgJyH4Xtodh1GPv/UUfvLP/Vpe+bkIe+urHNfmbyVjsQxughodHNyDjgt3bhhb7/9tr37zjs+vgx/bb1ng4Vomx2VgxKUKyhRBcsVS/7up556yn7y85+yL3/8WTs8N+VQxvUIZ/FdbM9E3ABEAPPdcxfsB6+9YZeuXbfi1KydevwZmzp8WuUcBv8Tf9/OSvGKG7f3Vq5YY+FtW7xy0Yq5kX3mU5+0n/7Gz3iXaqkYdgUIcBa6PlM4S5UqVap7pxTOHrD2zu7QoO/VvnEdRxekjwVTg4rlCoASi8llvQuSgfksQRGtYHzGQlYXfLBEBWPDWgKQ7iDjwObjyDyMjPce+jvGK9jHBWOTIBbjHY8owNT+inEPbhvygsaWJn/5QIAh0NKLSrmslXVeBsD0Oa9IYBEr+n26Loc+ToxFXQnPgUTp7gwFPYLQtj43BV9tgEyOa1jHyCvSy3lX8BW7HX39MV0PYQU4YzKAW6EEU5wzAxPYKRXyDmd/8WufHcNZ22G23wtghBzqxqAU0w4w4QiP+0DQ1UuX7NVXX7X3LlzwzzjitNHq2VpDcDZii6aq5UsVHcP4rsdOn7QvfeZF+6lPv2AnDs96XkU42/ku9s8cT0YQnC2vrNm59y7Y22+ds6W1dStPTdnkoaNWqk5abWpa/FexTLbgFkzGFpKexvIlu/D6n9m5N1+16UrBfu5nvuETEuYPH7FiITHebNyfmcJZqlSpUt07pXD2gJXM7q3FUaXtxjzjViuxQWjk1eoBUzhgyxdoFWgBXPV+xtbpguRzPwzGB0rogmQcWFfhEw6juJIWMBW73PYq/RHA5GVPRX8cHabuQP6snsGihaXLuxj1D2PDSjqv5gZWyY/kzMr5nPxgBROIAWx6nigRRgBSFqgNuwQ0SXeX3QLokhyM0w0YmY8T4xkgM0KTLoRrykMAieUtsJDFNEWo0pmDGfewnIUFaQVn7Y7DyBeeOhbg7PicdXtYuBSWYIZwoiMsjsjLUC4JZ1imzr/zjv3whz+069eu+fiwTUGTnnKL5lpb4JgtW7ZUs0xpwoqCs0KpaEfnpuyLn3jefuaLL9sjxw5bubDdrRleFtLrs2r1PreesbOA3rm0vGrnzp2zt8+9q3fe8PwqV2s2MTVplZogbWLSyrUJAVtN76raysJ1+8GffcuuXXzXnnn8Efv5n/lpe/rpZ8P9fNhNwMe7qYBSMEuVKlWqe6sUzh6gkg03Ts2ojliwQpck1wCljkqEmY+b3aHVB1nb6KjB7gxtXdeAsbpgAIBjHBlLV/RGwZqGaOCjRlumrdB67rR0BStZ1PuBs+gfCAIIEGPCgCssKnRHOoQp8Kr4oZbPWlXEVc1nrCZAA8xqAjMsQDTypIHuRR/fJgij+5F0ryofNpQpLETL67HwAGAAhuejAMql637w6/He+Bpx15F0ZshrAZc/p+vAlS/V4dcEWlzHcjYcL1Tb7bj1LMDZCYezZ0/MOpy1sMKJnGMe+fOJ93LERTjjnIkAb77+ulvOlpeWfHsk4IzFwtrDvJf5IFcJcFasugWtIECbnSjaJz961n7uS5+wJx85ZhOFsKo/Y88oW/Yjje/mfQ5oAkwscgAg72FHA7ZtwjXqLdts1MkCh63a5KRNz87Z5PS0bbZa9mff/4H16mv2tS9/3j77qZftyJFjVqlOWL4QulmZWJDCWapUqVLde/0HAGdjy8mBtRNaXLtzaNfMyG1tP+uNpB6M/rDYeLcRjebYstEbN9wdIcz5TcGIjowHwwrmXZNjUMFq1hMvAGQDfQbAGInG57hG2M3xTqZ7Z7zCE9vXAEImHETFbs2kuM+zwE34zHPhWbeK6XNF8IUVrFrI2GSB7kkG6A/tcFkAkVEiFNdRJutpZkyaT1AQOKwLjoAvoLOhvGHcnFt/9JnFbFvyPxh355J23wlgXAaEFY79re7XsPJ/uB4d4MZ9YBE48wVnBS4OMrpOefAZv1ndI64ehsJqC2AAnHKlaF966vjYcgacdR3OmCzgaZKS74yOe0A5EwI4sjba66+8Ym+88YatLC/7ZuXsqZnLF6yTKTqgDYsTNhKYWaFi+SKubHMTBXvmzHH7ha9+2p57/LTNkK8AUjbrgOb5O34n7/G0KV0+9qwblvVgTBkOWFtdXnEr3vp6mDlKHPDLsy2FtVjftNNHj9jP/tRP2NNnn/TlPMrlqsNZnCUqnkyVKlWqVPdYH244O0jM1YgHxeNe2qOFETzsUDKbEmCAGA/mn3XsAWFq2NyyRRecYCp0NwoyRB1sV8QMv00sQwzQBz7oqlRQbbkuVhNgATgggR6P7bg4SI2jwvluKQoeF9J7891wLzy+M8xthTThz98loikJqBh0L+by81J+aBXGhulCKZfRcSQQk6ObzYMNYXfVyPuMQ0+/GnzBJnnRFIixXAfdtCz7wAxSBuv7TgA8OM570uJH0qP8iPtTetw8jbo8LoOwJtrYgiXHdU/r+JzZobgY1mAo+tV7I8j5grNjWAN/deL+uN9pNnwR2UqxYD/54mP2q1/9lD0+P7HDchbjQZnFd6P4frpKgTNW6r9+/Zq98frr9s677/qelTcWBUnNlpUnpnxWZlfp7xQmzAC0XNnHnGEhmxQcPn7qkP3sFz9hL559xGYq4/0wlV3AEumL74xHHGDGOmpxHbYksHHOeDc+s4foxsaGrW/KCdjKpZo9efYxe/LJx21ubs6tZaxvxuxRBzPVgT2qYKpUqVKlukv9eMJZMknAmbcgoeGKioiC6A66lbyRE2TR8KqNDZYWgGIMYT5DUu05zveI1IVmP2t1AUcDINN1Nuxm8DgD1hnA788ACSIQYkb4+yvMqtvZLaln9nkkFmlcTiMK/9vFHdJMN2ScCekDzHXM+2fWBguD8+OYsFohLzBjcD7PhGeHyjssgQCIW/kEmi1PL9Y/pVV5QFclWzMBnB19Ju0gkLy6QpziGLhwMYBYOPfrgFJANxXpfnAWYEQktHV969kIboCSjuyByWB/ByeOgjPWPIufKehwrmtdwUu7bdVi3r7xybMOZ8cni4KyMCHA4Wxcn3jGrVbjvPZ36ZqyzHoCpFZ93S5fvmivv/pDe/v8BbuxvGqrq01rKb8qE9M2N121gQC4np22fqEqOMu7pYrNzQGjU4cn7ac//YK9/OwZO1ZjxqTuC5TyKrDk8ime1vE5AMYMTsDMLXj6HF2ML84nEMgBajisZEAZi+NWKhUHQIfBsdWMr1UKZ6lSpUp17/WhgrPdUd0NK3tqDzgbJi0MYzADfvgcZxUCYd5wARH6wExIth7yRVnFCDiuteW4hlUI8GgJyliotTWeFemOBlxh9hVhorydjm0oJC1JC9ZNbV4CIBXFRBho+962WAdsHIrywNcH0+c4u47zcl4uRzdk1mqsEcZ4sEI4smgry1bQDcgypGwyPhKsYe0inW0fhE/asYrFtdOwho08zR0gYJyH5CnwEuMMkKKY5yGuQXyO14Cq5LW94Ewv8EOEL3/2IHAGdA16HhYwBpwwCSB+Ztyax13+Rr2uwKpuNWXML372o/bLX/q4zVfzYY0w+fcxZ+OZrj0Wbh2/gxgSDRxrsXWam9ZYWbUL771jP3z1VcHZRVta3bTNZk91o2DVyXk7KfgiX5YzU9bNAWfsAlBU8Wcc0g5N1+wnX37GPv/8Y3ZyAksWszWzvqRFrDOezsSR+DCDkyMuwliENVy8Ho/AF3BGtykWM8akcY4LcBbL0A+pUqVKleoe6scMzkJLEbyNG+dxF6SLc2GAN0gOCFhrBA66DUiIKxyk4qxHlmJg7BdjwOpdrGLBKsR4nCaD8QE2hxI1ygotDOpnyYvQIANUW+/GdCIRn6jsrpYty0r/u7T1PGHJezIP3Jo2DiN5HShjjBdwRVdkEfAShNUEY1OlrE0IwCaKWavmQrckljDCwSJIFyPWQCCrrkSxIG0YAxe6Jx2+lFk9rGQ09ko7AEvO7pwROlYivfFePG7DmUQhSHwO17bLLV6Ln4NVLZwDEw62fj8CWLBWeXmPP++GMzYgB8IijOF/N5xRT/RhC85maiX75S9+zH7+8y/adFF51QmzNVmeI0I9C/X6eDbFzfNFQRA3toPqbK77LMh3z71tP3jlFXvrwiVb2mz74rCZ4oRNTM7YY0enrSAguzGcsGa2JGjLubXKy7pQtslyzr7w4lP2Ex97wh6bzgkYK4KzsFPArUR2kMYIX8Q1nievx2OAsrK/l7CjtSx0ZzLOjbo3DjxVqlSpUt1TfWjgLEZzv+hyfWf3ZICCCC+MZ2KpBZ8JqFtAGOO76E7ypSh03NSNsCxFJizTMGAbI8GaHFazMA6MRV8BMM5Dg4eIVYib0EjxcGAYQ09Q8IecC6Uty9aWQvwJZ3cqfSaevO/OB288BVgVNZZqt62cz+o4dEvYdDFjM4KxSYHZhGCCpSqQW/IALuUFVr8NpTukXekVlABn+CHtcbNynQbQIADdgzW307YNoeGoHBqnPQnQu+OOdl/jGM7HYJW4Bjj557EFDWEBCyeUf4AOHOXiyDgOgwkDfg8LoB8DnPl9P9d1HV3yE2dWWl/3BGfDTsMOTVftV7/ykv30pz5qE8pjugCbzIbEKjXOA+oZz/k5FlrqJBCosJtrq3bj6kV766237Ps/fNXevXzDZ6OOBGaF6oxVBGdPHZ2ycjFvN3olWx/mrZsv+UK73uWaL1tFpP2p5x63n37pSXt2Nuer9SfhLJbJdtnE/NsG4Ri/6JKfOfd0S7lcYQvICC+eh8+8w72lSpUqVap7rIcAzrahJcLJbsUoxgZkt4AWICA2QFjHWBmecU6x6zHuE8mMQAcRv55zi9Bm1xxCGJjPoHzghMVd9YiLGIaY0T04bvzG93hfbKO2GsQxJIJxUcOEBS/CWbSsxc9JkNnOi6Hl1BgiDr4qvsKaKOVsspARJJiD2ERBEKbPWMdYroK4YAEBN8L6aOZj4JiMUFd63Ro4TnOHLlgHn5A+LDdY3ABQgNTHi8kP0QQofS/LcapjmmnQxTRjEd8xoCnYrXSPj0kl7+GUS+PPgx15HJ1/FpwBhyiChE62/ABp8bo/Q9qUZ1wDzvz6oCcXrWnjMWe8nTCYGKB7bmHivNez/KBlJ+en7Je/+IJ95eNPKd8F7J2OQ3yEdp71SQ16jrd42NJQoGe9ttXXVuzS+XP2w1dfDyv231i11rBo+ak5wdm04GzSzh6btalqyW60srbaz1szm7eioNqte4IzQPyFpx61n335SXt+Pm8T1YruB2sW+UV5RJcU342kYtw4er6Q7l2OLaViOBxTMEuVKlWqB6N7Dmd7Bbb1O568meju2q2kZQSA2W5ogS9Bhz57U6qosxwDsySbXbogB2712rKCYf3qC8As7xACoABrjI3qKwzGUumyGlPC0HEcJnBBWxZHQtEwAQt82m70YpwCgOzU+Dn52fbPEyFdwON2tgf4AnbimDAG48uHH4s6zoi2pooZmxy7ipx3VypvCoo7MEk6gNCwCXkYF7fm6Td3QKh3wY7zjrd7A6z4xTiGOA2tnBcQiH6wPbWVr2GF/bBkBkqmN6YDv9GItQVn5FtM81Z6d54jPscJEfiP95OzD6Pzz/Jzp3C2FS7nOrolDUuZPuMfoNIF/4wlbdAP49A47zM4PtOzJ47P2C8Jzj79zGlBcG5POOsJ8ng3yWHJD7o0B/229dtNW11csLff/JH94Iev22tvn7PFzb718lUrTs1baWLKSrUJO3t02uYnJ2y5ObCFzsg2shUHsoxgkmU1FEF7+nHB2UuP2cePFnyPzVKBsWDyo6iT55mMatLNlXJLxNPzYnwe6ytKXiecpFIwS5UqVaoHowcHZ95WJu5647GzkQBIuA4g8RmAAjzioqQ2ypvaPmuonfJNugVgwQrE7EisYQHAwngwrEEZ6+i9vZEaUrqqxu04sxNpaBANKdcBPOSgInAEltTc+zXk8RxbxLgf402Q3iCOP6Pxa1w53SMsGkvekFOY+bFlCgDyMV+5kVVyubBQ69j6hRWM/SLl1R0CSllwlnFfWzMhO0xG0GeltylIcCuX3sRCtt3xGLZoUQTLOAYYUyyVjqJAjDiSD1xna6SqqHBC7weYNloDW211HWhz+QCMCpGQFBan2NE4D/5v0hjCk/kX8w7F83hkvFbUvnCmY7RK7oSwbUDjusds/Bm41j/b/gVd7nQNKGOMWRLO+mM4ozty0O1aedS25x8/br/61U/YsyfnfCJFu9PTHwW6z6v1Nt9eS38ghLzBAWf61Gtbp1W3a5cv2as/fMW+98M37dyVBVvvF2xYmrDy9CErT0yKvar2xJEZOzo7bRvNjl1r9m01Q7elIqxKmmVigMI988gJ+8bHztinjpdsfnpSsH57yxkxTMrTPdZuCEPxNsEkvPrnVKlSpUp1f3Vf4cx/x8cXGNNDw0gjjoWIxoNGzFdmV7vR0z+AGA29L72gRtKhSxcBD5aoaHcFIGq7sQRtW8HG8KZk8DwNJVaerQVLvYkOcIK84dKpw5LOuU6c4lplB1X0S3clcBMUAAf4o/uRsUCslu8zIgVcdD3SBclMSBZsZZFWVs9nGYtCjq1wQqNOfrDcBFsVhW7ZjHdDkhfeHatzoJO0skcmFivyjXTzfATP3RYR3R7f5+i5bxPlok0oLrXswGYVsblyxmaKeSsqXUNBLVsJnVsd2uV63/evZG0rxHgqFsRF5J8fd8BZ8OdQ5Me98zZej8cDw9k4uOjf790EZzHccN2tZVtwpiOf9Y6wXZOIX3XGa40+D8fbHkU4q2a69qlnH7M//9WX7fFDFcsrTDZPZ+so8olU9uWf7vQYB70lPN9rWbO+ahfePWff+c737JU3Ltj11aZ1CzUfb1acmrPS5JTlyxU7NT9lpw/PWbfdsmsbXVuySqinilOmUPBwjx0/bF997pR9/vSkHZurCehZSoN1zsb1OxMsXDsV0h0V4he0F5ylSpUqVaoPTvcczraVaAz0CsYs0T0GRDG4na5EH3COFUwND8C10R3Zpho4AKTRDzMl6Z5jqYbuICeHNY2V4gUmavgwckSxaTdJ2b6UAJNdDRWNWJTD1BjeAJwkpPGO3Qr+t9OWU9hAFVYuGkmsXixFMaVjtIKxNhj7SIblKUJkgAe6F7tKNwPzl1rMDqVrEugMYEYXJF2RDp1KrC6F+CkIj+PYEkWIxMvPBRsRzqLFLKYndnXlFU8vH4HEfKVgj07l7Hg1b7PFAKy+nZHKgYHoxHmzX7BrgrM3FjdsDRbK5nxxWQDSpXjwrghMQTEOYMs4vnsoXo/Hg8LZlqgMElBFhQj+wh8CxGDbb0iTjy1TGn2mJoCq+6x5xviz2C/LEhvDXrCc6YYNOm2bKQztSy886ctoHFd+ZfU8cEbdBM7oXk/CGTEifOCs22na2uqyvfbqG/bt737f3rxw1TZ7qnWVWVUKJgNMWXFy0pfKODYzaY8KvnL9tl0WwF0flhUUlk3VtWLBAXN+ft63kfrco9N25kjVJgtmBdZCUznsP4syFtZeCmWVKlWqVKkeDt0XOPMGT60J+x8CU6wTxgr4DMb3gfndnNU7Q9sQfLnzzbuBMrohsZzR8AdYCtagccA7dHODgpUsCuBCgMxeSiabc/zt7pbbDWd0LwFjVWY/jgfgT+RHNinymnAYG9k0C7XKE35p69XMW4dZkEoPwIUFMMwI1VF0wyQFIDWMB4sgtjN+dA1G+NpLySU46BqOft0iqHKIYcFsgFtJ8S5lh24tOz1dtOdmc1YuFWyz1RWEmV1e71hb/isK9sRE3k5NlwWXI8FZ095eatpGP2cdvYn4etgOiQKDMSwm9SDhbMuP0ky6/bo+h1jtgjP8q37SHQ2Y9QVoDlM8vgvOmK05X87YT33yOfuFz33UZks827NWh5maCok6rnAinCEA0SG+37Fuu+F7WX7nuz+w7/7gDbu0tGHdXMXy1Rmz8qTDWalSs1yh6GPIHj95zGrWsisrm3alV7S+5W2gesLYMuBsanbGXjojQDt72J46WrVpQXWpVFHcUzhLlSpVqh8H3TfLGRt0X1pu2uXGwBZ9rSzAK4yFYnZkQ85XlKf9EpwEO8cuJaDkIJGkcYpy2BonbQu8FF6Etu1uzWBdwvrFZzGWzpkVGbsfgZQwAxJLmG/aLSBjyYqS/PuYMMUOqPJuVqWnrQ8tvY+dArwLVgDRGmStIziNg/IDhIX47i4C4kEsQ9pv1ahGhQkFQUmQEx6MQYVrgBndXzOlns2pQT9Vy9rxqbLSPLQbKpQbLbPVXsbWmn2HLzYCnyrn7elDRXuUaaFK3/nFur262rdNlWdvDH/AWegaC+lJWtDuN5xFCPP1ycaAhgUtXA/PECvi4dfwR1huaQPGdA5U9Xo655o+090piMO/z5IUhJ2cztnPfPYF+/qnnrBJPdvvd63ZDXAWLWc9AV4SzggvO+haa2PT3nnnHfujP/0ze+Wd92y1rbcXBWO1GZ+lWaxM+cbmjBurliv25CPHbS7fsytLa/ZeO698Lqqu5KxA5VR82KD8Iyen7AtPHbfnTtZUlj2rCPK8HqRwlipVqlQfet03OLvSNPvOe+v2vZWevSdC6QkMcvki6KA2kQaSFmTcmOvaNjTt2bIIsLYbF390t9So7m5kPGlqrGISCZv2raBrYUkKsyIbdQu+HMJ0Mw7C9027/XoYtB/jhzUPANttBQuzQQNsskWTj4MTlPUFLg4DwKGUjAtX9kvvtm7VqEbthDMUujbDgru809PO4H8BwOMTPXtyJmdTok8mUlzaGNjVesfWBgIsxZMuVECTsIryo/bfHp8s2mPVrHWV1u+L4t5dadrmsDROD3DG+0P+HwTOkp+T5weHs/AuLEnoVnAGgJGWm+GMe1jBguUsjEGTX+UJljH3z/1e1x6fr9nPf+F5++LHTlsVi/AYzsRwCiYnKBNwKwxf24y3OfgNLDfs2frSsr3yyqv2h9/+nr11ecFamaKNosWsNmXl6qTlc+xXmRekFQVnp+xoqW/XgLPmSH/QVPSHTcGKOaygA6vUqnb26JR9/ulT9tKpis2XulYT5IVZmtQpj8IuhXjtrZCXqVKlSpXq4dA9/1WmcaNRy6qRYrB7WY1CORusKr7kgO45p4iA4Ie87uV8ADN/8e/Zqri4s+W8rR03smMH9G2L5SkCbE0x2F3H2aLZ8UrGztSy9uRU1p6eydhHZ7L28bmcfWI+ay/P5+2F2bw9q2tPTGTtmOiMlfRp0lgo9GJ9aK8KNL91o29/eE3uus4XB/a95aG9tjq0dzYydqmRseuC0pVO1uo94Iz1qRQvtyyF9LFshi+dcZv0bosiup0jnuRByAvk+ULwwKmORCOTHQjI6MrM2ZFi3zqCjqtrLbuy0bXldsZWm0PbbPd9HJyXofI0I/hYaZm9s9a3Kw0FVyzYE4cKdlz5WMgqn71LNcQh5BblG0CAOAht3PH+eB4/x2vRb4w74txBfuzYHim6+L7of/dxb4XngqVUL05YWWPNGjnckJ4YFnkwEMQr32pFm67VHO5V9ca9qTwX/Ea3JeXByNhkvGcbjbqtrG3YxmZbeU56WGEfxyQQvZMvglu8FIbCdC6WAOm8p1fS/Zhu8s33dhVUAtI3vTtVqlSpUn2olWyh7lo06FhqsEJkdCyO+lYQpLGvoI9HUqMYIEqNpFoY74YcNy53EhFC8PE1QwGCwiypgWNMFOO+DpfNTtcy9uRkxj4ym7UXD2XsC0ez9pXjWfvyMZ0fy9onde0js2aPTrOKvho6tWtL7aGd2+jZ6wKtHywN7M+W+gKxnn1TIPbN633704Wevbo2svObQ7sqiIkA1h5k3XJCmgAuwKugBhUXQSzpsGhFUEu6u5LnbXDAS8xjhwsdfA0sgVkt31OaRzZbzdlaq24XlzcFXpSZyqCvpwRlnHfdHCRY0aHHHprKm8X6wF5fHtmFTbOpCoA2YSdKJvjuq2wV/i5YjgAW4hGgKJ5vuz2USMtu7ZVf1CucwwnH8FIXl7y28O7oPG+4R5y5pmeIn8cn3Ity38OBW1UPT1ZsrlZRGW5Dpgepf/xcL0u8WnFSvgvg2s2WrS2v2tLKujU6Xb1OQJYLm4ezLZMvj5FTJcwXbKhrg0zel0MBFMMm41jUlEZiQ9qzRa9vzNjd1B8NdJMPfO5ozHviNI7EDpG+/VyqVKlSpXqYdE+7NYGzPuNuej0fc/bewqZ9Z2lk7zbztqIGpK8GKDai3qjS2Ohj7AZjRXkU7C7bYvHTMLZLTse4PhiWsZou1NR4skhrtRCWrWBGJM4bUQXWEigy6F4cEpajUMPWZAxcj9XzAazQDcm4IRp3GjoUG1yOEQg4Dw35+2/UDprlO/wpv26lLWDBYjOOby47dMsLFhnGlZ2YzNnZuYKa+Zx3mV0TcLUzZd/IPEzCwKoU3hkgaGc82WD7UCVjL5yo2CEB3vKNdfvuja4tDirKu9AlyHMhjJ3x3ZEWKXwOJR23ZULRX9L/7me9q1HX/HowYek8cS1xjov1i/q5vaRL+KOBOPAHRRj8r/gLxoa9jndrZoc9AWvb5ipZ++qLz9jXP/EROzyds4Hqd6vb8VezoXgcN8n2YOQ/3ajM0hzp2eXrC/bqq6/an3z/R3bu2pJtWMFy5ZoVJqYtV5uyfGXC8uUJBzDDapct2PHZGXtuPmeN9sAubAxtXcf2iK2UFF0sbPmcHZks2ouPH7UvPTFjT0zlrVYqWj6HNY7ypvw8yalSpUqV6kOo908Ye4iGkIYPx0bPJTWSJTXaWcYRuZlh/9fBAbExBcbYqHtGwIUl7FQtY2enM/aJwzn78tGCffV4wb52smBfP1GwLx7L2UtqyB6ZyLrljIZyoWP25vrALWB/stCzP10c2B/LfWthaN8WLP5geWhvrg3tvODkqohtVf4ZPwakMEtU7a07nykKsCh+visBaRvH8W7cXjqov/209ZzTpBpoPR7Xk6NHjC7a+WrBJgSzrM213BkJoNlbk7RuA13SxS5Atw4pvFZ/YNc3O/Yj5SMTOh6ZrdiZuapN5nvGllIxHn6UI6+iO4i2nk34330e3e7P8dp+2u1n93PJz9HF5VmqlaIdmpmwmuqjeFe5OvZDVusrRPr4QyAExB8ejFFUnen1rdFo2OLyuq3Um9bher5sGQb/l6qWLVYsUyipoEo2lBvlVEiZgv5oAPKCZa2oPzzo3gS6vEs3W3Q/gDQznpkJPFRZxfcTr3D0Q6pUqVKl+hDqruAsNmLRRXFOR0sx02MRADk+q8FXg4LVxhv/7EDQMLBqfuiWieOTGXtiOmvPz2ftk0dy9tmjWfvi8Yz95MmcAKzgY8KenMrb4VrWV9Nv9jKCqzDe608FYd9cCOPA/vDawP79tZ5ArG/fWe7bG+tm5zbMrjdHPnaMgfs7F5wVmNDIyulMLnS9hvPgIqDQnRRceH6HA+Luwjm43srdoYg3M0KBTEw8lEEpn7VCDshkPbWcXNhFgV0HSHPME44O2eP0s1Aw1xRLB9ZrArQ3b/RsdVS0x47V7OzU0KbzlPMgPOP5Q0g8EbRdO7a1lXdjF6/F417nLsWX8tiZLzvPQ5nt8/wOjcMaP3+TP0Hn9ETR5mdrbq1l0gA7CPCIQ7znzbgMFQb/0uXOZIZ+t2Gbmxu2trFu9UbTBoKrbEHQlS9Znq7NHNaussCroO8CG3UJ0pSLbcFZT58LxarKLE8MFTRWNX2LBNeUQU/v2+z29EdFX7lOWpPp9UOqVKlSpfqQ6s5b/T20u/Fz+PJmZmQFHXFhxhwKr6QZK2RGNlsa2scOZ+xTp4r2yWN57845U8vYTCmMs6n3zK61Bvb2+tC+u9izP7ras9+71pXr27+/PrQ/Xuzb95cH9sbqyM5tDu16a+gWIRZzBRKQx0evjy7ENTbg2y7GLabnVm4HOO2AhHurvd59EEfaWaqjNxxZW9H1rlysg8HA5ZauXHbbWsblCGPReVhjcCTHPFx5HPaGdnmtZT8Q+HL76ePTdqKW83XTUDIed6LoP/nc7nN3/McYN4/VzueS/rfLOHltp5LPRF+kHXGdkp2brNj8RM27yvEKDG0D+jgMXeVJxCQCxut1VRfXNlq2stlS/gt2BVcGbBVLlikUxVo6B7j8DxYcG42H5U+6Cp/uy4pgmq78rO4BaCMd+VaxMwZLtbTkBvzBQMFIMS2pUqVKlerDq7umitBAbTdwsbH3sWGZMCmgOOj7+B7HH3njpfin262cz9ihWt6tOstt8zE2b6z17ZWVgX1nWfCFBWxxYK+sCsB0753NgV1sjGxBwMbemnRFYiGiQU2utUWz6l1O+jeAxjaE4WjMtj9vpyGmI+kXdw+y6oGLri5AgoWAN9hEW5nFTg1T5awdq468y3iqMPQxfKRuKAjzuQByW1a9rXwBSJSXOtLrtqlMv7LWtMsC4lw5b2dmy3asNPKJGVibyLLoQv5v5+22eGtwMY+383r/852K9wl7+/7Od8Xr4V7UzfEJ4JUMo5DL2OHpKZusCajG1xgiNxKo7Zcu5YjXr3azYSvrG7bWaPsaf3RJZnMlQVnBMrmiwqMbM0BXBPwAynQ9C7YEaj6GUpDG+5jZ6SWlI5NY2v2+Ndtd6wxCp+Ze6UmVKlWqVB8+7Wyt7pG2AE0NG/BVVINNk+PrVo3HJtF40SXU7vZ8xtlG1+y95Ya9vtCy19dGDmGX6n1bFLAxPoouSTb7phuO8U+gHkccDTcuANd2g+luCzJ2umQDvJf/h0/E6Q4daVV2Axy9Ud7WlZdLHTX4KpMz01k7UivoXCChhr8/YtkPcBkLDnlDPpE/wcFccfkPFZWP7dts9e3dpY69vWo2O1m1Rw5P2GyV3QcGPjYL8WyIT1Ayr5Ofdyt5ba/7Ufs9Szw5xvu3CmM/YQGbn6zZsdmqLzo80h8aA4UDClHX9L8D686wqecD63Q6trq5aUssodHs2oA/HAp53wUgk2ecWZihyaxMwIxxY4h48+ZOH8ClGxrrWqirPgbOBHO6PxzmraeyZOwfM4bfR/JSpUqVKtVDqnsGZ6FRCcd4zjIAlULWF8/EhhUVG01f7JSumfGMu9ywa/3hwMdAYeHBSrPTwrXdyCcVw9uSWyGi20O6vwVh+E26qN3X5cJYouDut3anKX6+E+ezBnHKXiwuwNm1RsYb9PmJaTszN2mT2b51lf9MCkDezSZgiC7moYJRfnGekR+/YgPB8kJ9YG9db3p38qH5CfvIjNkhVvKlC1DhAnWYmnh+y5Q2dsQxqfg5eX33uX9W/utM8Un6T5QJ9xOAvWcYY8XPeznW6pudqtiRmWnf8qqvxGAtczfOL4Tf8OcCM0B5bmTNZtOWVtYEZ5u22ROsMhFALlvQsTjh2zZZoSYwFqCRoeQ13xs5YFnZar1MXt+fvJVzObfgcW+ElS2n9AnUWEev6ctpAN/EgDF/elD/KlZELVWqVKlSfQiVaNHuXBHEIozFI8ICk1PDU8irYcn0t/3ENgNrjXz11dgwroz2ugzEjS1rBxKQtJeTeE9wY5jadf/uRXrunaN9T7rd1+9UDhhjAA3wkLF2f2Crzb5db+RsWQ37kVrWHqn2bHrUpSPOesoaFpDdUY5+Tp5FF+TWNd3r9noCtJa9utSyzb7Z0zNVe2y2YJN5urIHiXIYx2nsouL57iPa79zl5bgdnz0lPxHSeP6mMA6giUrZDgvOfFi+qqZbzMQ//D1BeEMGlynvQnc9CKz8G/StVW/Y8uqaLQvOen3FoVT1GZo+1qxYEZhVldd5ZYyeSMSL/Aa8Wiqvvr4jxXzByoLdfGJ8oDuVmP9xI0Bmt4poNU6VKlWqVB9+3aZ1u71oKHyRTLlk4wF88Rc+XWhl/dVf0Kt4mTcgNJqZgpqyvPUHeUFDCKvIivO04h8Cxcb+wTkg6/bOrY1y5HEYcybn9wCJnG8yf6lu9tYqOxlk7NDUlJ2dKtrhfM/yguikhXNvqezG71IBq9wLgoScXVsf2duLgr9c2Y7NTthTE22bLqhgMwPLqvypEx4H4GYMEsCOOy9y7odj8pxj8npwCQFp1Cd52o7XtsJ7E9e2/DtSbeVRNLSFcARCuuvjIWembLJC7cUqNXTrGS7pN8ovC5gG3Y6tb6zawsqqbyZPF2bOLWcsnVE2Y2FZ1f9omQxWSkVAf6hkcnkb5XK+xAkWZDY7L7MYLdYyvSv5PaO7mpmd7b7ipXPKmVSFLbO2j8GlSpUqVaoPi+4azm4lusiKjDnLqhmJg5ASolGkoWNFdMSismqC/PzHWbFRT7p7rRDuNpiw7APjpXo6WWl27b2Vvv1oRQ17oWhPzpbtkQmzyWzHst6gH0wx3pTzsJ+1i0tt+/6aIKWUs8fnq3Z6Im/TGRbCDZAUdbv07nc/pAm383P4kKzKnO9dtXc8I+22rMV7HOenynZiftKqBYBuoPoKe21bqaJfl+qxW81Em81W3RaXl21xbUN1uy/YygvOBFjFkvirqO/CdtwiaIWN+IFEFZRgrTtgtq1SUdB3CECTH8b8JZ8hHq1Ozzo+Y5M4K4Y4hbEjbqlSpUqV6kOlvVuwu9B2YxNcKZ+TC7M3sSzgthpAvb4neGCTbfDMhyol/sp/WBuY2DC/X/egFBv8KACNgfztXs9Wm227uD60i5vmsy1PzE/YqcrQytYb+z6YPD3DYNHZ7HTt3YVNu7Lat8rUrJ05MmlHqgMv++h3v+63eC15b7/z3bpX95KfGW92dHrC4YxN8t3iN7aysRgxfqN/kCnWbSYDNDY3vUtzpV73ZUywlmXyVQFaWEIjWMpC2cTvCZbmeIQXB/qHBWYH+aIvRlvIKY8xM0rM2cQvFlKsZs1O33rM2LxFWlOlSpUq1YdH9xzOdkgNCN0yRcYwq8FJggLWAdoSb2AG3AzbMtEbSjdM6JK5WbFRvFN3b0TkotstsvLuXbR2bVu94r07F6AbHVskARhsU9QTDLNpNoB2dbVrVzsZq9VKvhn8ZP72ebU7b4GWoaCO4u02RnZpsem7NByaLdupQ7UtmIjPIuKyW/HewbR3OcQ43axx/uoRz1a3tG0/z5gxPnGMz7O+2aGJ2tY1HNGO5eL+dE7SHLSsr89Da7catr7JLM22buR8hmaBsWZMCMgI0HQNRTALeaNS8nA4D+/oDVRe+pjPZ63C+DOGDyh8/EQrWljvrK9yTXQXj+OfKlWqVKk+nHp/rf5ttNXgqEEJy2mEjckZIB4atu3Gjj0JO2pYWLcpXyoK5liUM4DZvWxk4vuiuxuRhJsc1w/ownphe7u9/N+J2xID+3WB/TBx7Fu6lW4IOF+wQTZv1+pde21JgNbKWm3msD1+pGazozUrjPr+vCLlj4TTEMcougSBa6743pQKl/K9UR/YGzcEfgK02flJ+8ShkR3L1rfGS+FnxNIdfsQlwiQPxm4/6RH+Hbtt7X5mr8+h/oVqHz7rk0CNtPoen7h+z6YqArPpCSuXcm4tc//0M8rxnMNliIiLpWGx/Hab67a8csNW1tZ8iZiwJZPKoFj2XQEYU4YIY+t7sqUQr3jdZ9DmS1YplVQeYX9ZfG89Mcpbs1+ytU7RGj3QMEDf3gKG93OpUqVKleph0n2BM0TjorbYOYABzcVM3/L6qz82yPGvfMwFbB7d65sPmq4UipYfBojzhj/Zdt1Wsem6Xy4hLC9JdwsFCLg9dOyl3c8exEUxzq8wdsKP8SboylPlOYPHacxp1K83zK5u9m19kLFHZsv20SMlK1nXu+iwGpG+aDGKM185xvdxj90IhoOsd/m1+lm7styxt6+1jPHwj89P2GOzRZvOdbyLMMP+kAQbC5ewMBuNw97LhfXXdsPMtpLpRrs/b4XF6TjeOLeYudM/AjPVOsv2u3ZoqmrH52ZVH0MXZPIZ6iw9jKw7hkPEkPxqNeu2tLpmq3UWntU9tmoq11SPs5bVHyme/1iNSS7P648Xd3wVsagJuLCskTcsCMwGaFm6NvNh0s2WPC0Z6+hY1182deV5X894/Lg9PqZKlSpVqg+fEr/290p0u2AVkFPLR3vC5s1lNdr5wcAtL1giaGKzdHjpM+Ogur2R5XIFK+uBwmBstZEPFkaNDTfHHU7PHtTdqfYKI7rd2stP0u3WXn72c3ci77Yc9pS7A+V/AAbCCF2IoTx8NiyDzrmie4z5W2sN7Np6zy6v9hwoTh6ZszOzBata0wFvOOr7OHOsRnoohIl1U8CNWBG/r/Lo03UKpOjlncHIrq50BWhN28wU7fihKXtmsmuTeQGfyjinOOUUrvDEw0AxzUlH3LecXum7FyTu76VbXd99L15Luqzy6NB0zY7MVq2GOWzsjzhgPePITEm0BYzK036/b5vNjq2sN63eZs/LktJatlKx6muXMTEgM7ak+WxlYExH3JCtmXSPxWrJTyZvdAVdLMPBxuelAnCm9zPYn/IjPL22qwyhW5OtuboCOf+DRs96GY/LOVWqVKlSfbh0H+BsLDUegFlOjRiTAspqKAqmRp6GQ+IYrSBYW9r0a6qBogu0qEYey8FgbB3Axefut3jPVhz16j3d2E/S7+10J/6Tfu/UIbI1h6VGBcC+i2xxRReZg40gCgCuCtRYf479TfG/1urZe2s9nyTQlp9njk3YozMsg9LzrbeGfUHBGIix8yDyAgk1fExh6LaMcchYS8BweaVtbyvcXrZgj87X7PRU3iYybcurPlA3xt73VEzPboW0chbiE/0l/e++BrDuhpWkn+3lJ4ZWKxXs6PyETU9U/L7DGHkAnI2fYezXlvPnRr6V0up6w1bqTV9/DAshkwEAryJrnI0tZrsVgBZrpKLoLnwtO72BNQfKJeVdpcwm6YAb/uUUDke+Jx2BYKsLyMW0hDimSpUqVaoPp+4pnEUrQnQ01mqXrKRGpSwwK9AAxgZSjYp3malhYu9HtnFin8GSWvn8qCtvoZHZ7fbTXn7fj4thqbm96V50t9Je/nG7tZef6A6qvZ7hHItZXvlYzI/XmSsAyFl9Zq/Ioc5HVsKKpscALc7RRmdo76127eLGyIp65oljs3akbFZh/TN5xoIWAcXfOQrjpxwvRBVAWrTWResm+5++u9L0rbhGpVl79MiUPVLr6Z1dAcZgT1hBMU3xXbsdoo7tVryHQrepYjW+tvMe58SY9ABm2/dnagU7MbaaeT2Uvy2LnSAK+bmcUimYErj1etZoNW1xnVmazdClmSsr31gHLmulas0tZ75xOSDmoIYFLa98YDHacZcnYao8OO/1WcMsfI+KRaxu4XsFzBFTzlnfrKF3NwVmbGrPjNxk/FKlSpUq1YdP9xTOEO0hjoYjOkBhAkjzQeZYG8aex2KNpq4aItoV1pQqMUZKrSH+aOCDOMbz+yMaM4ey27wmNnx7uVvpoP4OKvI2qRjuSNeZ+TpXGtnJCUHWdNY+Mp+1Z+fz9uRM1o5VMjale4XswCdpsEE9AC3ystVWzy6ttO16XWVRLemZgh0u9QV4fcvTxRmtSGPwSVahZPoGKlTgiIWG15tDu7gi6GtnbaJcsKePVmxW8cpl9162IxnO7s9JR1xivfBr1JWRQCph4XKNu8R3dI0TN/yMCzucC8N0mJsoC84mrFos6JrqJWmWHxbx9feMwyZ1WeFRdihoHQjO6i1bXqvbRr3r24/lfJNzls9QOEwE2IIw5bU/DxwCaLrPXzFjYT3DGsfesyxGOxDEFUsB3uL4NPbiJOrsEtDusu8sE2t4SvfHaUqVKlWqVB9O3XM4S0KZW87k6GKbyKmByQzVVKvhUIPiez7SlNDI6JzFUbtqiEr5vFXVTnEPxYYwNoo7nben7njiYdJe8b2V9vJ/UEceRkX4mC1n7Om5jJ2dy9rZ2aw9KffsoZx95FDWnpvPyOXsGd17dNrsaDVrk0VhgsLp9Ue22OjbO8tDW2mZHZsu22OHK3ao0PUuzoxALgz+1zu3wIYy5FygMT6PcXNLWj9ry/W+nVsf2FK7b5WJij16tOpbPCG4KbrbiTCT2v05qRiHpHhF8jXBz3acK8WsHRGYzVULgkdBqPCJ8XQAj4P7OEz59vF7wjUFMrBuu2kr6+u2JDjDWjjMFMVbuJIVyxO+9+WI6ZZAmCCRbswwmUDfEUFYUIRdXdMbgELWMWOoX17fCyYU8H3aXdc7g4E1HNBUNom8T5UqVapUH07xS39fFQGNAc1FNWZ5w1qj5oXGikYOsFBj1VCjsiz/Q9ZFk9PZVkOabGiwCm07PgeXbDiDo5E6uMMI4+dqiG/niO9eSr7/Vkr6O4j//cRzEcxoyLHIVDJ5O13N20eOVO3xmbxNFszXNdsUFLU7A1+t/3BtZE8J1j55omSfOVG05w/n7PRkzibyDNIXJIskrq8N7MLyyJYHBTs2P22PTwNvbQEGZSLgzgrAGRYv/5RlLM+Ylm1gBNhYV21oC5tNOyfiW6xn7HRxyl6YmbFj1rPKqKvyC12LcQYkG3wnoRPFsL0cxucovDecB2tahMRE/tKd7l3qWNWYDTx2ic8myCkIoA7PTNlURSAk/8QhjDfbmb4oNjkfDvvWarUEZ3Ufc8Z2ZKNCWHCWrZhGqs9Yu3x2pp5xqxdfvXE94h3AGF2oSrVfQwAhy8z0dD2rsi3Jf3Ewfk4u5g/L0TS7oQu0p4jyLrQ7rqlSpUqV6sOh8Ct+H+QNjqCMI91hRTX8JTXsORoMBvAAOXI0pkM1Pr1BxtpqubJq9Fk2gIHqI2YJqoEEvJA3jmNA2u1CQ3ez5ebAjvD9LTu1p9993K10UH8o+Ivp2N+F4gtFiFGmrPydqwm0pos2WTSrd0Y+yP/NpYG9vji01xZ69tbK0K5tjnyPTd4zWcrYqemMPTlXsCfnczZTUtkN+g4F1zc79vYqswBH9uiRCTs7V7UZJghkeZb5imOAJkkqQ53d5HxtMJXPkHGFis/V9YFdWutaq9uzo3MT9vghrKrMBg3lHNZS03OUayKN8TwclUex7Lf8kG/8y7WYx8G/1zHGjLn/8T0dY/e6g63O85mBzSrjjszW3IKWpb9d4uDJgB9Vz3gO52BKHuhmq9mxheU1W9zYVNqUkixdmWWzwnhtM5+JGQDNwYy46U8VaDekQHETgDnEcV9wil+3KEN0rHeWL1pOkWFdNp5Aoa6M3HLWEqAN9D3yPBkD3Hb+3MqlSpUqVaqHSff8lxkYi3/Ro2g5yxcylhOg2ainl2KtCI1KdPz1z2wzHi2y5IC3frRKQfi5lWI4d6MYxkHcQXVQ/3cW9najCiSx9ENFEDAtsDo5XbATU4zhM3truWfnlvt2rWG22Mra9ebILgnM3lgx++61gVzP3hasreteRWD32JQAbaZgR8ojqxa6PubpxvrQLq90bVCs2TMn5u3xqZyViwpc5cMYrJ3jm4j7zvhj4fRSHAg/ekNrt82ub/Ttnc2e1XXnzFzJjgsmJxQeC7miAOzbdSQqnu/Oo+T1pIthjG8Gt1tYpTjIL1azIxNlOzYzofxQLSUeQJ2ew8YWnRjPHfnO2mbdbts2NtdsbW3NWu2+7uW8OzPn65OV5I+1y0I+kRdhnTPBm4MkOIblLHx35Flv4BsSXLen8CFDhVEq5vVHyxiIHYaDgMdmR3DWC1ZSh9uxS5UqVapUHz7dczgLQQZHNxsNTrCGMWtT4KWGzi0tCdGG0B1D40L77Atu0gglusy2BLAloG2HxtaC9+P2sjAczOqwt9tuHPe+H93+/nZr73uME2NMH13Bk+W8zU3mrax2f7PVsYXG0C0qrFKCFYYB4+uCo2ubZu+umb2zOrR31jL2+rKgbUPYIT+PzFfsyfmszRTpfu5ao9O2Cysde28163Dw6JFpO17NWjknoNb7HX5UHr7+1l7wM9ZI5ZsdCNTkNjojO18f2HsbTcsK2k/PTdoJ0WFJYWRzKlvvZtwOi/OkIw+2z4NCHo7FeeKz++UYPuozJjDFF7cVztDz7+RczWYmyz6ezIZ9B1RmQO4Fi0FDwVnXVtY2bHm9bvV214bZgndpZopFyxUrZr4ERoAtH6WGVUx/sCBiSTe/10Esaax5pnJg4gCOLs1OT+/VeaWARZk17EJ9iWGySXqjy8QAwaMKBUt0jOfN8U2VKlWqVA+7drb090g0HtFS4HAGlOUBNFapD3YB5M0jcDLMeLdR2xshLGcMfOZhb/7d7/3UXg3Yh6FRA0gGjDPqszJ/xirFnNXKysd+z/d17ABDaujpKmQ2LAvDMqtvs2tW72Ws2c/bWjcnSBrahdW+LbYyNlHJ2uOHSjZdzFi/27H2oGdLjZGdWxzZ5Q2zsl7w1KGKHa0IM+iVc9C5Ob/4hOPd8RwR5+4wa6vtkV2hi7OheJcKdvZQ0Q6VRlZT/aAbPDPqeZhJF56Pn6N16GY/aOe1UM2T16h3WJyog+5HEDZVK9rpw5M2VS7qHugG6Azll3R4EFsC3hhvBg21221bX1+39Y26dbp0xav+endmQce8W86IQVbvDHtijr8BMJjC2V4bziu94oKf4Pr6YjDgH6BjtwJfAsXjDMAq/XqGCQsspdFQ2bZVzkwKQCHtqVKlSpXqw6bQat1D0c6M2xpXALWRW85weRok3Y+NZBTWiR77M0r5AjM8B4rczY1LfG63e9CK79wdj+hupYP6O4hYSoFV/vsjNd6CnLzyeK3ds+VmJ6waL0ADytgguycoouEGPHAdNeos1bDRzdpSy2xBTo9YrZK3skCv1+lauzO0ZjdjNxpd3y9zUX7o+ntsvmpHyz29r69wAYIAMsm0xfT5uXhBUVH4oauwLzhcFZi9tWyCv67NT5Xt7HzFjhQGvkeld2uPn41Knu+n+N7dz8XP4XwbXnDDsSV2WuB5YrYiQM1v3dP/THtwB6AJpdwv4n5XILzZaNqKwGyz2fA8YEV/1jfLstk5XfQAGRZafyiMw+RLQIcvkEc4/g5BnFvXBFzB6iwMU1yZoIH1s6SyxSrq3akOeUEkh/JlzBmzbRUF6Z5/tVP9GCjWa+op++FGx+dUqfZSsr70+313nHM91f3TffkFjw0HxzjmDFcWOfCXfxiFpEaIgTsJdSE0qZgvWEG39oKz/RR/dN6Pe796P8/ezfv2EnlcyGaslMvaRMl70Gyt2bdVuWZv6HsvsgF3sKZEF+LBrgEMNgfUWiqLlfbI1gGyQc+BJZ/NWX68tld7wFplfTu3gF+zk3MVe3ZiaNMFvWNr5wcsWR66ThNuLKADRzuAURR4fG9TbrVtG4rrI7M1e3ymYJOlbetqlNcV737eWWbJ81Cdt/2IA3mp34lVPfrnGBc6hgMnihk7NjslSKxYXnnIyC66GbGsZZQfGZ8NsC263FFPQLS6WbfljYa1BMXAFXDGeDNI2bdpIhz/TgToYowZvbeeNd6dSWrpxhR96f6WdI/X8o6RvhtMkqnmsb6F2255JluURrbOavV61hIlA3JusRy7VPdG5CWzci9evGivvPKKnTt3zur1+lZD9WHKbyy9b775pr311lt27dq18dVUqfYW7czy8rLXGer9xsaGQ1r6+3L/lPsfpPH5PVEEM293xj9W/f7ABzavd0a22M74Js0dK6hxoYVSI6jWJqfH2ObpSEUNm55ebHWtyZY0IwZOh4bIq4EarNDg0thyTLhdH2/lCM3jOHZ3rj3eLxfq6s3Xd7uD+ttypDkZYTlwQc2CTRRGdmIyZ49OZW0gwHpnWXCmfO4JDJhoEbrwgkUlvJcZgiHcXC4vx8K/I5utFu30jOBCpXN1fSjAYzB60cEi9rh1um2VSdamSzk7LIjuCFIazZaPJaMbj7+wvA7Q7ca54hfepRcLIPgcEwDg5HWNNAxLgrKy0lJWvDsta7Q61h7SHZiXP1bZ55lINDw+PsJISt9Wfno+Ue/CZ47+dr+wfc8/s3is4pAd9mxW737p8SP2/OlZ/XGQ8+5E3y8UOOr3lH+qreSD3u8WL8V62O9aY3Pd3ru+aK+8dcGub/YsV52zwsScZYoTlitP+iK0w6ygi3eTiXJZd4QFrAngBMHuh3wjdPcHrAX/uXLOytM1mynmbXOz4V3RzKAF+jI8q//Y1P5QrWAnp/M2Uy1YhYWcFRzjET3/PexUd6sLFy7Yr/3ar9k/+Af/wH74wx/6H52PPfaYAzmi7sffwIdN1HlAkgb213/91+0f/aN/ZN/5znesUCjYs88+62lJlWovAfN/9md/Zn/v7/09+/a3v20zMzN25swZrzMPa33/sOu+fhvjDxWuIPryrYSs542hg5v80DA7wOkD3W91dnEqFq2sHzusZwgwcwuDGsswzggXnotuP+32F93daK/wotutvfzgdmsvP7vdbvk15QtrmZ2YUQNeMlva2LTrGz1b62S9OxKM8C8QQOZfIoocoqHdH6kBH3o3Yk1ty3wtY7WiQE4/4GJp7yplWS33O877RsfsEntwrvatX8jak4cn7YVjVavlu3pHKFegI5YR8ms65e3JrzEWo66gZ6U1tPOLHTu/3BaQZe3x+ao9MV+zSbab8i7HsFp+X+HERVb9eR1xAGE8v50Lwn+wdrATRXHUs0MC0+OzU1YpApj4DeHHsJMKVj1dE9w1Gw1bXlmz9WbX+layQb6iIlFBCMrCrEzFl/yQiyK0gKnh3s4ZrxKfE05/oFpPf6hQjqVyIUyaGMvjpnJi+Y52D0soY9C289//qNkVfKr3J74/5Gmz2XTL2T/5J//E/vbf/tv2p3/6p/6dQbvrysMk6vJ7773n8f5bf+tv2b/9t//Wbty44Qsch9+GVKluVqzTly9ftj/4gz+w3/md33Hrcar7q/sGZ/73ur7wOBqVPF1vgrNKbiBMCA2u20xU8MEJ1PoZNTI6yYdtnLCt7Tszc5e2w9np7pUOEmbSz638HtTfbu32i7WxoryaruR8GQ2AamGz6wPD+4I21o5jeRImC7AOGt11+RxAFqw/GbpjeuxjOhA4D2yuEhoglmXoMHbJuzR5E429TrAm6bDWCl2R55t9Xw/sKQHa4UmV+LDlZe09gP4s1StUsRjvHWlV2fK5K6hYEVC+vdyzy5tDKxXKdubQpJ2ZFNRn2tYZiQjpDqdLUKThoIcVziFqO9w9QYqPWN3GLt73pkjAlxt0ffuqw1Nlm5upWoH4E47ijbWMcZB83kt9UdP6xoYtrm7YZmdgg6KADDDLlAW+dGsqrHGb5/HTMX4ntq4l4puMezznyHv6ffKlYFPVipdlmMms75aTl8pagbf4/vhCtKoLeo5JNvvFPdWdiXLAnTp1yr761a/ayy+/bJ1Ox/7oj/7ILWl0DSbL7INWjG8yLlg/ALLf+I3f8Mb1iSeesJ/7uZ+zT37yk/69TZXqVuK3hD9C+D16GOr4j7seyDcyp8Yory9/UXBQZiyTD/YPohnEYRWjAWKlc/3hb+VSUc/QRRYaNR+QnbA+7C3uv3+3bZW72d3kT5Ha7ZLWjr3uR5f0dxD/7hJfhvijm1U+0g04K0JjmRKgaYMR/hIzYwsCLn5zg3/S4bck0CN0cbAMxGjQc6vmhPw2OyNbbo6s3qWBV577c8GF9Icv6VKrZ2+u9e3KOpuiF+zxY1M2V2LNNUoTOgvjDJNWqJgGh3L3A3DRyaow+wNbaYx8XNv1ZsbKAp0nZnN2uGpWtLbC7XtdiHGJ4SXD3a14jxi5xqDP8w53zDSVq5Wydnxu0vfUBJz8GQBtfNxL3Gt1eoLKhi2vbVqT8ZIOZCWljO7GgjyR+WOwlYBLz8NxkBHS9lJ8BvmMzW7P87NaLeuoexBqQljL2OqJLZxYQDhZXqnunUqlkn3sYx+zb3zjG96d2Wg07Ld/+7ft937v92xpaWnLgvYwiDoU6xFj5V599VX7l//yX/o4s/n5efvJn/xJ+9KXvmRHjx51P6lS3Ur8XvlkJ/0O3eq3K9W90X379abwYgHGQmULp2qe/TVpncKPhv+ACMyALwan1/tqthUrVkMv+PM7G0csEdEaca+U/BHbT9HPbn/J60m3n/byi9tPyfu7/bJo60QhYzPVvFvO6KLL5TJW0TXuYb3ESuaWFuUlnMGG5ENl4EiN+VDnNCZ0vVWL5PfAVkVl19aHVm/r3ngyQPKdjFbzLZ76GbuxPrA3Fjp2Xv5PzkzYE4drNlFkrJMAMcM+nLxTf225FW4bqLYV6ggQzrZerNG1XB/a26tDu9Ec2GS1ZGfmqnaimrUKYEVcPe7b9SC6GHbSoR333LOuRwuajnDOVLliJ+YnfZ0z4hvBLGzeDty5ndHDi8JPo9m2pdW6rdXbir3AS0AGqI4Yeweg6Y8JB7IxpO0Un5MuivfsvEY8eoIuyqrI2mkC6ahMIuyeoKwhqI4TQBjLiTytqe5Kyd+yiYkJ+8IXvmB/7s/9OQc0xqH9nb/zd+zf/bt/59apWH8eBhFflnphEPff/bt/1/74j//YARMow2r26KOP+pizVKlSPVxKtgr3TPGHLArSxhXVWFTUaBexguyCLhrOoais0wuNS7mY927QuBjt+xU/krdzUXvdu53bS3v5iy6pve7vdlHJ86SiFYklSubLZk8eKtnT8wU7WhsJcFmqAesjXcuUC5Ak6IBz3GrFdRatLdtkpWCZQdcW1rt2fTMjSAaYscjgGBwfHO/yrjgCaQ/tciNjP1rpWaOhdx85ZGfnBYy5puCga33BhG+SrnftSE8CKLjmECiQYWsv1gm7stG1CyttW+3l7PhMzZ49VPFtpdhdoo/1bGf12g53l3a8c6zdn/OC2Znpmh2enXLrIWPbokIju+tlYwFKG0r0wmrDNloiIhaeVX4ywcIyjDdTubil7M6UjF8857vRAc4EuQzwh82UY7oT8tANaXpfR3Dri9HqOxRhcnd6U71/kcfhO5N1axNw88u//Ms2Nze3NQaNI2PSHgZAI679ft/B7F/8i3/h8IgF7aMf/aj97M/+rD3zzDMO+6lSpXr4FH7d74No09RUCa7CYFMsZwW9rZofGEsC+HzB2Pgkji39qLGgZlmeK3oGKw0gx7176fjx3O328renU/u9/Rk42nYK5qZre7mD+otrbOEY70XXLuuK0a3Fsg2A7GprZAubNNg9wVnVPna0YB87NrLnjnbs+FTPSjlaa1BLBa6yoCvPm2+dsxsDK/8zmYCuxbVWz5ZbAmQ9AjSFKrJdTUizx93JLesD+K82hvbm1abl9Qf4s4cFhlM0YH3BQlhaYvfzUSH/eA+AFrr/cI0xoJ3fzCrdeQe0M1MFmy8JNunqFphQL4JTuglSz4EjAUmCgBYfc5ZQKGtVsBGup3Tn7MjcrM1PT3osfVarwme8WTwnTnSD0hWMoz722w1bXduwpY26d8WPBGVZZQBQxgBrT7f+GFERBusdViwmCBAH3fIocx7vx3MdEc/FiQSUe1flwexR5GM26T7G/7iOeEOstDHeEAs0BkL3kOqeinzGlctlH7P1Mz/zM/bcc885rDMxgMHSDLpnuMAHKeKI6Hb9wQ9+YP/8n/9zjxdj5r7+9a/bSy+9ZNVqdctfqlSpHi5tt5r3U2NLCcaP6VHXalma3AALUbHR7o8HsWMdKBXGC3GqUYoNLZs+b2/8vMupMXJwSri9rsXru91e/qLbcV9x3Qao0HhHdysd1F9QSNNuvwEiAVsBbD5nReXltY2O/dH5un3zYt++fbVr1wVLU+UJe3p6yj57YtK+8kjFXj6WsyemzQ5Xh1YsZ62Vy1g7M7AiG5/PmE3pD+iVlQ1bXmkJFKriinJ4z7gxSuYz1/2oQ0EgNWy07VxjZK/o3bVc0Z47ctjOThRMPKUIdz0NDkWkXZeSecCRrrlQpkFs7q0g7dxKz3600LKVXtaOTpTtpAKs5Pry33F/O8KRGzh4Cd5EJrgowscbfmlEPS79tg17dZtXPA/NlKxWLapB7al8BTuioV6v536jAgqrHuqYV1itxqYtLi7ajZU1a9P9mdUfIvmS5XNVKxZLVipV5Hs87mycb4qJ8pJQtqGXczqhjSVjxjAMAsbvDI4/ZbqK1+pAeV0EUvNWUUWMaY9iX83mIGtNgVx3EKx21JPd/lLdvfhO0L359NNP23/5X/6XvqzA5ubmloWKWZDJ+vOgRZljwfvWt77lyx8w3uz48eP21/7aX7Nf+ZVfsdOnT6fdmalSPcSihbjvig083QFY0OhKyo4ANBpmeRg3HjSanf7ArTZY2crssUl/3Fj84NzO7eVvL+32cxB3J7rT5/fyj/PGWQ1z0gGppfxQUJW1l4/n7blDeTs1GfL4el2QtNC3V6637Mrm0HsfD1XNnjuct0+dLNonTuTtpaM5e3Y6a8eqcrWcndR9cZoPxG/FtTMk3uMWToez8BnzDiuhAc3xOtad9fbQzi1s2purQ5uZqthzx6p2fCLnXatYqoL9cxtmXQrLXfhgAw9PuDIEpjK+T+UlgeeVOjsRKI2zNXtCaWbh2zBTU2HKkUZVnbELgIZjnTWcn+udPjlBr/B9QIc9y3TqNti8bu2lC7a2vGCrq6u+uCJdP+yOwFIZdKnH55lAwMzWbq/tDfHaxqatiyL75EeuJDhj9kJJSVKjd5suzZh3t9JWPqkOsF5do93XacZqZSzSipdKgu7p4I9uzbDUCePOwuLC5GoIYyusVPdM/Dax3tOnP/1p+8Vf/EWHn/Pnzzugffe733U4+qDEHxesZ4bFDIse5f/lL3/ZrWaMM2PcWdRB6mKqVKkerO4bnKlJ15d+5xefHzMaWVa0B8yS4scDx/Yz+l0xlokoF/KW99ZUTdD4/kFcUnvd388dXMls4/z9OwAjWqJ2ut3a9k/DzASAkzNlOyLAOj4xtEdnC3Z2vminp1ggNuy3eHkjDNh/c6ln1xt97/46Ws3ZUwKcFw8DdmX72LGKnayw8nnXrrXyvvDr7nzxLj1lz+484lO8gpVgWW3Raws5W2qYHWO1f1HhkbJZhRkJY3lS/ST5DpUv3X6kccT7VXcEQSOFudLs2KX1ri20e7491eMzeTsxUfblL9zPVhghWLR9LTgsdkAKXZVoOOhZt7Fm9ZWrtnrxTTv/6nfsW3/we/atP/pj+953vmtvvvEju3r5im2srVtHoDZy+gtWENLZUVw2Gy3BGV2afVVyxTknIMsXfdPzYVZgpvRQ97fYk++BrpH+yKSkmc/x2v5iWRRmMqsMFZWavhdFCgTIVNoQz7NLgIrZZ2y29T1K99i8/+L37PDhwz7+7Kd+6qdsenraF6cFioCjB929SVlTR1kq41/9q3/lEwAANcaZ/cIv/IKPM6NLNioFs1SpHk7d8x0CdmurgRwOfXAqf01eb+dtsZO3nho1n+WWyar50Y8EbYjc7IQgo6ZGphugoq3fN9btQmFz6P0ULDO7de8bp+0ftDsN+k7jsu2bd2LFGQhaMwKznJ2YKypj+rZS73ujXMiNbK6SE6xlbb5W8M8sSrrcHNpifWjLLeV/X8AwGFk1l7NDgpwjEwJlhXlprWVX6myejTVqf6vPjp9ywYFy3K+FMs5Zmw5rNUjTKsPD9JX2OtbpM7tT5a9SjqUXn0EjzKdqJDICMyhj5BCFXQhrGpNESMfIxyEeKuh9inu70/Ptn2K9IKdCQ4OFaxvKtsQYPSxgg771m6vWXrpkvcULNlq7ZN21BXv3zbfs3Lvn7Py5c3ZJDduN69dtcXHJlpdX1LipAios/mAY6vlmvW5Xrl6xNy9ctSurHRsUKpYr1yxbnFLcqpYrlH37JuLpEwN4PenTHyceR7o23cXzmItjJeq4P+d+hjZRztrsZNnKw7ZdW2vb+rBs3s3O83I8VRPAHsUiOpm1GUF6IdN3azV/GPn7Ut1zkbdAGW5hYcEH4LNgJxDEbM7JyUkvgwclttlhyYx/+A//oc8kpev1L/7Fv+jj42ZnZ8d1KrhUqW4nfktZ0+/111+3P/mTP/HfUWYrs6RM+rty/3Tf4QyFhlsNrf6io8voeidrS52ctUYF69P9420ozROWoaHNVEt2eoJB0ANbADzUCLcHDKbWD4qHOJabHTiOHYetBpmmCt/3w6EY/v1VTE14F6ORhjapRvrMoaJNVnO2sNazNxfbdm49412LXcEKRijWlJsvZ+yQ/MzJv9psYy2slZbZ0mbf1ls53wi9PcjY4kbLLq32VCYZ30B7dEA4C9gRxPWhvqgseNvqDKzdEzxOCyYqFb24LcDqWUvwFoqHctZB5ZfF5OOB6kuu/+iscy/MOFBdYLwYS3/Ux32XYk4HkJJgpdVn43HVK3JF91xOK9sWJT/KYY1jG7FRv2m91QXrLJ633OYNK3bWbdBYs6tXb9jiwpJdvXJVcHbJ3rvwnl1Uw3bh/Dm7dvWqQG3BuzLrdbozN+zipcv29sVrttbVu4tVy5dmLFOYEJAVBWdFy+bZXSFAFjHJYk0b1xm6gaPiHxtet8c/cslzju5HaSoJtg5Plmwq27Hrq01bHVQEoPjXffzpP8YRHRWcH5/M+6LCbMuVVYVIf0Tvn8hXZj2ydhiD7AEiujdZmJbPdCNypAzut/jj9w//8A/t//l//h/fbgerHmDGrFImAzyIOKT68VIKZx+MHoDljDY1jNsBzlhz57rAYKmbF5wVrUOD7c2XfuTUrrLcw3QlbyenaHBHttzoWr3LWKhxBfCGNrpQcbwBvkn7V5i9/d+p7qxCxnfe6bvxHSo/jTTdvQObnyrYo0fKPqbo3ELXLm/0baXNxuVDW2wM7XqDfGMx0pGVgbSJnB2byNuhWt6mmTkPlAkqNjtDu7E5tAsrHVtoDq0xEFwRqEvHcbfYvsJq5YCMvwBXdEV2VFabXQG5wjukcjycb3tZ1ntZ6wFTXmZ6hEd5Us+z2j2cpqf033gFaj0PawEgxLklcmxlCjarNJys6blc3uotLHOhS0/opWfG0QHWxoBHUARB/et3NtxqNli9bNX+hlWsa6qU1mNiAxY+nTcEYasrq7ayumoLi9ft8qWLdu78u4K29wRxV21tbc2WlgV0K3XbzNYsU5yyfGXaRgIzxp7l87omSCI9LsGV/4gJ0ChLrFxhIsAYqrhGZuDVx6rxg6f6T4HTmHJUrpRKOV/T7kihbwsbbVvslTyZ7n9sQcznC75w7/HJgh0SnJVzQ+WT3jR+T6r7I+or47iwntGVifWMbk0Wpj1y5IiDEZY0yiCWQ/wtuBflQlj8tjIzkwkA7AQAqNPd+pf+0l9y6xldsKlS3amoWymcPXjd3z+jBFrs3xgdxoN8IevdcuXQR6RGiXFDYTwPNhPO+/2+g0e2UPSuOewp3sDyW0bLG51HPySBCnRQd7faK8zbufjcnYouuthNx5egWlQDXSvZRAmmEJS1htYbslxJTpCS9V0CFgVnlzbMXl0Y2Z9c6dm3LvbsjcW+bQjepqo5e+Z41T52nPFpjCVrexiNPj/cY4i4wy/bVrqgKDm+vKy19dqNrr1ymcH8etdcxc5M9G2yoLIWhTNJ4Ob8oAaEuoCwCLlVSCJMFii+sDG0q5sKPFuy07MKcyZvpSz1I8zC9GqBIH09TTcw132w1qBvGTVgw2ZdkNYO8R3lHe4G3Nf7g+NJ1cNu29rNli0vLtnF8xfsle9/3/7oD//Q/vD3ft++r/PFpRXlV1n1uqyn8oIpAZmAsZ+lxhJGErq289TPx+PNUIDVvetGvD5S2C3BbaM98i4ydlAoKoCsQDiCGdZBxmyy/VZDIEtXcKoHo1hOWM8YeM/4M9ZCYzX+f/pP/6lbsVjWImq/8r4TEUZ0jCt744037Dd/8zd9tih1/jOf+YzvAvD444/79zpVqtsp1qdUH7zu2zeWdseHEsmpuXeXF52VBFwTpZxNqEHNsd6UNyDsY8hYJ5rGkRqhvq1jDRHMlQVneQY/j0UDtO3ijxNvIylJd6cKg+0P4jx8txrdf+czNDEAKZ3kTZWlFARYWTXAS4vrtlTXD/Ow4A10SWBQzRUsP8pZXw35ZitnV9by9sq1kX3rysi+edXs2ws5u9Y1m5nL2Aunc3amtmE5FqsVNMcf8Pjl9DLEkeYxt4x7DYMb5z9yMNI54CH29s3tsSC8eXXFXt2oumXp2bmhHa+ZVeSffPQV+IEx31FATgmN9YVwItD4UhjyllWahgKzC4sDe22VWZF5OzVXtkcmBX2ZhsLqKFzgbqhnFZyb0RQmUNYfWqG7afnWqtnmgpUGHcvpZcI86+idjHsD5EKaCEPvA1SVUPaFzeey1tVfj2ury3b+3Lt28cIlgVvHr5NtGY50Z8qNdO6TAnxGK+O9AviiJKQhsjXe4+h5qPh4PpC1KssIeZ0xnPUFaizVUcIih0eJPMLRSG82B7bRYYZneF8so1T3TzGfsVYx6P6XfumXfBV+vhfMlvyt3/ot7+r07dLG5XEvyoUweAfLuvz+7/++T0S4fv26TwAgDl/84hd9zFsKZ6lSfbj0QL6xsaHFYVqfyGeslulagYZTROZgJn/DHICWczhjSQB5F3CoAVLThLbA6CZ3Z+IHbS93PxXD3/3O2znE+l1097I1E2DGWKKN7shW6uGHfi+XFN1j9dbQri937dz1jl1abNum8renRr4+3ouTcWoORXo0uO183R3enUgIZG8tb9p7a20rVubsybkJO1PpW1nBh90KGDMWwg+zQhULASkuKrk+GtpsD+29xYadXxWQqTE8O1ezRwVpk0UmKPS9sYqwSOche7uyYO1A9arXrFu2vW6lUcvr37DPemYgGla3oWBNsVEGME6L+hcFKIFJHBN/K3idpuGj7cuyo0VeMMZKGoTBewVQOM9b/IfH9tBe9RjfXA/3Bsqfbk9AqTxijFOJd0DJUlxmRcm2lqC30ReqCs5iNu5VL1LdO1EPohhfRpcPq/C/8MILbjH7gz/4A99/k3FoyT9k7kY8T1h0Z37ve99zAKQ79eTJk265wzHmLAWzVB92xd+v+Nsev0M/zr9pD+xbyw8JDjirCDKqmb4Vtlq52IJgQTNfBsA3QNelIhadu/gRiwWYdDfrzrJhrzBv5+JzBxWNanQsuUDe1YoFOzKRt5qiu7zetY0O+aL8UbC7oWEvxYaabbSgHfGNTwRoqcFv9QYOxazZpSbfYcgtmbvC3J2u2zmW71gQCb652LLLnbIdm5+0Zw4V7Hhl6Pusuh8VNIBG/DjG891hxfezUPFqvW3vLHbt2ubIJip5e3S+ao9MmMCfOaHMDA7bHfElZqzZYNi3Qadj3XrdCr2WlYVh+VHHRoOO/GBi0hd+RFer/BJrCHVs10oq1mMcljHLFC2TLaqO4sJuGKwDF8XfE1tOnxk6GbM0lkfQ9ruif66EdFM/w3jAdp+dFzJWLhSt4nuSxtDCM+QlXcqNHhuhk7ep5exBaKtOSOQ3Y89+4id+wv7CX/gL9tRTTxmr8//Gb/yGdzmyll7S7/stnz51QXX6tddec4sZ483ivp9YzRjnxu9tfFequ8vvVA9OlFGEMOq5/4aPXQSz3f6S138c9EBna8bMa/Z6tqzG9XqnYBvDgpqX0O3DjwgwgB1tupyz+Uld11+FC/Whrfdo8Gj49gKp91sghPV+f7ju7w8eDe2WRF3MvpybqNjZ+bD0xds32rbYZOi8buzwHORwo2MyZ8jBYilrT87l7WjF7MJS0y4st60xLKoRZ9Pv8MOlZiY8MFb8tF/Fj9f3uh+sY1hxMrY5yNmJyZydnClZt9Ozer3pljUG8/t2R9SBcYyxAilAP0fJsLFwDQRR3a7CFoSVyyObrBZsQsC10ez5ciDdMZwR6kjh97pd664v+oKzle6CwKbHm63dbTu4KfFeP/uiG96FtQuFrk4slwzQVxzoqvQZmRUrzZyw7PRpnU9aVi6TLyuTy4pfzmeujrAEKxkZt6gpXxlnqbDZgssnB4zTjEIDOs5pnsGr/iGseI8sqBWzdmwqb/lc3tbW69793x3Jj4Cb7w5W0lJupO9Owc5M6Vgd+YLOOcWHcNKG+v4pmbdYqwAl9t2s6w+CH/3oR/buu+/6bEq6PR955JGxz20dtGy8nqrBYuwhXaXMzGThWyx0n/3sZ+0//U//U3v55Ze3JiDcD/EdwREXGkzSuLKy4st40MV65coVX07k0qVLvuYaEyNwzHiOccc9yPoY44x4bzwHcIk7joWoifc777zjQE0XMWnCEXf8ogi9MYykHlSaku8m/1nGJeY/aSD+5D1lwD025ccfXevEMVpUY3yT4SXTwPUHMSEgvp8j3xPiS5lQb9hxg3RQr2JacPyhQ9x4ZvcfIvcqXh+UMkrUzbXrHomgo+MLyXgYKsb1jbq9cWXV/nhp0i51J62bYbXqYLHpur2gbU8drtnHHilbtr5h37natvMbBQVI46LjTbrZwrGfQnJDpXy/8jAS3X53K8LbryINsoIG3WLNqrPHavbRQ2arS+v2p5cHttAiGsDZzXFxKBgDRiyDosI6dqhmLx/L23y2Y9+72rU3bzStNWIvSBZ/de/erbmXQt7drHh9v/v+A66o5It5++jhjH3i0WnLtTv26rvX7e1mztbaKnFFOH7RWfSVsLKMSSNMueQ7sD5h6cr3hlYuDO3IfNaemS/akWzLfnilYRfWe7bK7ggDrITsEzrwvTAbl1+z7qUf2OFhgLPBUCCnH4HuoK93hrrZwfQkymE8mjeCegd5qabE340DvEoTh2zmzEs2OvKM5apzlq1MmZWYpVnxMWfsRJ8vFaxWKVhRVbakYmKvUlb5H1hJMFX19OyUAFDv5HvAO+VJ/+SDRU6AziSKw5NZ+8SZCZupVu382+/ZW5uqD6OKnsgpPaHc2ST++dNT9lOPDuzF43mrCQwZHvCgG8P/UBXrKgJcvv3tb9v//D//z27dqtVq9p//5/+5/df/9X/t3Y9e38f+OT9I+RAm/liW6P/+v/9v+1/+l//FG67nn3/e/pv/5r9xqxmWu/tR1sm0UVdp7JnB/Pbbb/sSInTb0ngCOTSwxJHf/kql4o4JE2fPnvW4Pvnkk3bs2DGPK9/9+P26lw3+bsX4cyTuxBMQw+oIiAE2EcTIZ2bgArnsBMGsW+JPvNmblB0huMf3Ct2vOO9WTAP5D5gALoATFlTKAqBJghj+Y94fOnTILarPPvuslwP5Tzd83MqLNEQXxXuAIDb2/1//1//V2/H//r//7+0//o//43timY3poZ7wLmbD80cH6eEPGuo2dYnrdOFTJqSFMpmamvL0MBuZP3qYhMP9ZBqS8bvbuD5IPTA4o6JTqLjlZsN+dGnRvik4O9+sCshq8s12zlnrjOjU6trp2aK9SCPUW7fvXuvZ22s0PvvD2f7JCIDyvrQPgN1Nlu337H6VBjijsT8xkbcXT5Zstmx27vwVe32l6tbE+NfPtkL4NNJJOEO14siePDVhz8xlbLhet2+er7v1EgEEo+HN6d0rvge9hsI4wXifhVSH9sTRir0gaGg1O/b21bpd3BzZcidY0MISE3gN4xH9OTmO8R2+uKzgjD04s3RPljN2ZioroC96Y3BjZcPE/lZvU+/0I9wVhNXXrffet2x47TU7VmxaUXHpddv+pQd6qJ+tXtdX4mcSAPnKj0VcWmQnnOWtNH3cjj/9CevNnrLa9KxVJmesUJ2yQpEFaDM+8WWyUvStlkp5867XzdbILi13bbFbsG520sON8rCH+g4AZ8qAJJyRJzA48ZypmL34yIwdny7b4nsX7IdK5+KgKj8F3Vd90XNTAtZnTk7a1x7t20vHC15nUjh7sIp1FQEA//pf/2v73//3/90hACj77/67/85X7KeRoVzwv1djspeoI9Tbb37zm/Y//o//o483I8y/8Tf+hjeYnEdguNfi95tGn8YTqAEKXnnlFbfSAAQRxmJ6InQR5/hbxXhJFsMFdtg0/hOf+IRbYbAmAq/3ssHfHQ75BswQZ3ZyYIYraQEoAZkICPF5jjji7uM81fAzwYK9SYk7YwqZfMFnLKXxO7bf+9+PkmHxOwWQYUFiJjCWLNKAhQwow3pK/JNKpocwADXyHzBjJu/nPve5rfyPk0eS8eZZyvZewxnhEjfCA/6oS9Rltj6jTCinZHp4TzwnjjigMtYn4k9ZYDUG1PhuAZ4xjtF9WPTA4IxMpeLzBdhs1+3tK0v2Bzcm7J1G1VqjmuBAlVow1LSBGqaeHZks2Uunq3Yyt2E/vN6zH62YdZi+uSecbVfgu5GHcWCL2J0WcojfXvHkWqw0uyvPEAuRKhfg8fzRnDXbyov3rtvFDeUbW8mPf/C2JP9RMSzvItT1QxMj++gjkyY+swXg+L2ONXJTSolASOmmWyzEb+882D+P94djrkdAgzhGo55NCtA+9mjNnjxctd7qDfvhjZ69u5Gzza5ionjkibeey+qHyPOGR8dfynjkepaxYiB9NmM1ZcUxActTs4K27qa9u9SxSyttAZHZRrtr68sLNrzwe1Zae8cO1/TFVjgd/ZHQYWkNnfMD0ZXrKxkMsmcWZLvPRIHtvOCHkR+EfGnCavOP2iPPf8KG0/prdG7e5manbUqAxg8fP9CFHICW92NGgD1Zq1p7ULB3r2zYW8sjWxqqELakH0PVf+oUcXE488tcC/cinFXyffvImcP29KGy1a+etz9dNLvaKfuYNybW0BVazfXt7NGqffWM2SdPs8VX3zfJT+HswSp+J/jdw6Lx//1//593QdKo/vRP/7T9zb/5N71hpGGJonxw8dmt7/D4MwKOsCr8b//b/2a//uu/7sDAIrP/xX/xX3gjS2O1XznfafnzXhzPYbXAQsZm6kw+wKqBlYkGNDb4WMGwaNDIAys44ge00QDHLk+6qkgHv21YoLCkffWrX7WvfOUrDjqkIb4fJfNkLyXTlYxzPFIGQDJxZ1YrRywyWGNo4AFFJk9EiwyQyPeF9ipabUgrYXAOrNDws+H9iy++6DNzP/nJT/qOEDHuUcm43alimmOasEyyjM/v/u7v+ixgIAYrH3kMlNONTvwpC/Ke/CXtlB3xxzpI3pMOyo24kgYgk5m9jJPEEkXa+a2LuldwFtOD+D0Fiunyx7ocJ7QQL0RdokyoH+Q1acNSSZlQBsAox5geygl/5MNHPvIR7+InTSwCzXMomaaHXQ8czvwvr07Dzt1Ytt+/Wra3Nsq2KThTkyp8yVtPDeNQsMBaXi+dVGNbrtvrSwKSxb7VuwUb7AFnapN2FPrtdJPfAwNZUHj+/X/hdivGZ3clD59HVtOPx0un83Z2pm5vLg3tjastW22pMc6G8U07pWY9AWikjfAL8vbEkaK9cIIu5ry99vY1O7+mH58cVksEYN2cpr3y9eZrifeNlfTDefhMXNT4jPp2ZLZqHz8zYU9Ul+3ccs9eE6Bd2ch4F2tWfsPMzQB9xCoJZ0x84OhDwJRHOGZkMoj/06f1YzMzstX6ur164Zq9t5mx+nrD1q6+Z6OLv2/TwyWbKJesry94p9myAeudDQRqXdVNtnbSO6mJLMHRF/wBPLFcmNXJj1Ztdt7mT5+1JwVntdnDNlWbcvN6tTKl+0WFIYhWWuuDMCgfyDs0N2MnDh2yG5eu2avXmrbQq27lCctt5LJ5FVUoS+r/XnDGZIVCZmBPnZq3l89UbHj9gv3BVbPzdTZdpy6oEdKDtWzPHpsr2ZfOFOwzZ8p2crJrlcK25SymJ9X9VfwOcKRxxDLAlkoAGo0aC8T+9b/+1+3jH/+4w030myyfeB7D4vcTQAL0/s7f+TveKAF4f+2v/TWfnUkDdqsG6E7LnvfSiAJWWP1Y3JYdCF599VUPCwgDSOjmo5uMbiXAgEaS+kajSFr9d18wBkgACFjdAEwsWDTQ+CEMNpBnbTYaVAApfu951+68SWr3vfiZI5YmLHvMlmUdONKBVQYgO3HihHfxAVZACWBD3IGWJNgQf/KasVwsLgxMAJlAC2BE3AEbtsgiHwiDd6O7AQLCwBEPwOzf/Jt/493jWJeAkthNicWINAAyEYpJA+/mWcIg/yMcY23D0RUNtFFOWJuYYYxFFysUv2n+e6sw7hbOYl5E8Zn0UCbsAfud73zH85Z4A4vkIY4uZOoC8aCukSbqIyAGxBGvmJ5owSU9ADd58h/9R/+Rg/MTTzzh9QkdJL4Pgx4YnOGoJFBvo9u095bW7Pcv5+z1NSYFTAm6cmqSGPcUQI6xOi+erNhHphp2fmWgxrttK238MD5tp9R+hqOevSPdIZRFhfe8vwK+XRx3Vxw6e4/NTNqLp8zmhgv27Wsje3ctY51+wTLZku6Shu10xHW+/NwhTV8eAcdMeWQfPVWzJ+f69u7iyH5wbt0afcFSJvyVJwzyI9ovjvvHPbwP7eWHa7jwRc/7l4tuv1NzBTt7JGNzJcGUfjReXxzatTabrwvABWd5urjHz6Ktbk7eN74eXbg3sNOHq4LQsp3IrdvVhUV75Ubdrr532RYvnrf84nfsULmjH5SiddsBzkb6oRn2VC9ZZoOxZwqLjeWxUvX0KodJL5MwLi1byFtVQHbs6Y/ZkUees/LUcbNCzUZ5NSSFqg0zZZ+kwTZYHT0LCDML9PTRKfv406ds8+p5+/4V4Cx0a4bwBV9Ado6JMYJAZo3SsDBxgOuqpwHOiFvfHj02b599omKV1Uv27y717Z11/QgX2cqJDe/NypmenZou2hceydvnHi3bo9NdmyjlUzj7gES5UfdpHIGa/+l/+p+8S5LG76/+1b9qf/kv/2VviGjo8IdiGXHk++J1XOdY4FjU9u/+3b/rDRKWsv/sP/vPHGiwGBDGrXSnZU98aDSZZfrP/tk/cyjAYgEEfPrTn3arEXBDYx67keL4pSjeSfxjPtC4A3uES9ciDXSEDcL5/Oc/740qYdNY83wM4yDxj34RFjssTEANYIllhvuMUfra177m+UfDHaEmCRsxnFgmlAPhATgAMnBJt2JcYBgwBZB/5Vd+xS2BSVB+v4DG+3kn1iW6xoFLzoGUaG3kSPckoAlk8a5kPsVzwiLvARvymvznDwaWeSH/gU/SQL4wbpFFjAGaewFnMQ8JC9ilG5Zy548V8pH7dBPzhwYWL+oB4In1jDRxf/d7SE8ENdLDdwNAo65SJrwHKyzhAZ3kVfwj6CBx/qB1X2drJjMgVvLgVMk7fbu0abbUwlpSVEOkhkOQwbIZjCliUc85NnCuKPPV8K42O9bo6N5e3Zp6DeHfUg5ixCfpbtbe4ez2u/ez71fxnTG/OMZrxdzQnjjMBuVmm6uLdm7NbK3PAqzkQ/ghjlEOz+DG6VOeMtCf7eWPT2btzOGildTwv3WtZVcbBc9zNfehO1P+o+PfqL3y4+ZrvC/8+N5KMX4kk/XNGoL1zUHR1207NUV3pn5M2y3bENDwpcOCFp/zZ4louMJFv0Z9wu+wP7CegGq91bOOPk8UBjYpji+2mlZfvGxrN85ZvrNoE2X9ATDM+A/MoNvzmZx9LGZ6JsYfC5zvLDBOVyiWkDM5tmYqzVi+dswa2RlbGkzbYrtkS+2irXTyttaje9Z8I/pOXz+GA+XvIGOHZyd8GZFBY9FuNKjTFX9fGBfICxR6tJwpTkOWO9mCbvx5JHSqP1zKVTs1U7DaqG5XNsyW27qe03dIYZBFQm4rKTOPVTN2fKZo8+W+FfPhBzu6VA9OMc9pyGiwaXCAErqkaPSw4NAY0RDGskkeqSeANXBHl9z/9X/9X961xXNYzOjSZPzQbijaSzHcg4jvCBamf/SP/pH9v//v/2t//Md/7HHBSkQXKlY/Zu2xVEgEs2hxohEmzrjkOfdobAEh4kyDTBcUaQH6gB66fckXYINuLcLc/m7uHX+ux7zy3w69E4sZcf4//o//w61NWGrIZ6xbTMr4+Z//eQcbwAyrDPlH/GKcY7y5Ho+kEcsgMEQ+AJDEj+41YAerHNYb0gcsk9YY54PmfUwr4vcNoP9bf+tvOcgANcQX2ADKSQP5B1Ql8z/pkmnhPoAC+GCRIv8pP+olMAO8Av10+VI+OCyDGFUAubuZrYk/3sG4sn/8j//xFpjxbrr5/6v/6r9yKAT2KXu+J8Q31huOuJgWjlwnPYQBiFGedNFSngAzacHSCbiRXqyMdxLnD1IPZCkNRIWLX5yhXKvTsysMBG9nrdkPcEZjSKZRNQG16XLGjtbUkOp8rd6xjZYa0lGwru1wsfHaA8B0W9dvVxDJ+zuf33kviHeGhnMvv7d2/ui+1/xEKKXGWRfJiUMTeXvqqL5QareX9eN1uZ61+qhiA59hqcaYB8JjrhgWjT5WGUIp50f21FzOTszkrS5yePeGAKinH3L3Ex4OXZoxoJ3xw90+3jf74zw6L55w078cPAMQATAg4qHZKTs1W7BBe9MW2ZKqxwppAVaisACyrIV3247PsZaFpS7CSzq9rju6CKcqVav1N62x9J5tCs6Kg4ZVBClMPOir/o0EdAHuAuAhrGbE05cVIRlSWPNMP3DC3Gxh2rLFw5YVnOUmjov+JsXAJUGbXLGktOkvSYGVh+HZQIOZsVpVPyATJcVhza5vDKwhOAsa55X/WKjclDc9vTsLtPmlEInwr6TvCT9YJ6eLNlNo2mWFtcpOVAZs60dHeUk2F3MZO1QzOzGVs8M1xpyFH6QPyw/Tj5vIcxwNHQ0Jf+nTEGKFoUzoGqTBpGxj+XCkfnKfIw0N3Zl0K9JYfv3rX3dIosEBHA5SrgfxA5ThD1iiywkYpGEm3mxNxV6dNKJAAumJDWX4XgfxfKxru128z3PEGwCjK4vvDABFlyddVTS6NKjAUMyH+PxeSr6D7zNQ83/+n/+n/fZv/7bDE91cWCrZCD424BG84nNRybCSnxHx4BnSDlTG7lAsXMAT5co5+QOg4S8qhnE7kRekATgGYrBaAhh08/3qr/6qlwED34FA0nCrvEmmIR7xjwMeASHyH8DDoolljveSBuol5dPXH9KAFFbIO4Gz+Jsf/QBKdOtTj8knIPfP/bk/5+UC6FLH7qQu73Y8y/cIyyjp4XtG1y1d6VjYSCdlddB3fJB6oHCGKNgRW/uo8b2O5aw5so0+a50FK443yPIKVEyVRnZUjctQl+qNpi03AJedgy1dMY9vC2FR+Eu6nYpxvbUO+q6DK1pRsH6oaddfBSM7NV+xJ6f1V3OrZ+8udW2hXbCO8gB43YrDHvFlpX3vMlM487W8PX24pAba7PJCwy6vdq1tDJBMwlQ88szO8PbKj53XAiRH7T4PXwK+POEa8h8HjkMATYCV14/EZM5qhZE1uj2H991d2MSLJSVcDmS6ps9s7M2YMwWmPFOoujfoC5JU1zYby7Z+9YK1ly9ZQZDFel/MyOx1BHD68QPCegNAMaAu1jrAeKi8C8BE/P2F3vWYF5zlynNWO3LactUZGxZEQFmVh4/5wkbJpAZKjx98LJuUVMbXlzs2V7bpbMNUBLbWHXcnU9ghZXI8AzyGpRJ4Md8JjwO+9BmXFwgC2nPFjr5DA32HhqoTY0uqx1v5oHw5pD9uTkwX7ERtYOXx9ly3+zFNdf8FdNBgA2bACBYXrDyxaxBrQBTlRSONRYnB/3TPYVWiSzGOVyMs/B1EByl7/BA3rE1YzOgqogGn+xVrDd2OgE38bu8X5q2ux3sciTuQAYhxzhg0LDfAIfBAvtBo7xfezt+iAJd007HMCFADZABj0coIcBAugBXB7KCKccfRlvE88EijH61/lCkgBQxQnsBC0oJ2EOGXevEv/+W/dKsZ51iUSMNf+St/xc+jVekg4cY4RxevIfIcqy0gSRoYs5UcuxW7SwGrO4WzeI86DHBTHsAmsAQsU6eATdKD5e9uxLtifGJ6sL5RDkAz5UKaSA9lwvfsVnH/oPXALWcULBtQ9zr6q6BltlA3qw9KatAEYWpY3GJAU6TvW03tzfw0C25mlMF1WxTM9Xc02GO/Wy6p5PXdbqd2f7mDdoe92917+TgjP+oNWVaBz9jjR6t2otK3qytNe2cjb81+mDgRYqz8Gkd9d4z0FRSrEIbZyfmSPT5n1mmP7K3rDVtWYz7IlvZIN3a4AAJRXm7jc8S9m5/b/Xk/8cMANAJWlDUgITgSnDU7fUHJ0CZnpmwy11F5d229G8oav/4l4uVyPLe1qKqKST9P7o+eQEDIgUthbm6s2w39IKxdP2ej5qIVcjwj+BH49Xt9MRyD/gVm/V6Ik8IAq6iHbvVy0QARZ53qnfnyjBWnDllp7rgNigKz/JR3KWbyymi6JeUyWdYmU/oUIiU6UiERxsnZqp0s9+xafWRLHUUckPKsC+VO7BHnpC3c4lpoBNmkXWhmuXzOjk9m7HC5Y0utka02+tbskRfxD5dQQ6bLo7Do72TPykX9tZ/HD+GSOOKW6kEq1mO+PzSC/AVPIx7XcqKhZewZDUr8jnGkUWG8D9YGGmm6sQAzxgbhlwbpoPJ6dBsBf4zP+tt/+2/7QG0sJ3SfMcaIbiNgMKYjKoYb03iQ9yT9caRBpRuNRho4wEULFBYWQGE/xbgAAXQXY50BZpmAAMgCAUzAoGGOQHOQOO7W7jRHB3ADA0ArcEk5AQT9ft8ta5T3QUGKd5BurJZ//+//fYcixsX9+T//5x1kAMHbQdFBFeNP3Mj/aO0j36iX5CUQCDhTR+8UzhD+gTEsmHRnkh4sW1gwcYR9Ly1ZMU0AJenBgsaQAP7IIA28i3cC/CiW6b16/73Swb/V90Ax03AsMVAt5MLG5momiAjXARMcBdrujuTyVswVrJITpHlsAQjcwUTG384FEXjSvT/tFX7S7RDdsEk3fjegykDw+VrZpvXHRK87tNV6zxrMVh0KzkQOWMb2AzPEu8jPierIxDsKc2gLGw1b7xQEHtuA612fZPhYPKN/1IDr3tihrTRwPnb7azstOxXKDkuX+MIqxZHNlTN2SGnM9NftneWmvbfWsyMTVXv62ISdKLetmmmr3EO3pcdNYYZjEHkR0gD4h2ULcHRtrq6u2OLV696l0dN7eY4fbxzrqPkzcdKB7uuOn3P0sHXO++Ixk1Xe6YudrZZtwLL7NFIFNjrPO8yx8r/Dmd6DlY2js5XEQrhdxYsfwXJR8MZFn7ARxRXKXs+49Vif5bbiwAsoJ8FVf9gztkRtW81KxYovtMvMVs8dvTNHeuTYKL3ez1hP9QlrHtdCeKkelGKeJx0NGoCD1QvoobGl8WLAN12WNIxed+RoVJgZiMWM7j5A6Rvf+IYvEQDc3UsRN74bdDf9zu/8jjdmWLSAQOIJIFB/77ViWskXQIaB28x8ZMJEXLqD/CF+eyk+z33yDv8MNsf6x5gqJhcwYQJAwt/dKpZjPEfEnbxiZuB/8p/8J162WGwoTwao0722X/x3i7aPrjiWy6AMKHO6sCl3xlXdizTsJ+CSWZ9xUgOWJiav0KV+0PgnxTOMM6NLlKUy6B4H/gBl6hXn96OLkfAoE74jdP/yPuoC9Yi6zdhArNXEzw1GD6EemOUMbWWEHF1La+2eLTYHttQrW2uYpdkmV+UzJy8j74aamyzabE0NUaNhC3UVNEvNe3cR2i7QO6s4NIQ8m3R3KIepnWGEKCTOaUxv5RLyHxcsNHoWkCoVMvaR42U7KnBZ3+jb+cWWrfUYGKvnblGRYyUnmwsioBOzIztzRPjb7dp7Cw272hJYCBxCXElDVHgOLAndcgpAR/IVF8PlGM+Rl6nCcmsM1k+VD+u2Yn2C4MRhVimMrFbK2IzScriatRNTGXt0Nmtn53L2zGGzx+ZzNlsZ+L6Rg27fqvpLjfFZU5m6vkB96wpImYXIe6g/WLwYyM9YMV421JHPfl2wxZhGujb66wvWW3zbMq3rgvuWFfRlHXZ1T3lBI0RYjHsLWzQFICPOCi2cyPmyHjpzq26hbNmJQ5afOWbZqcOWKc/asDipqgC45b38GDMWyzbklSBaHxnsf2SqbMcmcirHjC1tdgVNKmtsXDrylrhVkz8egvCDwxpnqnPA3kiwOlMt2KHJivLMbGllzRo9hgYIHHle6eGJYjFnRyfLdmZ6ZJMlLNABDIiTYuZhp/pgFAGNBp2ByzTGWFv6+g7E7k3qJ91zf+/v/T2fCIAFgwaa/ToBpWjBSip+P/dztxMQwVZQ7APK+CNgAysdC8XScIf6E8K5k3APKsIHykgblhvyhXzA0oK1Yz84JA7AEBDABAYGrtPdyNgsujKBgOR4vver3c8nP3OOBQ1LDfHE6kRXHr81dKVSrsku671EWgFyYBwrE2XAOD8sTIzJwhqE7jYdtxLvwKoEVPEHAZZA6iNlA9QQxzsZc0a9xorJHx/4B/TjnrPkF8/fT0d6qAvMRiU9QDsWZ+oU6cIPiseHRcnW+b4oZlDy3Gei5bNWyQ+tklVDonaQiMSGXk2ui82raXx4nL0lWasrwIIaIHfb8BDEe6KLIuTdLoZzG4dVZj+3h/9kuAfTzfFChQxLX+Rsni54ZcYVwdlaW9DjvAQwyPc+r9h6v8LIFcwO1fI2r2NHQLDR6lkXP7nQ1043oo+/GjsHIDFKiH+Iz1aZKUtxXRVQdKwJJqwRMIysqsZ/upYVgJidmsnao/MZe/pYzl48lbPPnMnZV58o2NfO5u3rz8g9XbLPninYc4ezdnIqL1ewp45N2lMCtmFzxX50o2uLbbPjR6bt+FzVKpm28rznP3IsZ8H2Tm790nHYB84UN0UeKHPG8kqk652G5XprVsx2rKjKQ7po/PhxifnEEhwZBRCO4VrM35jHMT+wnAFouZJ+UHQe8wiYIm/83P3qKBiLG9ZnMwInAWanM7JepmSVUtnKua6uh5rO8yGs/ZwUPHn4ir61BJkKzkrlguUpa/3okWafuyC/PYFcW2VeF+y2+yprfSd4NsYv1QcvGnAsIQAXSwjQiGClYKkMZnNiNeGcv/SptwASs/RoVGIjfa/EdwJLAl1OWJ3oUgQmeB/vBZhoWGMdir8LuHsp4gFEMUaM99LFiSWP2alAy34iTjS6LAvBMgrE9VOf+pRbnMjjvUD2brRf2nkvFjpmH7KgLuUE0NClRxf27b5/3I/LTAA1xJ3lOcgPQOZBiHQBmFgwWU6DNEXr2Z2KOgUwYz1kkgHjzOIYM/4wud8iLQAx3ZvUBZbV4DPds8zkTVqpHzaNf/kfnDwj1OrRlpRKdG2yMTOtKw3mzgzqD7PW7HEUzStD2YKGQd4u/EZ3E5Ch0LDFH5PdzjXuOtrX7aO9wnt/LlhsgtUm2GvoGqsUhnZyumATglH9Jtu1TWb3FTw/6PKk68tXg0+EtVt0A9YEZscn8lbsDe3Gats2u8o/hcmoNVbAz6sQcsq36Egxe0pyDqiQ1cHpjqLItaJImu2Ipsr6ERKMPTqTs6cPFezFExn7tCDsS2eL9tPPFe0XP1ayn/uozp+t2KcfKdmT8zmbK+dtIFC4vja0d64P7NuXhvZbb/ftTy52bL1XtVNzMzYvPzfW2/butaZt9GuCsyk7re9wiTXGeqoMPUVEUGbMtBSMAWm4/mCky4JI4qkKk+k0bdhYsVJv1arUN6WJH36AEkee8Rl3O1Gz+IHKFfSXN/tnMtYMS9kYvuIXO5bDVpn4zGKgUO9WKI2OQGmgv+T0l0Y5o4JVHWPiwK3qGvK4qsx8w3eOSmdbcNZWdhToJi3w1yvpYZ026hP5wGbzI2u2R+5voDKM8Uv18IgGlzFkLL5KVxiNBTCG9erXfu3X3NqANQs/zJDED43avW5QqBt0YQE2cR0t3gXgJMHsQYnuKCxFWMuw4ACNwMp+6uuHEksVcAYE0PizZAZdc/ej2+xW4l10z2J1pNyIP3ADYN5K5C8Wf5YSwWJKvLEuYaXC8hP93C8RdnQADOMfAUPG+wHr/LGADvKbGYW1irTQPY3lNVrcYh2+X4rpiKI+80cN3dvMeAWUsa5incXfg6wfB9WtW4X7IDIhODX0vgehXGagiNDwhDE3MVPpSsJyprbX12nK0xj6HWX+rrwMhcGz0e0snAhct7N+7e1imNHt5Wd/FyEAt9d9GlyWT8D19Xm6hEUJi8vIbqys21qrb12lXK8ObtfznrzEOSrlRzYjhqgWzTbrHbu01raNYTCp88YgfclyClf5quxwsdZYRc9OYXVjnayJrD02N7Lnj+XsU6cK9qVHCvbTj+XtZ5/I2889WbBvPFF0q9hLJ1lQNmfHp7M+CQEguCII++Hljn3z3Y797o869m9e79q/fr0j17bff6dr37rQtR9c7difXurYd64ofv28nT5+1M5Mjqy1uWFv3eh5mT93ZsYeP1zyiQKqIcFCNi7DZL7GY6/ftl5rxXrNRcsPGkqT8kVJ7usHnFX+A8AcDM5innq3ZaFiuaL+es2HcWaQbqzPUfjfcpRsfI9AqcFafd2hW/FKub6yXpFS+sh/3O7noyjzIBpI0pyxZodZzlhfKOOc55O/S28lTNQTpDaZ+Qq46jP1LID9dtipPhgly5eGl64rBq3TEAIhWMzoWmSMDBYsxk0xDosB7ck6l6wv0b0fUUfpQvyjP/ojb1BZLR7LCfHhXfG7hfh8N++6lYBABBwQB9YSo2EFvAA0QGcvAbVMXsBKA/CSn7gHZW3aLayixJ08pOsMaxjjz/aznnGN3yeshKSDMsDKBLRTBvF3Kln291oxbOLC+8g7rJfEgy5j4ha73g9S9kxqwAIM8PMM4WAhBsx4/iBh3K14R8wvvmdYM4kHf9DHvVW9F+Yh1AODs5hBfsTlxgvICbqqmb4VvPnYFv6wcNDIYzlj7FJBfoG6UKREPTgarHDc/oHaAWG48fXbaSeERZcI9324pPa6H7vT/Fzpnmc8UTlMCV9aqVtHjTBWM+7fTtFPVexwdEKflXfXVxu20Rn4jEJxn+dlTv+wUCmboc8Kwg5PZu3odMYB64XjOfvEI3n77GM5+/LZrP3kU0X7ibMCs0fz9qkTeXv+SN4eEYRNFtXQK/z11sjeWezbdy/27PffFIS91rHf+EHb/pVg7HffHtjvvjWwb54f2PevDuztpZFd3xjZUpONxgc26PV9tuHrVxv2g8tNG+Qm7LnDZTuuPFhZatrV5aZlC1Xf3eD0jOqAQ8g2UMV6tZU3GTUig4716tct21m3smoLFle3nPWxspHP21B3EGF3G+UKlotwxmxMOcT7YxyQl6MQyffnVJR4bzYTupE7yix2DSgIziaxdqnOs3ZbeJC6TDjbYe2l2N3aUd0QczuHTZQEZ3qrv3tcZ7HUdfoZwSBdoBnrDhRP1bPxyM5UH7CSdQYx6JsB0oyPwmLCX/Q4GnmgDEcjzW/m/RBdhqwLhtWMdzCIGssZ3YoPAgxQqL/B8R5AlEHczCIEarC+sL7bXsJaBtSwlAXjy4AKoJawPggRf8qUwfVY74AbLGdYn2Iad4vfeyCURVr7ghnyn+fjOLv7nf8oviOWAWmIi9wyi5cxcAfNUyyxlAnpBoyow1gCI4DfT+3OJz7zvaKbmLoNMJPXlEfcy/Nh0wP9nY4Z5ke1Kvy1XxYgVHI9K4xEIFKy4NWWWFu/C/rjP3QreSMbZqW9X8Uvxk4XIez+Vvz9RFcm8ciMelYtZGxusuRj7BrNrq00O8Zm4IjmHCPQzfEXDuz6XBXIHiqpEVe2rrQGNhSM1coFm1J+zxbpNs3Yc8ez9skzefvCEzn7yWcK9vVni3784lMF+9RjeXvuWN5OT+cd4gCwC+sCrOt9+wNB2G+927N/8U7P/pXcv3ira7/3dsf++HzPfnhlYO8CYOt67+bINtuKm8ouo3RlFQ5QmPXz8QrPnqas1VtDe+Xqpr15o2llAdCZI9M2k2/Z+esNe3OBMXgFe/zIhM1NFK0InUQJxugmD+ufyQ27NmhvWHfjmhK/rvAlt5oxTm1nHuGSip+T98X1yvic4l+2TLnq482yBWUs/cPSjjqdEM96+tTQ8Zd/Wc/mS0LFrM6V9knBd151HlBOvs9d5DWdRxEPLF8eH6nTG1ndvxdYzph0MPBZsDwT4hK+Ke3u0Jry28V6pvqNS/VwiHJKOhoMrC10/0QBR3QD0RUTwSyU7876cbei0aURpQuVhph4cIyKcXyQYpwY3YPAFoDCwHS01x9VDPTGCkIeAQB0ydEYf5Die89EgLj8CLDNOCfGYe0lAI4uTRz+sRwCE4jfkgeV/xGeqF+MmSMv6V5G5D1lEf3sJ6xRjAFkdibgTxhxO64Hpb3qbBxGwAxpLHsAP+D/MOqBwFkygzgHRhjlxPpllaKgITe0AssljH9rqBT4QH01QB25oRpIGjW161uiC8e7caT4Q8XxVi6IZCfdtvZ6Zrc7iJJp3rJm6DclWmxG46Ofj8ed5dQqT5XzNqX6S/fbYn1o9W7RG1kPD6sQpKGjO2kHp+BnMLRSsWon52o2n2cR1o4vu/D4dNm+8ljVfuXZiv3qc2X75bN5++nHivbZEwUfiD9XUMi9gV1ZHdoPBFh/eK5vv/XmwP7pqz379R927Z+91rN/o89/cKFnf3Z5aK/fEKwtj+za+tDW6iNrdbPWcwufymQMQVHEKzo39YxhE2GBAlBIe7edsbevNey1jbyNqlP22HxR94Z2/uqKgC+jL/YR+9i82dHKUMGM3fhHYjjsKW/0o9dv2khQluthNQsrnccJBLhYhiHft+MYz5PXghS+6l4euKpMWyZfta3N5rMFa6ses5VWLlcQJBVsWuV3VAB5crZkJ+YK9sSRnH3sZM6+/GjGvvZYyZ6f6tuhbNvm9eNb0Y8cdT4sGKw4jR0SYm258OdISGfoyqXLUn+0CLw4r5SLvjQJ1rOkqHOMO9vsYDkLEyIyctQ1Qk31wYsy8bJXQdKVRcOMdci/K1KcMYdliPq7u97eCxEmDSljg7Ai0HBhsWKsmdeZ+N29z4rvid9p4IpZqUxKYIYfwLjXRAjyiEaWNGChYfA8YJkM64MQ72bWI3kJZGLVwzq517IafOY6XYdYqIAyIDOm90Hkf1LxfcAuceePA2ATHSQugCaWKRxp4A8MypIyfdBpiYr1AYsq6SFefN+YUbufRfaD1AOruWRMdAw4Z3ZZXmVU0B+DjFHKRcoY//gEx8bRozApIFPxgmV5Ke6F5R7EImO/KB6Tjf+2uEYjGKwL+7m9FZ5NOqw9uAhe0cX78TONZww3+R7G0wU/YfkJ/NHFNS8wm9D3cbPVtutrbWtZRU1uWNPMu6V0DF1m7Jqpz2rdY6XjXk6vn61k7PC08nZY1w9X0yYV4HPHqvYI66UK7m5sDt0C9nvvdu2fv9GxX3ulbf/kBx37p6/07Ddfbdu/FYT9+3cH9p3LA3trcWhX1ke+O8N6S1+6bs66faVroLgPFe/xUdFR/FS+OOK6y7nJZ+y28yFjA4F6PlO0rMIBUtbrPXvtSsOurvVsembKHj06Zdnepv3o6qatd7J2cqZojx6q2GxRDVW/rXyjwQrgRR72O20bNDYt3+5YWS/OC4AA2gjAyTLAxXLZT8CSz3TMFyxbKVuuqmMpZ8VayaZni3ZqPm9PHyvYx08X7fNPln0CxNeeKdvXni7Yz8n9zFMl+4nH8vbiMZVJZWAb9Za9c71p5zaLttkvCLJomHkT9SYcfUkV5U2yHnkcx/U65HfWusz+FKTlCyWrlbBB9t0y5h2X8svkCO5vyl/X8367YQ/hceIfU90nJX/3ki6KcqDuYl3AqvIP/sE/8O4gLAw4xlKxICwTBFiMFpCKSoZzNyJMGijGt2GxoeECDmJDeq/ec6fi/XTlsvjtf/vf/rf2C7/wCzc17pxjUQMCaGABS0AAsLxfinlyO4ewfGJ1woJGOQPZ5HWyHBGfyX/GpiEsTaSd3/UY1oNUMh0sO0F9YFX9gyrua8kYtbhsBTMmI+B9kMIyDaBRNgA9ZbLfWMYPUrFFeKCiwAGJAjMTc3krZQdWUMNJa8KPFQ4bEe1Tt9/zSQH9TLCclZnZqbvcx6KAi901O8eXxUYtuu3G+Ha6+fnwbNKF9+8dHmPkcLGh9MZSIt1hiQUcFR+wGhgDwwmJ/Q8P10J7ubDetpXW0LqJ7ao83/RlxazM+Du6CHGFHNsShXFkE6WMndTv0pzCaXSbttFs+I/8UYHEar1rv3+hYb93rml/IvD6zvWuvb7YtwtrI99SiA27W301+op7sNYQR2yYiR8I+prlducHisfdSl738z3CYNHdCCOrGy179/qa3egU7eihmj12uGCN9qZdWLhhm5m8rk3Yo3Mj5VdHeRUG+PMsc0+7rbq1NpYs2215lylrkLGWWb8fl9AA4sI5qQwulvnNjrU5sqO2yqhlEwLC47N5e+bUpL385LR95uyUfemZmn3miaJ9/JGcPXtcf5XN5W2mSnlnfV2+HyiPf/dcx/75mx37jTf77n7v4sDeXBOIdgVnQJTHYFvkQcwL/4pGKGMhlAx1X/esoB+U0OVfKBUFZwWlN4QU0hni31fWbMgfYzeT3w0PN9UHJr5P8fsMVND985u/+ZtuJQMsGEjOEhtYXvjrnqUYWJKBRm/ru3iPBDQABVg7aICBM8Z5ef2X9npfjP/9UgwfWKRRB7po5He/l7jTLRWhhlmejJP6oCAgfu9i3hEPrHjAGb/bgDer1BPvpPAPKJAWrFXAw622rHpQ4v2kgTI46OQKfn/4YwNgxgpIeWB9w1JFff8gFesUsMn3DCgDlvfrav4g9cBzisyhEaXJz6nhL6lNZjkNZhfS5CQbFjTAcoaFQOfMcouWM1z0CySxcCudNdFFPwdz+N92d5Ite4VHGpOO5SmGalTZxkcXvIuWxUoLRZZVEGTkBnJDOzZTtqOCqr7qyeJG1zqjgg0EI8AcdTrCGNvwxL+oyEeO3lWlI2P4jlQDrC1sjqzOYliC2s3GyM5dW7dziz273hjaanOofM0IfkOjTXcX680xqsUtXWORHvI5mdfR8Tn6uZ3ws8NFkJZDnhYS6RYfgc1G315d6Cr+QztzfN4eFRRtrK/YGys9Gyq/HjuSsSePlm2mFLvoFCOBfL+xbEO2auo2rCjoFYr5xBK6e6P1kfNknJPnu4WVd35y2s6ePGkfeeSEfeTEEXvq8JQdLeatMlD+Nrt2eWVor1wZ2jff7tu/fq1lv/2jrv27d/r278537d9f7Nu3rwzs1RtDe2d5YJfW+7Yp6Ca9BZVViPse+TOO082fw486n9u+yfvQCoWiVQphBw2gOngNx468A91MDAC6Q1mT/p2NQ6r7o93lh5LX+vqjgS45Fk5lbSsaDqb7/42/8Tfsb/7Nv+mz9Vg3i3WZsKoxw4yB4zE86tHdigaKmZrEJTakWKh4z70I/27E++NvQxxzh+J1GlUaV4CHP0LpOqNrM95/0Nr9Tj4TL8bNATdYQgFJgDxZJ8h7LDh0fWLZSS6a+0GkA8X3Eg+21WKCxkFEWtiVBdAEQkkL9eqDTEtS1CNgkzGeCOteCmdjYSUB0GiYsAAVRVxYf+iio3kBBKIoXLZx0v9WFHEwGJznvGJjUUi6OxbP3P65+EO6l4sC6qIFbwtmhAaMpaPbdkaN+Ww1a4cnc4KwvD0xZ/bp00X74mNle2amY4fKQ3tkvmxHBGvtRsu78FiuAciCWWLF5p0AK91VnX7WLV11+W0PClZnmQZ9keZqGVtf69mNzZxNVas2pz94VtQ6X11p2ybrgymOMeWe+jF4+T6TcmQ/g+dxnAdo3Tv9OBSPB9XuMHCeZ/rusvH3ZnvoOxq8db1p3eyEPX2spnRk7eJ6xy4utwSoVXv65KSdmuwISjZVJ9iySXFur/nCs7ks43ZIawh3q0zG76KeHUR0u3YLJatnyna5afb6Ytu+d6Vu3764Yf/+fN3+4O2ufet8z753aWBvXBOALQ7t3NLA3lvRj+3m0NZaKk8svwPqhcpRr2YcWIt160Bh1VvPX6Vgd10M8dxW+Cx4JSCpy+4JSnNWf5H7choKYuuZ8XcC+Gb5DiYFsME7NlpqZqoHq/+fvf8MkixL7zrgf+a9actXdbXv6e7xZmfNzGpn/WqllVbulYdXyBEE8UbwQV8g+EAEEMAXCAgiCIgAIhAQGAFCQoQkJCStVuu0ZmbN7I6fHtfeVVeXT38z831+5+TJvFVd3V1jursG3X/3qevOPfe4m8//Ps85zwn9LvRBtokJMUjF7/7u77oFrhHOzDL8lV/5FedygJl6OOzEEShCHUeeQbvG/fw2ktbbFXgMjCZN0oFIoLHhdyRNhnYLQllDfaLtwxzIhAY0a2io0Pq93Tp5p0AeIWWQG7RhaD63I2e0Ae0ftJfEv9NapgDygUYSkrUTUDbKgpYQQMwoO5pD2uVOtw35gMDTXwDDBTKz5gChgQjMwCw7R7SMoeoKJ7N0WsQP1xEnjU7PzdrE4SYzBwMQNIR0J98ZKPa1gvB6YSsCEQumS0LekbCuJkvSTDmn/eM5HZ+K9NBcpMf3F/SRI7E+dTTWDx4v6IfuKeqH763o+4+V9MievPYUW9pnxO3wHus4SU1XVze0kZSV4MDUnhd+iDsdH9rdngndwSB3tEIuT11V7dl7posaNzLYqneNvE1o79SEpuz8spGzVet/XSNxjHODBXErg/cJSc+TB0K6zKGd3gmEdNPp+zqG/PkQXF2wbW20dWaxrVcvNR0ZO7LXXig1deVqTWeXme0b6chcRfsmpPFi246bKnTXVOqvmmBJjJtY/fQ6rv7Szw7B9a/B+euhZ3G6KqnRr2i5WdKljUjnVwu6sFHS5VqkFSNs6w05DSXaKdazxNEsY8n6tkUbyWQHtMKMEYwsPTR4TFLYKUY9lXazI7SwlmbSbbvZmKBSwkkz2s9RWUHXyDaLotctHm3sHzvo/zTr7pBh/88ivDuhr9EX2UfgIYjxAcUaipA0BDKOUyFoCA6IEoPb0aQxZgcTEb6ycGiKZiKQs5D+WwH3ky4EhzxhggtOZ99qmrcS6b7NPuYzBtIjXIPGabtJA3cSaCEhKNQtbUZ90/b0hQA0NxBMrlP/aHUgEXcKtH1of/oCeYL07oSwUy7ahTISH7JPXyYd2izdhrcbPJtyQZgpE22DtvIvPDkLDY72AO0ZgQXQK9beFRMs6BJYSmcgOnwjmnBpGhFhxiF+PzGDxia8GYwPEHRbsd257RA6ypvtLHHU1Xi5r/mJnI7O5PTAvrwePYxvsKI+erSgHzhWMBJW1Kdt++HD+AXL656pvBG2vBsTxjsXJkJArprtRFNjFROw0mp9Q1fWmlrvFdTsYPYwodqROibogybLDcKnasiM07ygd+mrVLD0q7wc9rI3E/uRqmjMvoDbjY4ur7W0YcQs6TEBAeJAQnafpYMWEz1mnGNwvv9RDsE9YlA/29VTqL/rhZ2CuLzUjkhZ3pggwIzWDSOZJy+u6dXFnkrVST04jfuJlt5Y2dACkwYq83poz4yOTrHe5JLK/SVVZERtQOJdeoN8hGekj8P+dgjl99pQ32fx+o+zYAbYsyIBI91AiAt8uuTfyHUI7thrVb3ZncCzuX9073Ux0ISl80t69VbHjSsbt7YfKw5M3aki8QFR6+a1ZuSxCQkflDmEDLcWW+sZAQUQXgyYZgUAzJoIY4gZ48yCWQ4E/1As3Ax5Y/wZkwO++tWvOoFOvK3t+Gbalf7IgHrGO2FS5RkI4d1KzgIoI3lHqFKXAEKLCZhy7CZQl7QjdUudogVFg0b+AygDZYGQQRooSyAzdxrkmT5BgMzcCOQXgkn52EKUIc3BRLtbQDkgjfQV2uMvtFkz3TDsE+h8xs2M6MQqxmgVIBn+ByMNlvxpt23HcksjQyTCzEXgUrZOQcdwncOIyg0DcSx0LA/NuKiEwTqREYNc2+RfRznLC8eFYl9jlZ7mJvo6YiTs/vmcPnBI+sjRWJ8+Hukz9+T1mXsj/dDdeX3aSNmHDub04FxbByfrqhQaqncaurDe0EuLLX3zYltfea2rz7/U0Vdfl05v5HXZOvALCy2d34icV/ySlfHseqI11tFsmUA3gsIC8G5mqm3RdLkwKGcYrwVK+Vjz1ZKm7aNxtZ5opW2dreIJ7drKuq5smCDvs3B6143BghQaTbHjkMbmrhCe4cmEr7fU47bFMF8uZUvfnsX9IR22EMLhsVsn08hF0nah3zXi1U9UintGMnuaGLOXO7Y4idVlfdHK2NBDhyb00P6yqsmqTi+taaGV6KCRs4f2VHRvclUTjTXx3VzMs3i+1y6GZ6dDGsPjnFXulhAVxpSU5tXQlNpJRf1crLyRNOebjjpzfZkeyceGnbP9iDU4rT02/xixtoEROogei8O7GZd8GW9f/1sxyjdC0x8b1zJiH9snjR9HUcbfmeUqXT7GoOHrjrF7za7lG22sa8gbPy/DOwf6X5J4r+r0CcZy4cmexaBZbojfQbzZsxj0VvMP7co4KmYqokHjix9i9pu/+ZtO6wbS7f1mQb4wqWGKIm1IBL+xYHP/3Z1AO4PGiTom31u1O9TNjcKtwNZ6o30hKYH00v7UOXkOgMxA0NKEZjfVP30SwsgMx5uBctEuBMgPZeMDhID5PB3C+dsVeCb+5jAt028CqPfdhpx10FvTQ7fB8KXomtDstNRutrRh4ZJ1yi+9IX3j6h6tmBDpmJBzKl2nLTCCVIp1910VPTwjXbqyou9eMMLRMkFngjJgUzEGWrWbwWQkFNotVVRRS4V+xwiBvURG1gpGziZKOU2YwMMx7IT9XqHtCoQQssJ6js2k77R6jOth4HWzxQQGxvgYGer0VbOt17LQwQtOUzU5XtQHj0l7o0V95yxmsbx+8n2zRsoa+sapq7qwXNRGx8+WMlrhngXCsyEGgEM3fs8Occ76/kORDs9LJ881tF6vae/+Pdpn+T515oK+dyXWchJbJ4RS4HaDrzL/8kPYwozSawBJYTP4ocCFR9inLOEHJrStAyTb4nDsB5+Ha+EZPI3Fuo0AW1xM2lbNrn5Z3H4M33eW70qcOK3qeIHlpBLtma4o32vr7IWGTpxa08lm1/1YPHJgQt2VMzrxnS/q3CvPKu5bW1q7hh9BN4DarQ7QdftBUI6C1bBtjTaNzlFEq6Pi1D6VDjygeMoarHpIxelpy9ikETb78czb16CVJJezDmSkh7aAnPEDTLux7+tqoIUI9Ubd4O/N7obUObjjQbu6qKO45IM8AdIO+0yoOT5f1uMPVDTW6+r504t6diE2wkZE/4Vrvc8+Lqr6+N32QXF3T/fMsMapJ3P0m/CcDLcGoa0A+9Q3Y3H+3b/7d/r3//7fO5MKizH/jb/xN5yGLAhwENqG+xB0jDnjni9/+ctO6P3iL/6i/tbf+ltucHO6HdnfabuSLmt58nyI2a/92q+5cW5o8naaxu1EqE+2/PZAUP/Nv/k3+qM/+iNXf//kn/yT4ZJTId6NcKvKmH4u+5AC2o7AeqV//+//feeUlfYGlOOf/bN/5iaFoCX9R//oH7kZhWA3tAOm41//9V/Xv/pX/8oRx7/7d/+u63/8jqTzR1np3//1v/5X/fN//s9d/2L2Lw51aa/Qt+800FLygQRJYwLMf/pP/8mN7dxNiP6hYbB/yzF6YYyl9uzlMmGJs9V20tQZI7FnmkaREvvS75lQy5vwsH9oinImuCYqBR3EOWs70cXVxI2h6fedswRHEkh5wDUMO+vMRSMee4yZvXevhT3SvWjH5mLbFnR4ItK+ak6TThthjWkkbLne14UN6fRKR68vd3Xial8vLXb10lXptaWuzq746wv1nJabLJ2TV8OK6gZim4BtdlhXMa/D05EOGdFsrC3p7NWcZvbM6y47PntlTa8s9bXRLlj8kqNlIJTPC28r8aB4bmMCumzkcf90UQ/vtRhGFF9fbKlSjHVwsqiGEZgzCxvOLUWHsWaGiNmi7m5+QPghd1LatY9rI4gCWxe8pgZCRXx2Qzs6VyC4BLGQJ9gx717erjMGj+uxMUpM10z4sCY0oitNs2bnZE5HZ/M6NtPXPVbn98zn3dJR9+y1fE/ntdfaGpcUEyWIpJ9teG65oxOXjJxZHa20Iws5rdVbWllr6NTZ142Evqh+Y01jkeXZ8tdpt93yUCzbxA8DAYIWvpL4IfE/ogQ2npy5Xc5FJU3Pzmvv/H5FY9NqROMqlCeUL1YUo10w8kX9+HahnqhH9oEdWx+2E8P68tf8cd/6gyd2/hqUeRiPfQsurtumwb1+jzyy6PnemaL1067Wai1dXGMSgEUY5IO+wqzQ+fG+jkzHmrW6H4u7rr1G7Riem+GdBnWbrl80VPgt+w//4T+4L3j8WeHH67Of/awzZ6W1PmnwscGgbD5awxqHDLrGVIZmDbKWftZO25SPF8yrkBvS/8QnPuEWDUd7s9M07hR4V1mQ+8knn3Tkh3rALEw5dorbVUZMZ7hCYTkjyDQTPtgGEyyzZRlPSLvitBaiuZu0Z5AsVpD41re+5foii7qz8gFkK51H9ikr8RgbyT7OlcPyW0FjdqcD/YZxm7xPvEPMit7pbNTbhdtKzgIQKm4WnQlJzFmdpKNz6zmdr5dVx4TZQ7gPBJRTI2BeLDpyhibm4nrbCAyC1duxMe842kBcx1xGneVGKBqTOTJT0mOH8rpn0ghYp6vVljF/I1bn1xKdWu4Z6err5atdvWwk7BXbnlxJ7FpPlzf8+pBraMs69qOb5N2Aa2Y7ukkCaMvIF4LUDeyHavW0bzyv9x+MNVORLi+sGXmLdPwYrFN69eKKLm7ERlDLxhPCF4nXTHn4coUSeu1MrMlyXnfNWzpG8K4srOqikcP902PaV7R6vdrWaSOStSR249acUOafqydLJwhx99dghBXCa9FsS/3b1ogWdI4WIU+BwLib3C7rVxrxNLlSMaJYLfY1ZXliTN5BI6KQsLvnjfQaAcNh6337YiMKkSNoc1VrW4sbW7osMcRyTzi7XVjvGQlL9PpCR69YOHm1p1OLic4s9bTQMHJm1VLvM0OzraWFRS1dPqPO+iVV+22Vjc1BxBCEScJi514zFsjZMP8DjNbqHJ1nL1cY0/y+g9q7f58VbEL1qGzkbNI4WRm1lQXGknkCliZn7uvQtvRJ14ZW1/xzabo2ZWf0o+a24TwYtAnnfZycMyk7emxb13SDMuA6ZX6qrD3Wn9ZrTV2w96jJILSBVpl+F0ex1bN9FMxGmjdyNh4nLo/hhzXkI8M7j3RfY1wLrjAgZjicRTvFWpo/93M/5wayO2vBAPTVdLuwD2HCtAShwn0EAeHH7D4C19PYSbsGDcLnPvc5Nwbn4x//uPNMH8jebgZ1i+bjqaeecoQVjRnrk1JHO8XtKiPthHYMckZbQ24gA8GEDFmAzDAxBHLGAt27jZyx5icuXW5EzgDmWcpKH6d8LDSOtpBJLRB/tGh3OtDHyQ9lQINJv38zpP524LaaNQGPwwkoQrNtP1aNZlu1xoa+drarr16u6GytYASJ5WgsoJkwsqMo0T5jM584aoSl39WTp5d0wYhTpzdBCYwEmRjc1EF21qFL+baO7RvXh4/FmjJS8tSpNb1hUr+lshtk3UssbZOIkCyeEQAp8qIymJjseX0vULeDW0mA8UtGGh45WNGnj+VUMxLy3KklFcsFPfDgtC5dburZ167oYnPcCIR9TTkzmW2ch7ftkdjVXFQyUpbXB47H2j8mnXjlvK7kpvXgwTFNJfaSnGnq9WX7mkkiI4555yMNOH9fhpFp05eJesTk5o6DOY2827MiO+84CY5znXD3ZshCvqu9E7EmSka07Ldm3MKYFaFoRK1gkfrW3pBVZpg2On3n8gLNZ73Zs7Zvu3O2cSQXDWXbkXZrXzSOrvIZv5YYmQ/5NOQSCy1F3Zpql06rdeklFTZOWTs2NWH5QxBCztjS1wIxYz9ozjgHtjVrWr3EY3O6654HdPf9D6g3Pq9FjammOdkT1M0XrYksuLFmVglbzJpowqg1QJ26erW68/2U/jBoB4sfrgWktWiO6FnOMG0HgU1gn9Qh5o/dM6f37m87DenXTvW0uG6xY6/5oO4r9gP54F7p0w9W9X0HejpcaTrhmyZoGW4N6Eu0Ff2OL/bf+q3fcqYtAJH4a3/tr7nZmZjnXXsN+5//TQttE7b0ZzQYv/Ebv+HGrDGeh6WNfvVXf9UJQGbFpe8J+9cD425+7/d+T3/7b/9t5+j1b/7Nv+nMarttzFMA9RK21CvE7F//63+tP/mTP3Hj9v7pP/2nQ8/6IR64XlluVRnDcwH7OGT9t//23+o//sf/6MzYf+/v/T23kkFod8pB3hlP+FM/9VP6B//gHzgSt1vaALMmpnjMmmh4r2fWBMz85QPkX/yLf+EIPz776KPES3+A7BaQL0zIOxlPdztxfUZxC+GEWd4EGeY1zJe5okom9av5pnOnARgA7wZdW8BK08aFhAlv3CcUYze02sULUo0X4M0GE+/aSHJqWlIdIw+r7ZwWa4nzzF9rG4mwB0PSvJuJUbBbLUBcePK1Lw9nCP45TuRzoAkjKwemIyOFeS2uNNwg85mpKnMPdH5p3ZnqOj1MmqMy+SbavpmIhclwrhppviItr8mIbVdTlciZEFdqLa3WcEPCLE0TwhGkYYRQD/zIhcCPGv7kqkbipuxDfM7478Ep67yzeT14INZ7D+f0uJHZD98d6xP3Rfr++wv6gQfKeuxwrAf2xjo0FWm8jAYxp6X1nk5fTZz/r++e7ehbp7p66vWuvvF64vafOdfVC5d6enWhp1MW7/xaVwsbOMj1YwrrLdodtyH46Br0CQvMOKQ8ll07aWSruSo1VlRMamIlUsoBAWPr63BU1nC8HTZd44ckdvOHjR7H2jNT1f37WCbJ0s7bM5x2a9D2W4j5ds8Jx1u3YFP8YVqhF1ng3CC4GZ9WF8THzUdixLVmHziYfkvGlHmPMCcHuHhWZxBg1tjENx4fHF7ratcHRchw60Ab4EsJcybmQ8w8rBOJwAqLYgeEfnA9oYwmAs3Kz/7szzoylhjpQ6CTLtoXyFtII2xvBIQlabJlPCb3h4+XdwOoO4Qqv1vUBVrFkH/qcCd1cDtAvaKlJD9ontByBgIJOKYduB40/uzvlvwD8kUfuRnoS7QL5SSgIU5rrHZbYGgBk2F2GzZLldsI9+IQ8pjamK0pVfItxTlMLj5OumO2u4mabSNl9puFy4BCLq3lIAY/ZiHsDAh456CTAdQGOhUCHYHnyEDXE5fRmpY+IPtCcJo9ApkYhNEC1hA4fiD8jwQTD/ZNOQum1jeMiJaLbiB/P2lqYa2muiN+3Adsa2W8HoiHNmu8ZMRsMqeCRV1c21A3V9BMJbZ8S5dXO1o3cuNdPpCbUd0UjIBVigVNkoexsvaOV7VvYsyZHN9vBOxDxyJ99J5Yn7ynYASspB98oKiP2/7jRwp6cF/BCFveyKaVxX4I15tyJOzFix19x0jY1418feXVjoVEf/5KR9/ESeuZjl3v6rXFrs4u93RptesWdl9t0gZozPANZlUJcRgEXxe+M6RnplKD9lOsuG+h21bfiFm+uaTxZMNN6uCHbTtiFva3g4tjjyBAXPiAKFfthTUSVp0aU6UcW/80mpa3H03aJRAm4NqJdNkSNmP0bMpAn+DYt0galNHlwy6Tf0iYC+xTIWlA1CwifbjZStwMXOeepWhtax3TlR8WZvEg+2gr1+3jAwe4Lh+D+0PeMtw6YObBxPO///f/duO7EAg/8zM/40xDmFK2annS2NpG/G4yiBxy98u//MtOS4QbDMgZY5bY550M5C79HmyHQM4QooGcXdPXdjHIeyA6ib33u5VcQmwI1C3aJvId2p1zgcyAMGkJ7Kb3kzyRt5vliXJRPspJmdHuhvO7NVzvY+hOYrN0uOUIwssHKsRVihGFiaivPWpozIRu5EjE5h8lrFsNtG32kTldrKhk1+jU4YeELfHfVDBh6E1t9jRMcPhaw4QHSbPne/2cNymlQyBbhDQ4Sp9x8S0O49Ao072HqipbjV+8vKy12pr2zsktUL566YqWVxizNjG4E82MBbfnQzrfIR9gfCyvqarVjTGky1friopj2lfJ2RdkX+faVa327AUhPWOVSb/lTKvTpZ4OjEv3zvb06IGenjjW1afu7+mzD0s/8ECsjxgJ+4CRMK8Jy2my5E0spxYajmA9YwTse2e7evqMhdN9I19t5yH/WQsvnO/plcs9nVxk4kZPV2veS34DYmBE0bkEcfVGG9P+UMZIecZIBbJjuNHLwlJTmCKZuZmsLyq/vqC4Zz8aUcFptLbrCyBswXbn3PMtFAtl26Al7WnP3nnlS1Ut98f0am1Kq90xI2cFRXFfJSNstA5phL5MCTi+Xh9JYxTPyjos++Zy+z5uZ63egik6DbTKK528FrtldQpT9uFipD/Xsht9fHePkTTqHncaTLjp2HND/wE3ymOGtw7qFeGEOZMZkYztoo+wbiYmTcaJhX5zM4S+RCA+piXMY7/wC7/gxlgx9opxYzwDDc1OgWAKplCEL0SSPO/WPhF+70OdQWqoC8qB1ozZr5RjN4H8MGYL0yD1CnFBUxPKQJkoR3DUyvg0BqvvljYgf5i/0fjStzi+Wd4oD+QsONZFpmZ4cxhJw9sEOmTOCAKmF+fXjC1q0ELkTGmQo9w2Xt07dPC2vZjWxn4dQcwzjLpKx/OCbqcBQdhNIjVMlpHCZClWJZcoZ8LMObm9XnBgmw6b4fJkcSFnzFicHos0UzWBb0JysWGEpFDRhMn29ToaLkQlgn4ANDGDgBhlvBXORBmDRfA/UD1VYiNZRsyM22ppHZcRXU1WKxorRarkE+2t5vXAXKzvOxTrh+4t6f9zX0k/dX+kH3mgqE/eF+tDx2M9cjCvo7PkzevVFlYSvXG5qxcvQL46eupUoq++nuhLL7Pf03eMkD1jJOy5cx29fKmv1weD9C+tGRGr940A0FYmRHpea0iazN6kPpxmCA0YH7YWthIO1zfsMATAfZAxR8icPY6tbewZjEfbWFtRu7FCS1qdFrns6ofAj0LYDyH0FQ9fj4Bn44yXQCebnJrVobsOa3ZuytJv68qy/fDX7Sl5/BVNqFpmbFnbvnZpIfvSdZMKfNqU2z/Lld5tffDCNWjIfNxhQfnvjul7LthpF1wU389wgUIApIP5mPeiZvKY378q689SFirCJ+jywjJP9SbmTaqeQcjX9tkM7ywS+81irNH/+T//x2m16GPM0vuxH/ux644ncu/ANmErOAe5Y3wY/s9wg8GAbZaBev75550QDRqBYb+jP2wBAhRygzDlHjRvEInt4t4JhHyH95fysAXso3lkYD1kB0LDJIlATrlvu7q73YDs4uiXmZi0CWQ6EDFAHtH+YZ4lz5SDdgjlvdMIeWIsGX36ZkADSH9k3CJlx7UGhBOQ1m4A+UA+BBmxG3HHfqGd0LGOR6CTloqYNiMnNoJwQXBTiQyQZpxRvW0kxtq2EvkFvgPeaoOzxiRjyhoQCktivBKrjC+Kd6ixXKObIGU5JWaFzo5JG/Wazm/kVahOOjPnggn986vWURiHZwh1EhD2oQAAYkt9FS3MjhW0x8gZpV9tt1z+D8/Zucm+js1I33cg0hNGzD54MNYDszkdmbQf9KrVsd3baPV0YbWnE5cZD5boGydb+tobbX3jDdt/vaMnjZQ9fSYxEmZxLnZ1crGjxY2cVutoYBiPh1mY9oHUbA6uzQYBPuWsa46Q+DAiuGAUNwR31raelPn9dGBCCQyt02pqfXXVWGvLygTJZ2kqNIQ9F6j/dOBaQHrfXlGrWLvugh3nrD+OT6s8uUeLzbxOreV0pW5tVqnqfmPDHzoa6z17+9pXaqpcsK/egjcRMjauy8QAI3eRG+jPM1J9iXIPy+5J27XY/pUMhDWd7wBMOfUG5bd3w14gyDrxQugZUW4nOW00c84nX8fVuZFZl71r08vw9kG9oyn5/Oc/78gZwpbxZWi6mADAex3a560CYoVZkzTRomE+wrzJ+pusJJCkBOn1nsNvCeQMYcr9uDwIZqjdAN5bBDvEYCthIe8QAFxSUAZIAOPudgO5DG1LgKBAGqlbTNK4bggTAQBbjiHbaNUoB/Ep624ABAaNJG0AAqm8HiBnkGbahj5Iu1Gm3VIegJaVGb5omnFJsxtx41q+haBD4hcL7Rljp2jQUrHgZv/FOYiIF6Yh4PC10U5MyFjjo2GL+SocvYCbNBM7DID+0sTxraU7UYpUjjCXeWL4dkEZIVPjpZ4OzjLQXrq60tBaJ9b45JhKOftSXalrqVVQL1/w8a8JfP0heBmg3rcfZO8gtxD3NGvsbq7cty/FrpEz1OWxYiN8K83ECJTVlZWtZkL5wlpXL1/t6TuXuvrqmba+eqqjr5/q6qmTHWeafO5cVyfs2imLA1FctN/mlVrXrRmJQ1NIBxqadL0FpOtzFFJEzEAzbS0XCPHT++lzIOy7NNilXSzkjaC11+2Fb6yq1G+5gfBGd6w9R9oy7g3bdJoB6fOYkRnoT0hysYzuaaWFv7pITY1pemJc9+4p6O5p6Z7pvh6Yz+lB55st1v5Jlk4if/5LzKUZZrwOEPa3boFXukHOb/46hnpgwS1AOvz411p+4GTJ+kcc+bRdPVgbMHaS/t2wPoJj5LYRREeYU3nI8M6AOqXegzsBxplh1kS7gy8zZhQitN4pINQhZqwgwGxLhDraMyYJQA7pj+l3bjugyUGTlwwEKWs/UobdAIgWmkAILqZhTGvpfovGj3UrWbYJgYt5N00ub1b224GgkaReIZG0UxhfBqhrykEZaAvyzwSSnQy+vx0I5JIygJvVJ5YwyBkTAQBthuZtt/Qp+jnEjHeT2bP4n9uNuGPkDNDIgYWX7CuwUkAjxOB734gY+wjGC1zDNkzCMFCfOGUTQmgI7MqoswTNxA4D5IF068b4MPeMVfIq4zzVnu+IwNsExBMt1VQlpwMzRpSakJ62KuVIU2NSp9nQ8kbbhH/ZKmN7cubSsc6OVrFU8NpFyl0p5jQ9VrD0W86kiX+0S41Yz1+QvniirT99vaMvGgn78tme/vxsR98419b3LvX04hV8t3V1bqWnKxt9rdX9eLBONzICjCC3GrUQTG/pMKw3rg2uB5BX2tLnG12nD6Eeqed0CPe6ZAfpj85t3g/bEPI9a6xOU621q4ra69Z3ulYvtFli+fLrsxKIm35WQPoY8ux6mTs36ncsc9S2OinY1wJm37vnYk1EbS2utvT6QqLFeknl6pgePlDWe4+M6/hczsg9vt56ykdMSPADZz1BtXq7yauWztPW/G5FuG5Zd6C9cDZM7tEo474E+HhGxKw8aDkhZ7gs6Vie+PzJ8M4htAn9DU0PhOIP/uAP9PTTTzuBi98qyBkkLa15CO/4WwX3I/Dxbv6Zz3zGaZEwn+FaAkegOyFakEVmrAEIHRoeBPLN+uGtBvlGYwPRxOM8GsEwbotyhy3kDA0iRDQ45yX/dxL+d9DnMdQp+YO0kFd+07keQJ+gHBAayBzkjG06zp0A+ac/Q2YoRzh3I6DRRRML2ST/aM24F1J0J0G+CRB+3kveT9apzTRnWxA6LyEfyQRKzpEzNGIMWgehMsM+g5nxhRVbXNYRjN6BfovwZIFxZgy6GaNop9DcMebrbSJv6UxW+zo8V9VkifFcdeel/65ZfIIZUVtpasMIG+OYjFoM7toKSKSRhcFYM/YhjzOMYZu0vBvBW1hqOLJwfk167nxD3znd1rMXunplOa/Tqz1dMhJ2tdZVzcoJAWNdR7fGo6VtKdr+teOzPMiThSGZ9W0xbDe75giYMTCnxXTMji2klx9XX78+ObpaCB4hvTTS59h3obuZ0PHMTmNd/Y0rKvY2rM0g9Ra/x2woPwU9lGPb9LacC6C0keWVdTmZnTk9Xda+mZL2V7vqthKdXOjrmXPSN07l9M2zeb26UNBqvag9Y2U9eriqh45UbB8Ta9O1fShr+hkeozpwdtS3AE96rQVcXeetH3WddqxkH+T4l6M9nNne2pb6p915d2qtjlqWtXRdhJDhrSPUIaQAQYamB9cZvFe4vMB3FQ44MVuB8A69E0CwHzt2zD0DgoY2Db9Z/+t//S/nEy0I+es9jzyFvCGo8OQeBnLfyX7B+ws5O3HihF5++WVnsoTUUN5Q3wRIDasDoI2CnGGqglDcybwDng8RoD7JE3mHnKM5CwQ95JEtZIalhGgnykpZEiM0d7Ic9AHMmZjJ0QbvBOSfDwY+FOiLaNzQaO6WsYwMA6FNWJUBbSvj/3YjUlLi9sF+JoY/Fl7AM1Myp6q9XEEjhjYjCFcUaZAJVg5otpxIUhktksVDSL2VBnf3GJFA8ONeYN0El3FDI01FS9fyBsl4G6BspXyiw9N5HdqTd2Pbrm40jFnaC2rn8OW9utF2pkfGOLmmGJCgdEBD5Rd+76ltUrVjW1yPsM7khPWppXpHy2tWKTn70TdSUWvWnKYRVxDUH+avMMA8rKdJmV29umCPcUXlh3sU/HkfB6S3bp+6c/vEHZAxuw+yd/1uZXmnMVPEN6Tn0kzvD/I4HHeYCpSrWVtV0lhVMddRoWjthZXPzvuZnKNwPaSv8S1A3eS6kTtfsT4wPzuhfXvGNDs9YYQmrxOXWnrByNiZ9ZIurkU6w8zVM039+QnpjQtNzYyX9ZH7J/X+owXNVhMj+G3XBum6oJ44Hj7b1d0on9vtp8NW0Pdd/7fqxCccJmg+MMrFiG7mTLUBPBszSb1lfa4zercyvLNAU8Xal5hM8PYO6cGfGa4vMF0F8PvwTgJiwpg2Fk/nWZArxrsxgxMtDEL2ekDTgXsPNHxoORBcaDoQYrcb6b5OnikHeaHvIkTRyIRrgHok3xAeCAED71988UV3351C+r3CRAlZZ6kuJi2wsD0EDZB34rKFuEHOAnEL9wQNZjrN24nEyCEkhhAI5c1AecLYOtqG9ttqbr6ToEwQRvKD1hhHubsRO6vtdww8bhAgCznvXZiv/EK+o0qxpkqM13cjMZilLKYL1jGZmUfAYWzPOknBpFBBFhfJhMAzRhKIwk6Cu8ft942cJVprMd5IblxXPjKm1reXomtbBp+jjeHHwLb414ogPRbwD4+vr/lKTsemc3p0X14fuyunH743px9/qKCffrSiH7y7r8PljpKVZW3UupqcmNdcyZ631nDLVW10CuqZsETrwSzHYTByQrDHuMCYr45lsGVZKprQP1DOq9hkyR4GeFtpLM/MBO138m4GatKx+Ex0MEKXs3qLKKttXbBKRW472W3tMAxbEH4UiG+x3TYEZqFa9lxAYTY0dbp28D+c/l6+vhl8jm8y/1A0fyMtG8FOkz93GWJMGv4aJJ31V9GI9RjTRXs0l5Rbv6Bcp2FpYh6oWHKsgDBIdkA8Ema5uhQsrQDyMqCRLrhLvuz2WDfjc8wEQHV2j/oR2si8vrM2rwvJHJWssuW/aoQwnyurbc/eaDb02tW+vnuhqIX6uPbNzuv9+3s6OGmNU2wrsbgwR4y8HvaQvh33qA0rpxFzghsbRh1QS4PtMIQ4qZxbMw7vdyZYa3uGneWjgpFLy6d9GPh3wx5nebberYbV3XI71lJScuPOOOd8tmV4WwjvCRoqxq9gUmSMDloQ1npkncRAKtLwv33vTAAIGgga488gW4zzwST49a9/3ZEV905tA4QuQpTlbNCeQc6ee+459x6BUL7bgfAsQmJCNMwSJH843w0LhadB+SE1EGFIGzNkIcaQy1A3txvkH0IJqUFrRl7Q7j3xxBOOiIU4IdAG9BHIG6ZNCDXtAIHg+p0Az6X+0VxSn/SHndYns09pr+PHj7syYOaHbPKO3KnyAPoHWkneT/LBO8pEjN2IayXybUHeGtlrFdgSIhMypXysatwz0oXWwTcgBCq4D0Br1DCZ17H9UmxCiPFhJmK2IxY3Q+ggbNpGejaaJsYtqUqp7L4kcehZKeY1XsppdjzvtF3H90R6aF+kx45G+uR9Zf3QwyV91kjYZx8q6tP3F/WEnX/gQKxDrGE4EbkZqCuNnHPO+s1TTSOWeU2OQzxyurhU1+VGrLqRKEzxPDsQRxc4toBfMCfQXWaNiljeJqeqmhnLaX2jpSv1yMhlbPcYybSXp+dccpCG3Ue9pELeCEEIw/NbwH0hBGx37EG+tn9Z0/FHsPayQvHUdEDbZQUd7Nsfysy5gfYsHSBpqKKbtabynXVVchtW4g0jpA2SGAS7D+Jh8aGJPjkS9gj7oa79fsdp3/LlknqFslst4uJyW+cXa1o3Il2vN43wkibCcPDj2jNSZER4Yb2jVy/XdeJyW7X+uA7u3ad79+/RASPtRSsvpM/5rbOtzxPPt9Ja/Y8IbcjT5vKmg49AIqPg+oi1AWPJcKYcxRWNWRkKRs7sqo9n4Jl8ANSaPadlQ5ObLn+Gtw4EFsIXEyKmRMazMLYIM+PP//zPu8H2aa3DrSAMpElACwAZxMktz8UcxTJPEDTem+3AfWhtMInu27fPaTmYzABBGPa72wTqicBzMeuxliP5wEQG8Qye3IkT6pEtY+aYGAF5w9EvZl20gOH67UR4HgPh6QsQdkgvazhi4uZ6Ok/sUx7yzpJO73vf+9w5FnSnHBCKdPzbAeofM2RY7Jx9NJOEnQACChmFoKHxRJsJQbuT5mbqkHcAlzMQRQgkfQqz+G7E6BfjDoDKSgdU83j/d1/91hdxKIo50wlEC4yVarVNuJlQI27ZmR/TWpqdhwAWvW4mPa3XuyrYM4/uGdeDewp638GSPnAkcr7APnJ3rI/ek9fH7inog8ciPXqooOPWnnuNaFUKJqCNDODj69xaX68t9Nzsx6feaOlrr3Vc+PbJjk4uRSY0K5q2D7+1WqLLa4lWO2UjhrERi5AvhL8nFel8sqV+eIFLxUhz9hGOCXZ5taZFI3/tPi4kMH8yzsjic88taNp0nrbieucDwr3pELDd+fR2ZIJj9Ya2mo11dZpGyvotZ9bMd41t9IzQW+HDmLPE7oGiBXAupLkVEEJ8sUU5I7m5kpHckjYaRS2vF61flJSPykZ0IMCeRBH4eOjnIVr2whvpvrLW1huX1nTSSFpNM9q3Z173TUuTRctPru36Mm1jXMrBaazSgXPXyV/AtddpY9/O9GFIl71FqhYLzqTu8mrPJQ79AULG2EoCKwuk14vN8OYR+gL9k69xSBAmzcS+tr7v+77P+TNjyRo+9gJ4j28lIAFokfB/xiQETKkIePKGgAzmwK1AgEIM0Lgxtoh7WKQ9mDZDWW8XyCcaGxYKx7THIHoEPdguH+SfBbbvvfdeZ1pGYwgpCmbBW13vAaGe6BMQAFaGYDIAbQIxgzAHpMvBPjKNckLi0IJSdmaoMu4u/Aam77kVCM/geWiXWIyddoA4ogXjo2MnoL4h/PQptIGYmyFF6XF0t7osW0GfokwQTvIDKaNP7ZRw3m688xL8TSJ8AbFlZlzVGFIl6ijKI7AGQtmkGpoz6y9q2ed/y7YFYyeluGfxgoDaeVFMxjrBHQJau3wXM6A0Pzmu9+0v6z37Yt07n9eRmUgz5ZxK9iXA+oS4mTi33HUk7IWLXX3vPO4oenr6dNtCV89d6Orlyzhn7evMck8X1rzT2Xa+oD3TJVXsd/rycktXa301epFbt5E1EvtWuPQLuDWg1snHkZuhyaoCdfsIxkfaWitS0o9N8PbcLDz0JRCGNPyYqsHBDeCek8Lw2YP9rQjX03FudAy27m93HM5BfRzZgtIYGcIZb7dVU8JyTb1Vla2fMD6Q/mGc1uL6HxXipdP1rMgCkVJIx2F9V/t5tPuL6nRLWm+VVE8m1Y9m7Atr2oTcmGJH0kb9DA2aTwHi09fKaktnLq3r5NXEmezvnS/owAxjIzs+Tzvop8Oyu3q4VrPlz4/y7WBx0Io1mvYcS79cKtq7wTvjSR/gFuPuzmGt05xRZy79VH1vTTfDdUFdub5mAdPPH//xH7sJAIyvgSRAjtCApInZ7QIEDRMl5s3HHnvMmZK++MUvukkKmAjTbR4AMUCIPv74405o4f7jC1/4wnDcUyA3t6uPUI8IczR/wUTGpIftQN6oZ4gZTn4xD6KlwbwMab6dprRAftGaQRDRQJI/CBf+7dImTZCuV/Yx39J/0ASi+YNIUA+Q5HDPrSoL6Ya0eR51CDmjLcgPZaBv7RTEpd34QMHEixY0TFAB6efdDlAONMh8dAC0Zo888sgdeUd3gp0zmlsAOmM6FK2SWLC7EnWdV31cUTAyJsTtOu2AJ2es9uMEkAnwtwo0JgRm6OGk87Ur0umNSFdaeV0y8oS7ideu9PTS5a6euZC4JYpw2PrtM377zLnEedJ/7UpXp5bsS8OI2MK6vZhNHOYa+eqgpciracSvVK5q32zsCOBZI2crdh5TkzN1WV6u7aJekEO2kn7k4pVKJuyncpq1Olpab+kKBM+EctsIXqtr6bmq8k0aOv6bCVvvC0hfC9v0dbA1fjpugCca3mSx0xDg9ruJkmZN/eaSylrVWNHoVASxjS0YsbI6MFk5FJr+fguuoUfEd5jeEFbP1rcwU+YivLiOWdsUre5Ltl8ZmJ3tI8LqOZ/nx8m3XdeeEfoursV49vJ6olOXEy2sNDU1WXRLds0UNhQlLU+WrF9vGud1HfNyGi6v1F2KqKVJG30DYk6fg4AViwV7l7pGEBnnRzl92Z2vQOt/zBBm5rPvLx6b6yPDzUB9IYgZT4MAxs0DhIZB0D/6oz/q/JltHctCP7kdoO+jSYIMkBdIC4IJ1wFo9hh/Rpw0yBuajo9//OOOHFAutDYQTghdWuN2q/sKpicEOasqYAaDGEAaw8Dt8M6FEHDkyBFnmoWQov1jMgTlRXN1u3yGkR/qDhKAvzlMspj3WK4Lcgk5u1H9QWggMx/72MectopZqrQDZdjaZrcC5J/nMCGBDw7IFFo8+kVwt7JToHBB28Y4O94LzOV8JDAO71aDOiZQFgIfGJhnf/d3f9eNSeRDhDKRv4ycXQfpl4yOi2YJh56YGDdnzgtenNDWGGNt11naEIebELjQGDsJaFGQ1+GYRbeXGzl91wjYk+elJy9IT5/3BOzps+0hCXt1oavTi31dWunr6kZf60bCmm7wPlodhLfXAqYDj4utILNTJU1P4D5jVZc37AdoME4MBNJCSGszXHDjkeyahbGxvJEzK7f9Tl5eabtFwzFVMVmg5Uyj/ocqpPtmsfW+kIewn96CcD19ze+PCNh2ZQqEJH3OnR/gevs9I2edprHfzorGcnXvMkKRESWrS9uGdLaa64Kp+HqgndykhlxecaGiqMDMV6tbIzfGq91Yx8T6HP3PpUP+B+VyWkpX72wtL/1Yi7WeThs5W+qXdGh/Rffu6arSbVouibUTE4tPP41QtjTCOfJB/lvtrtqWzwIfOFY3BacuDfeQX/tQ6OTcQvX4PGN4wHbpZrgxQp1BWBBiv/M7v+OEGBoefvARxPz4B6tACLcL4XmQQxZXx7yJNgmzJsIJMrl1oDnxw5gntE8QHQaB4wcKoQbZuR3kACGK8P7KV77izJLIBEzEEMYw2zWUj5A+xm0D8Vi7FKKJ1gxtIeZByCn5T99LeKcRJoXwXDQ0mMw+8YlPOKJM/V4PoU9RXsbXQe4pC2O9IKlf+tKXnCYt3WbvNEKdQAQhtTyT8qD9YgbwdpNabgbuoewQZkgQ4+jQKOKy5VbUfxrUVXgGHxg8FzMzfYw8MUaR/N3qfLxVRP/QMNi/7aBSqEB+5BzD7feMcLS0sNrU+VbVCEzRaUOcmwOrP8xWLJUzM1HQZNWE5vqaFjciN+Ox7yp4p8EjNAoWL7QjDRNcDROwSxuJVhs91UyA1Vssy4OWgakHFtHuYXwSC3bz40t6pANJYBxS+gnIbMu+G7z/wOGiZu235eTZVZ1aidXqod6GznkBCbbrJKRIYJmgw7MFPbjPfgDWN/TSBb+yQEeMN7M0nNmOmKRhW5IM6ToyEXJ2/eDyQaYHwd2+ZX+7c/bHgv21jTvnjgfXbd+9JMTzjNhdpS79PxfTxfN9AKJLPJiQkSrrG8z0zPWMmNVXtLFyQeXGGc1Gq6oUS67ciRFTtEI9Y6pJt2Nklf5EGjzIfpDZH4C8hKPhWdee9jKUqoqr08pVZ5UUx9Qv2HF53L5mjVXzxYsJ1c0asC3jHa0PUOMQH/5xjEq3n4csdlWslrRv0vpst6b1WsG5urCuZFVmaVg/83U3ahufFmELXDy74vpHiA/8M7kPLd5Y2X7YrY9Uy9LqypIuG49N+hWraz5fyFveffzsHY91fKbn1notxyYQ7hCJeDcjsR8Mxq8ghP/bf/tv7gcfUvOX/tJfcmQCohbq8nbXaWhHBD2EgLwEFxls+b3FnQPkDYEZ4gM0NwSEGZpAysjvHEKMyQK3wh1I+P3j/ceMyaQKxshhGkSI/tzP/ZwzQWF6Bdd7LueJA0lDOwI5Y8s58s8sSPKfLi+40e/vzeB+Twb3U68QMhzmojVDW4cG7Kd/+qcd0Qr5D9iaD8Ax9R3WCqUMjNOif2HyhLilF01/uwh5Z0v9Q8zQAv/P//k/XVugLWNiC+VA84VGkLiQfoh8+AC5HrhGf6Is9CfKw4cBml3aA61cwDtRplCekBb1hvYStzJ8RPExxbhK3lPIGe8GeKfq853EHSVnIHQKQteEapMfveW6zq+Pq5YUTbiY2DOhQt0RJy70NTVW0Nx4Tp2NdV1akzbamP0QWm8FoVF8PlrNjjOfIhAddbJ06YAQMpcPF39LQzrywy3+RXVbO2YWXS+Kdd9MrMcPRmrX7Ev7/KIWmlaunklJS5MJCaP0RoI6BNLBDDZXyus9+wvaPymdu3hBb6xKa0lsebZ7LBKxfR5tj2Pyb0k7UrRjjH5o0gjntm4DyOWmc6l9Xz634/mWy2m4PriPa4N7vJaLe4iMRnQw69B++FprS2qvnNdE+7KRs4aKhZI61ma4HsHdRpK0rF4T2+c+l5ojZqQ9DKk6htg4QjXIT2FsRtHkISWVKfVKU4pLRtSiqooV+xKgXomPx2Q31oxjgp9tDDmzAwt59yPdYYxZsaDpaqzpyQmt1xu6ul5Tu2+kD5u8kXkfP4XB4fCHwrXd5jg+vwH+GrmH0KIt2zdd0oRlt75R12XrI2ho/bqtlLcv42/2sRBr355IsxORJiLGx/k+znN344/UbkHoo/xO8OWPFgp/ZggcNAP4GAuLkIPdUJ+QL4Q6JkGIFoO7IV6QNgafcy3kMwQGfUMAIHLE5R6EK2SOgLANcd8uQp0iRDHh/cZv/IYjBuSVMU4QM+o05BOkn7s1H+yTfwgaJlHIGbM3IXqkwXi665Gb7c7tBBD1MLPxv/yX/+L6BZMS0Jj98i//siM2kJGteQ0I50NdAIgc5IXzjP2CKFEGzjGpgOvbpfVWwRgzSCCkkiWNIJkQ+J/92Z91fvowS9I+b4WcQYjpf2hfIXikg58xPh5wZcH1m6WzU5A30mELOab9WW+WPkU9UiaIGat1oF0lD8R/J579TuOOkzOQJmeNTtO5mTizPqF6UlYHAUTDmQiiwnGuOVEtam7ChFQLAdTVetv2c0F79ubBXSHsGANtVOp9IoeDPZ8af0ulqt5jxOyQkarTl+t6/UrHSFVpuNA5ZSIN3zmuzQH6utjKf3DKr+OIJu7Vc0bwNqpqde1LzJFI/yx3N2mxsUTDducYxU3fd/N9vx0e2ybUhT9lOQkkzRDaMhC30TGRfb7zto/GzMWxkLMfwMbiaeXWTmq6t6rpQtd6b+y0ZJCybqdtpChxP5T0pZAWEy3swPaClms78HIaQanMKBmfU7c4o7i8VyqOWzOXVSxVHG/uO2Jm6UDSHEmyF9v+Qm6I4MmeJ8hteyZOk1kZ4tBeEyy9lhYW17TRnTQi5Qmdq5ftgs/6EL5v+P4WENx5AKJCzopxX3umy5qzvtaut3RhOXEfLv180XoRdWBxLK3psUhHZnraZ+/QVJwosnJl5OzmCP2bMVGYBv/7f//vbsvX/1//63/dmdP48Q8/+OBO1yfPRzuAUOe9QEChHaEMCHnMl1vNhRA64nMfMwUxbyK4MXFB6iA5EBzK+XZAfZInhDZaFbSQaMzYZ3wWxIBJDWiLtmr4tiJcS+cfQkC+IXoEygxxw9QIwUy3UxrXe8Z24PcGEovpFM0MZuCg8WNBetyaQAhDXYU83gihDBA6+hYEOWjQKAP1z/lA0HaS5o0AsUSjxNg2tJaYZWl7fPRBZDBr0k6QXMyCtNtOyVkA6fHRwixJzNaUB/JMOWgr+mBo4zeL8F4CPozJUyDmkE3aBZcmaH5xMUO/YhwmfeCdIoW3ArtCc0Zwpk0Tws2E9QsbOrNaVQ1nmSaEEHpOsJqcxcXGmH35Oz9iScPIGd790ZwZORtqI3YW7KfBtm8NjjOkOoVTcliKaVhX0/7Joh45ZCSt19aJi003aaDZLToiyf0M4LYCujudtuuajtLXWKmgY3sKOjzd0+JGU6cWNrTcqFruS5bGIFoKIV9bU7o5yJPfbhfCtVGc8JxwzreluzIgXqO8+GseYX+wHZxn35MxO3YEy5Mz7k0aNTUXT6rYOKupfMe5XMERa6dnhKzbVmKkvue0Z5Azn551Kp+mOyBX10cclVSdO6jizCH14wk7MWZhwhGbYom1T+1+yBnpDEhY2HqiNvqRJDA3M7H8l63/7p+f0Wwx0eWrq1psTli+ifPmBJt/Rhr+OYDyEZjhPD1R0b4pq752R2eXO1pvob0tWgSfV/s5d777Ds7mdGAqMpLbceQ/nfcM1wcaHmYw8iWOqYT+hRD71V/9VUcogulqN9Ul+UA4QkoYewXZCmN+0FygQUhrYtgiLCFvbCEb3IdQRfMBSYOccY24b1bAUWf83kM00KAw+B8NJBMWICBoaRCgmAMxQZE3nnEzuN8SQ8g/6SD8yT+kgHIT0GpRH1zjHuKH4H4vbhIgKvQDSCUmM2aF/uZv/qYbJ0eZcJkBMWOsH2R9Oy1X+pkhpMEx5IE2I5+QDUg1hIMyYBqkDSDLaVKzNZ3rIZQBYonbFPKPOZNxiRBYPjR+6Zd+yWmEeQZaKK69Wc0ZcQHkFHJGWjyTfkSbUH+UhbJynXbbCUK6YQvYRwNIezO2jf4UyD6EljZBu42zYuou9Kmd1tntxq7QnFGpnpx11U46Wlxr6+RSUesJY6ow//lK5OsfTVK5HOvAZKyxPuPTEhNAkdpoRgbmxZ3i7ZAzy9RgO4A7HHUUqBnW7Hv2FnVsr7S0vKJXFtpawqTJ4HXLb9dHtNusg6N5GRymO0vUT7Rnsqzj+yJNFDZ0erGhs1fxBm/koR8bybt+GUjTZ2xnIRCqNLa+BJtfBv5yr//R8mkMLmy55s2r7qRtAnEbaLgshHR7jBdzcyGNlHEdomXEtrV6RcnSGxrrXnILjJesaL2cxbJ+02k3jJy13L2sIsEkipE5s+dmM9JzeIILdkxuArgejxupOXyX9uzZr36hojpjx/oTiov242c/HNzgxoqxswNy1h2YuKFDM+OTRqy7Wq03dbFWdG4vcs60uVOM+vVI4zaCM9VaHtA2jlk5DkxL9hSdWepopW4RjGCSE2Ly1LFSpENG9A9Px5ordVWIMrPmToBA44cesxU/+ghMBPGv/dqvuRl2wVwW6nA31SV5QdAjeIP2AgGJgIaEQdLCOxjyTXnQNqBdQzij7cDEiWsHNC2QNMgI5AChejMCRfqkg4mUZ6Nt+r3f+z1nRsNlA/XJwHMEKOQMNweBAL5ZcA/3hvwDiAD5Z4ID7YjGKOQ/mGqvV4aQB+KjycLMCBlD04QpFo0kaUDIfuVXfsVpzCCHgazvFOmyhjJA8IKGEw0gqzfQBpQHuckHKeQn9D/3u5NKJ8D/HvbdbF3aEm0SM1rRADOLkn5BntGW/eIv/qJbTB8yRVrUVVpzhsl2p5ozrhOoC/oZgXxDzPnQIV2IH8+gLOl7QtpsQ/65l214Nn0KDS/ElT7Fu/mf//N/HvYpyBhEEy1smFiSTne3YteRM1wa4I7gjaWcVjuxGiZmgvAj4Gm9ZMJl/1RB01FLly0ug/edI1anOXsz8D9Gbw2+Ucm726b+IkBz/Uizxb4eOegHaJ8+t6rTq3ltoDWzeyFmkIiQDnDjxVKg48S5ju6aL+vwvJG55ppevdyxMheMulSsLoi/mVAN82NbCFE43hlGcdP3bZdG+pynPalzQ/JlL1OoE3fsz9sr5/ZHx/6l84FzRrqsL7h07T/uM5qrp9VfP62JaElVJlNa2YnftZe50+4YObOX2vrQgIm5a5aIpWXPcdW6pW4HW/aSXEHxxJT2HdqrA3vti6qyR63ehJJuQaXyhHLY0nneDsiZM60PzrnZnEneyFBJh+bshz8q6fKKCbSWEUbr1zdH6PcjpDVoDPL3pGsQq99R2TrbkdmcKvmcc9lytZY47Z8ncPbX+mW50NeBqZ7FK2pvxWvOMnJ2c0AqmMGGMEO4YxpBkP3wD/+wM0GlBdVurEfyh5YMEoH2BYKBFgOtAoIW4QkBTfcDyoUwRWhzDoGK1g2Sw7gktghGCA6A7EHa0GDwm47gROgiJNFY8Vy0L//jf/wPp61hViACmrxBzP7qX/2rTogGLeSbqcetcTlm7BnEhrYCkELyjyDHfAcpoA4gNuQ3Hch7CLQ95aTdMf8h/NH2ofVDq8gz6AeQALROmFTfrJkuxE3fwz7EC5KJeZf6pQ0gaRBkykA7Uue0K7975Jf6J3A+BDRK3Acp+63f+i03cYHxWEwUAbiVYEULtMCQmEBYAfdTV4GcMSt5J+QsXSYCxIi+FLSy9Ac0grRLIJ2UL9wTygNpI7BPHUCS0biFDw3yBdHnwwmNNgSavsygf8gy2m3GWFKmNG6U9zuNnBUeCXbHwON5EahwtGY1q/SXzq7qD15s6/WNKS3mpiwSY6vyJmtROXQ0NV3Wh46UdE9pVc+d7+rEQqLlTskIz85UosAVe6B1ektVsEVL59c+9KDBC91I989H+sRDkdbr0nOvLuj19bxqfZ9HdEPOr5brHP7OaNhRQkr4fGvrow/O6eCctLhwQU+f6ulS3b5mLB237JHFdRxvgFAWtsxyfXNlG2iytiCdZnobgDaTcyG4tTMN7nhQljBj0l138aGnfqyh05DZMfsE6xHWJ/BL1HP+w1orl9S4+Kyi1Zd0sLCg8XLZ+aZjPFnS8i9qq8XyTXZsL7BzLUE6aNHseYlr51EeAXUTwPi/0tRhHb33AR2+94gRtcNaqJV1bs2uxXNGzsYsjlVyng8Aq1PINyTJbfnRYev3/Xg0tuTPCJntH5gt6dPvHdfkRFXfevF1vXrRvl67A0/bRDTwN9Qq+Q/w/QOM8uvO8T6Mojnk8h3Nz03q4/fH2l/u6quvb+jFMzW1jMijM6PsxXyk+bG+nri7p888XNGH9rVVNvKJIOGHlpBhe+Dz61/+y3/pNCYISwQxAT9WwPeFLY2yy0AfQPhBMH/913/dCUV8iP3jf/yP3SzTrYTCvUd2D4IeIQgZYRwPwjC414DA4ToE4ofgZdIAhA/TIWnxTiKA0fRgtmQfooOgRVgG7/n4ZENbwxgk8Fb7YnjHAc/nGPkCEUBDhBkSYglZJA8QOIgPZYBUMUaMLXnjPvJKnbGFDEBwIDqkzb1MXGDQPAP/IYGUOyBdl+l83QwhLlsCdUFeaS9cQkAQaQNII9fQiKJhg0hjHiSgKYXYQawgx+Q9BNqAeyHA1Df1jgsYZhxD0sg3bRvGyhH3t3/7t13/pz3/zt/5O26yQyDlIF3W7RDKRDkA2jvKwTg9JlPQHpSF/kRfojy8Z+QP0y51DaEjX6FNIMb0K8pEHumn5IlZppTlJ3/yJ92YOfpjOq/gZvm909gV5IzK5iWg0ehIr15c1x++UNdLq1Vd0bzzHYUwolPk8onGxov60F0FPTTV1InLPT13dl1LHRyHXkvOblQ8aMBbh//hSKcfKBU0rRoX9eH7SnrsYE8vnGnomdMNXWlHTsMX4MxvdBAjD7lUVjBVInjpqPOVjn740WkX7+VTF/XSRWm9O2bPMMFv97j6SwnuAGiR24bxVymEa9eDc49l8ATKPyMg7KfPpckZYBsIGm0L0PGE9GxnsE+57R6LAyEj7mj5pY6dS5RvG2FfOKX2wjOqtk9rX2HVkbNcYnH5um36r0P6j18gnTT8c8Ozjeq5bTqPabAyQKm6T3uOPqp99z6mw0dmjIx1dGIpMtI/aeRuwuJE6hk5c2ZF64uBnOFeIxAz705lRM66fbvH8jBdyemjj+zVvUfLOnPydT19sqPLjRlH5KwGhvUNPOHahlQPyKR7Dn1m0OahD3MOE/j01LieuLegYybfvne6ru+9vqRaMm7xPDmL7ZnTYz29/668PvtwWZ863FS5mFcx9g/s7GAAAHGTSURBVON6CBm2B+PMIDV8DDAWhzEsmN6CAHu31B0fw2hb0J4g6BF6f+Wv/BWnXUCI+f7lEfoh57gPbQXkBI0NWg40SWi+ICsIP+LwO5025/EOcC7UTxj/FpYqghhA0BDE5IV46Ty8FaTzzT6BvEEoEeQsRs5kDmYOQngQ7PyO0Jbkl7JwD/eHfIdjtGzkF/cejImjL6A5g0BQ7vC89L2Ac28GIX5Ii0A9QrRoAwgNbYD2EtJL2ZChIf+UN/1M7ueYa+QVMkr+GT/GihJoszhPnkkn3Q5oPzET4jaGdNFGMYs29P2Qv52CfJAO9U79YxbGJAlppn1oC8oafsNJm/yEwL2B5JEH8g2hph0wudKvIHfp8ZTp/L2ZvN4p7ApyRnCaMxcSnb5S05+8uKpnrsS60NuvzkBzRmPl8j2VK3k9flfViE9Ob1xq6LuvLWrRCVG/KG4aoXjbFfNG47WuxQ1esoHgRLDSmXL5rg7Mjekz7490uL+oP32ppWcWKuom9lWKC41tEFInbUy3HSMm49WS3mfl/MSBmk4vtvXNMz1dXEvUZjSbI10IcUiBdVx/+xCUzGrWHxjSJC19fjuMyNlgJ32vkapt69LOhfMQLcimP+eJEWQNEgeoI645j/kuvUDOPDFj67Sk9gKquajaxVfUv/KspvIrmqviu99KzHJV9nIGchZe5BDCD5NLb9DO4TjAqs6hF1UUj9kP0377wjr4qI7fO6cDBye0Uot0bjXS+XpRrWSgHTMClh+QMMgZbc55fjDoB/m8J2qkzcB/8lIp5vTYPXv0vgfGdPXSa/rOay2dq01abdhXYDDFW3mCO5jww7Epv44Qpn9g0OANdg3umkWdqFT1yPFIDx6zL9OzTT3/2mUt1iesdjF5EJMJJn3df6iiH32koM/eXdN4KVKpELkfOT/z1COVfAYDQgSTGH0L7Qo//hAN2mhz2+xehP7EO4PpB5MeoCxoKNKmrO3A/ZQfgorWAkEK0cPkxTHaDwQuBAItBu8FwhHhiUYNAQopQMOEIOW5aH2oR+LeijocvkOGkH/IBtoX2hOCCUmjLjgXykFcNDUQRvIIcWULMcPsB7mkH2yX9/DMt1OerfkmhPT4vaMM5BktGKZJykCbQpTJP23MbyT3oY2i7mkDSBikDI0v9c95ysj7H9Lf+mzOUy+kDyDS3Ee5uf5W2457KQvEkrKEcYEQfp5He1AWxsnBD4hPH2UsHGUKZnfKQnuQL445T9uBdL5CWd4N2FXkjI4EObuw1NCfnVjRty/kdLqzz4gKY2YiT85MAhVLOT16qKTHjhS1uNzUMycu6lxrwujMtR6Yb1S8tHDbEQYkbPs0TRAzpsdyUS309eDhSX34PfYjuHBRX365qbP1vWq37L5BGl70+XSG4tBIEDMNE2NHaG4Oz5T0xP1jurfa1HdPrek7FwrOMS4CPXiFBxCFtPYF9AYnAimzWnbbm4H4+VAxQZ0X0nDl9sQqDY5DcBhoAv25zeQsHdctWm/Xg1nTBUfSIFhGtrqJuivntX7xWZVXXtSeSkczVfsRcMsieFM4P0Bs6RtpchaCx2CKweCYl9M9i2KyHFPRvhanjqu052FF0/fYj++U7rl7TtNj01pr5nVioaOF9Y7VfcFpnuK81zIxvswtzG8tGLRnUdCi5WMlVq6eXY9ziR44Mq2PPjqj9upJffPVms6uW3/NGTnr07et1PjWG/QEn790nbMzuka4HjkrF8p68K6CEUHM4F099/IFe5bXKofy0z+P7y/phx8u6cfur7k6rRSMcjpyljJTDLYZPNJ9ivq+VWTiVuKafjXAqF/dHOk0eO8gYpiY0KrxPiJo2Qf0KTQ1CEo0TpAASE4gBFyjHm8nQv5pS2QOwh+S6ZUDbXdMmaiPkHcIGPlnS94JHN/KPkA+Q9rpOk+DY0gw5AVyQ74hbbQBbQMRJQ3yCqEhYPIk/xAYysf1G5Xhes8G4b4b3b9TkD7tAbmnPfgACIEyUh6uU+eUg/4TtvQpykV5ttOUvRtxx8kZCI1CA7BdWEv0tdeW9PWTiV7tHFKLtRPdotQI8Y4Kxbwe2F/QY0fLSho9PfPyGb1uAqiduz3kbHuQmOXSiMn+6YI+dF9RB+all1+5oG+dbGsp2WNkBA1XOg2ft3AG1xD89qPRKxS6evhQUe+/234A7GX79usremW5agIfUY5a17beBubSvIacDYgVsdPYzsy5FZAzV29byBkIZCtdr+xvOjYqEG5NkzOIGPDteGNy1jdi1u+01Fp8TbULz2iq+ZrzyzVejIzI2BeUkTP6S7PpST0/QtwXtuEZHn7fnbcq46UdkrPYvnrLc8pNH1M8c59UuUsTs+Paf2BO9921R+MTFdWaHV1a6ensclerNUvHCBXrV5JOp9szOo5m1/8YxEZu/A8DZlCjo/SZXsfI0IQ+9YFZlVun9M3XanqdtmRSBzNue0bpXR2MOmTI+7AMg76XN9IXkO6/TsBZHIThvQdjfd/DsZrrfT378jm9cXVcnZ43t4CikbPDs0V9xuL8xEMN7Z0oaMyKwL2REc+AVPIZDPQf6jn0Jdr5dhOL3YJhvzSE+mAb9kP9hADCPnUW6i1cuxMIZSCv/G4EsE8IeSReOt/uI+YO5j/kOyDUOyG0A9twDYS876b63w6hHNR/2A9lSO9vVw7aJWC3leutwJdsl8BXaF6F2JhxOa9ixIBw38n4y3Uah37H2oBNe58gapiNrOlcvOshNOy2wST2jkLqHsvNluBBHmcmizoya3muS5eXC2on5eHLsh24Ai2x18oENmn3NV4uuhmpJZPF51e7umofom2LiCbm3QZfXx7pfTCqT4+w38fMZ8SrV1tR3F5XxfqE8bJhTYcf1PBjtF0IcMeuhvkBprYJXtuF8+KoWFYuKinGGav1t3otr/OX+zpxuakrGw3tm4qNKJf03sOR7pqNrb8xrqatxEhrwuKbBtp91D+9ps49wwgTWt9a075w23LLj7HAP2Q6nUePkDeP4fXUR0H6HkeALQ+ufJw3Uo85uNGyD53EnmXvBUs6cd7FD/mzamh0utpoWDzWDHVXrwXJp8NfdIT6S7fB1uO/KKAuAtgPGgtMTmiX0GYETROaJwLXiIMQ5Z50GncCIQ/kh3yFQJ7RyARNXygLZeB6IDl3Kv/p54Z8kCfagDoOWsp0/inTbqv/7RDKQj5DWcg7IZSJEMpDmQnpMu3Gcr0V7Bpy5iqUNQup3Cjvx8Hk8QiGB7NEvZyfvUeWe92+Ey41EzL41ywZQUMDM9S+DH4wb0UI2HocMF0t6ugeaaIsXVq4rCvreTdeafuKphMR8HvGotk5JRYxjrvaN13UnolYraaRs6VEa20GqCIcGMfkbh7mATJwvYCmjDA83sm/QbmG6du5cH84H7YhgOEzUufDte32bxiMeLVbDfXryyp366rGfRXspXWzOCFu9pw0OQvY+mKmr20HZl5GLHYeV5Sz0LUXvZsvq9Ut68JSV29cbOrcYsvS6ene+YI+fO+YPnJ3WffPx5ou913fK0SWN+NAhDwL8Vs+nSbTqstpw/qxmp2ekSYZwYSc2Y87tTooq7Wqtb71e2t7n//QwEbsUh8FAWHfa9ro+z4QF+LVMhYP6SoV5D5cSJNWdK1vt0Ac252+aq2uldOe5tLxsBiDvQzXA/UZBPRfZFD+EN7tSJclHa537U4jnY/dkqfbgVDW7cL/a9ieM9xhxEbSqib0+OpnRA5ewdASuAZwZKOnpgm6BuTMSlAxqXg9UgbC9p3C1rTT6Y9bvvdNSlMmqKu5tmZtf2asYOQiNu55/Xy4dAb9qxrnLI1IkxWp3mjqap1VBSIneNOavDQ43HyKg1RwJGGHwXC98gVCkL6e3qYR7k3HCWRqtBg5tMEThhCXOEmSqF2vqdvcUCXfVjxwlAq2ErPtwk7g4hkjyhWY8l9WD39gaNGKsRUxr2Yzr4XlyLlree5cU6eNrMVGvu7bX9IT95T1xPG8HjvW09G5jpHyrpFH5s2a4B7+UAzKbYfNxIIxIVxZlAuYPn0+mQTgqJndA0HjKI3Rj491qE2v6+ZX16fl67FpxKzWtnfDjsfLBZUhg8M8ERdzLJo8I3FGdN24uTdRbxkyZMiQ4dZi15CzIIQAQpjp/eMl26I9G5g2AXEgJix2jRBCZhWYaebY2yjeUJswIBPbhkGcN4O0EEsLMzQruXxfiRGG5XVprSYdnJvWR+8p6sN3F/S+g7HumjbSVjEBnzdi0WfKM6LUUxMGwCPYcQg6OxHrAO7djIwtr9S1Xu+bAGWsEUIUcsJzKZc/DnkikGKa6IQAtp67abCspap+2zjhfMB210E4hpTRnmiOvLZzFIc2YTZrz0hDr91U0lpTLqmraISoGHsCQ3zGZ20lZyC9Dzadh7lYW+PfjLF//oLtRxXl4zElRsxwN4EvM3uQ09T2OmiYIl1ekV6+0Nc3X+/q6ZOJTl6VxS9r/2xVjx4u6kPHinr/gZ4OTXaMnFunNJLGDFHX9SxV2jUxMpQY4SzYh0cEa+K65SuUISD9HmwPS80RNR/Xg62vG9JrtZmNxnUjZ2NllWI/USWAp3Ws/taNLK52Cmr1/BhG905sA596hgwZMmS4XXhzzOQWIgglAkSLr/1qIadSlJjI7DqBiuAhywghxvvUWib6TKYUS7Ebp5ZLCWsv7yw9iuil5A0QxM/NQ0g3PGcIE7aVmIW4e3rlXFt//mpbbyyVlc+VdHS2pA8dL+j7HyjribsjPbhf2jveNaHZtdxhtjVhzgB4KyfO6PdPmeCfkNqNvhYWG0ZCTXj2vEB2z6TQg+CVcTTj1rAZm/J6E4Sype+52X46flpBGM6Ha/AiFul2o7IGERknxeQAF69rbWykqNdck5qXVVJdFQi43Zdj9qaRCkLH4vtB9KmHGbYee/j62Ex60MRFiosT6ubH1CuUlUSjmUuEfGQk0p4RC61lQauNvF653NdTb+DgtatnzksLaxVNlat6z6GyPmxE/NG7+pqbbCnOta0s9D8jZ7nRBAm0p05DZsdJYmWgrHRry/fm/KXzO2rPTXGsX7v+zS51NwgtSxdyRhdhfEaJcjhyhuNa3h8mu+bcupsLzbI2ksjVabg/gCdtztFfbIR+sV3IkCFDhncS10rxO4DwA4eGwY/lkJGznMaLsYo5EyomZdCA4VHfa7r8lz7jsTom2EqVshto7bQxrkjbFAuC5tKwTQgmh3wYCbadBDRTjmS432SEqpEH2xurxDq2t6jJCjP7OnrqZENferWr5853dGmt4zQYzDL95H0l/cBDVX30nlj37Ys1W+3aPTkVey1Nl2PtnY7EMLqr6y1d3SCjVjbLJ4PLCZRvs0bwxiDPN8LW8qXjb3fscf3npu9J53BTWlYOZiki/p2Js28ExghEDm1ax4hNY0VRZ8GZNK1acaFq8dNjzaz+XRv69DalncLWc9Saqzk7jQYqXywbOSt60ybbHC1JX0JT57V1AWjfGtbhljbaOr3Q0HNn2/r66z09dSav0/UJTc/O6PF75vThI9JdEx1VLd+0I2Z60LP7O4kRJMs3njMgSG7VqcR6btePpVQfEu6fv7n2yO8oL5tBGUfl7CZ91e3d6Np+bB8t5bijyOrV6/C8bzaej6l1jXfI8oFpE7h+xtYdZciQIUOGO4HRL/8dB1OvjejkuyY+Evvaz6vqzJqYZHpOMHo5a2LDBHvPBIojZ8yAK1ZUMSmIh3TgBsEjrB1ZQ9pwfK2W5e0gTQYQmnGUM5KV14fulj5+vKcPHIl0eE/Bub44caWtr7za0tdea+jli23V24kOTOX1wWNo04r61AMF57H9gX05PWD3zE9ItVZdS+t17+PtLUlKL9i3M+s6opsKW89fD1vrb5TGqC7C/vWCjzN4Dm061AgaKevi26ypbrtmzGFJpc4VlaOGilHXyJm1nxsftdmk6e/dnP7NQDxnxYvKbjJADs//hZLxImNT1pZ4/SeILaP0B/cEMIAegtXuSAurbX3vXEdfeKWrb53qaKVb1LH9Y3r07ikdmO4rMnLZsnI5OEJKsUNbeKAF7hpR7Q3Mi76vby1LaMsB0vuGdPnJW7NhaRo7i9E+x574jmDPsvub9g6ttXKqQxB5VTJkyJAhw67ASELcYXgtBbMavbYiMsFYLcb21d9VwSRaHuFkEgSZ5IIJIvxP8fWfNxJXKUUqDExGXE9sv2tCDzMjW+RWEGDXBoThzgJVhtYlBMZ/EZDlU1WZQJYOT7aMaHX0sfsr+tRDJb3vSEEHZ/LaaPX1vVMN/dlLELWmXr2c4EtVh2cL+oARtY/eV9bH75EjZ8u1mhbXmybYoSVvv5nS5Q1Inwvn/X4o7+CcCe6wD0L84fWwHwJtNTg3vEYd2QYt2fBcuJeJDhYc4WIJps6Gus0VI2RGzBgvFRuZoE2TxC3bxD3exO3vT2+vD0+IhvFyBes34+rHZac1Y1FyR9KYIOC0VgbIFPlz5fdtH7RXzsGs5aFsx4xjW1pp6ZtGvr/8Qk0XGmM6fHBejx/ran4yUTepG0FiHb7YnuEnO0CGmN/ABwkfD5hpGaRPW4dnuWe7MGoLtGuhPa4JmP+tkonfsHcDdxqx8c1SoaeY85g0CZY2WjWuozljZqfd7rRnVrsuZMiQIUOGO4ddQ85M7DhB5YSVgYHT1WLkfErFbszOgJghRUx8YgZqt7x7AgRQtWDkzAQfIAraB8yPQXAhcPy97yxc2iakye+EkTPjHjqzUNd3Tjb0yuWm2pYPTJ0fva/oyBqOZSfKkRbWevr2mba+/mpT3zzV0qV1S8vSqBSldruvpY1EG52cmgjmtygsr1feUCdvBeE+tgNegS7ThfS1NDjeHKAG1lZM4CBQxl7B2IGRsE7biNmSesmqkbO2YszV9pBwr/3xZlBjN5C9dPpvBn3rNH1HzipOa8ZEgE0mTJ5jSQ664yZwjoXXXWMb8p2OIvyeWXudvNTQd04nWmn0dXxPpEeOlHVgvK7pUmL92fsXqzUStZOcqzM0rjw3PDtoBLcrUzhObwk5qz9CHjMxhNKueW/nlk/jmWjOGAPnHAFT7/y1+K2gObN3qGM3ZaQsQ4YMGXYHdhE5M6E3EFKIF1xkMGNzwoQzpCviW98JF7JsX/4mXDqJkbOmCR2Ta+US2jbInRdyTnANzENDYWaX3ikBhCaHAAFEi1IqxhovSxsN6eQChKupPzvRdOau5y4kWqolmij19Z7DJX2MBdGPFnRs1k110MkrbT19uqlnLN7TZ5u2v6GTV/uqGVlJsE1ZxtPl2A7hejqkz98IW+8B154jD4PdFNL3gOulkQ6ja1Z6NxHA2t2IBZyt22laWLadukrWngXrCJBWzJlDgp1KK4QbwV8fEROHqGh8zNh0bIwpNnI20Nzu5JXw/dT3w7aRRPoBThDJf6vV14XFjl4+uaBaO9LdB8d0396O5se7GrPH1I3A4ZCWCR45FZyml8kOeLoLHyf0UxcsfWdCtfwTKEW45uoixAvnLHjkjPzJnmN/DGXMwjk/no9MetKJ/z3ImbRuHzkdZ3K9eT/LkCFDhgy3HruSnIVQjNEk9VV2/qO8GSn4M0PMYhJcaxfUMplaLJbdwGsveAKF2x4ItiDog8nozQYQtoh0JiRUTfjixX+t2dN6LafltZxOX27puydb+tKLLX3jVE8nFk0odos6NFvV+49U9PhdZT16sKBZKyeawNMLLZ04m+jsYkWr9dg5sB1Y8BzSz06H7bD1/Na42927+Zyvxa3xrrkHoT4Q7AFhP9y76R5YhAXK5cyTEAajqfl+S/32hvqtFcW2X8AfmBE0N85soFEivrvnTWEUP5CcqFBUPzZyFuHjrGTcLDaCA1WiNT3LcaTH9r0vskGPMhLjr/tznjyhyfVlheA16m29ejHR9y5PWBpl3btvXMf35jVW6Bphqqvetj6cK7i0Act19QdqQJ4JggbNIWgYLbAslw+uCocfB2zdWp9csyIkUU9rGz2nPZscLzmzKu9Fui0Yd2dZNYLGahuM9OQty5AhQ4YMdxrX4y93DGlyhtakEvecx3ynFQvuFpxwyavTzTuzjH38G4kru0kEQfCM0klrRLYLBgTuTsIQJsRMeDIwPQ8h5Dkm2nCDgcBrdbhm+TVJyxipRiOnS6t5PX+hqz9/raM/fr6tb7zW09klSF1Ojx4t66efqOhDx3oqFxCoiYVY3U7RnlsYPh8ClN7eKKTjBPJ0vevD8BYQ6jtsAftwjQHfGILzm4LlgUHw/rijblJTr72qQnvZOfCt5L1rC4hPYmlB0NKTAa4X0hgeD8kNRMjKztIS+DjLV9XLl4yUxBbJ8jIgYpv7jO9PwK/14Osr9DEAqWKmcWT3Y3JfaRf1wkJfV+s5HTu0T4/fHWl+rKmFta5Wm9DFguXFa4AZF2n/7RwE15PckDZphgkKNFnod4lVSrvLmEUIq39+KHmOZc8g+1ZpHau7yYmS00I7H29dixjqwq617OWpNXOqdy0/7vk+FVeXbFMhQ4YMGTLcHrw1iXwL4ISLBUbWo8VAOBainCoMZvYDfOzcSPh6wS41Wl0T6tKYyVp8oznBM7juQhDO7wRSJMYTBJ8vTLBxvufcJrB+YqPLUkyQDv98CFtigo+B18vriV6/3NK3Ttb1uZda+tJrLZ1ajTQ3XdHsmDfNYuIqGFeA7JEuZbpZOZwwTYX0ua3Y7pxDqnwBIY10CKAOQPpc2B/GZVxWahJA+nqOwDgpQ6/fVidpqtNcVbG7pmq+rRIzdwf3QswcCaHdjVQEpNNM43rnITz9iNmZZdRntl+0ljHSwqvAouXsW9/rQ9YgahA5VyfUjeugFgfiRlqe+LtB/G6f6x48u17f0JmFmvqlWd27t2JlW9erCwWttkvOlQXlIJ4jYdbHnV81HBRbeweNGAQMh8sQLQKzf9GO8Sj6R6nUV9X6DX1vopTT/HhOh2cKOjoT6+C0EcIJO1/Jq4QfQKsOchjySfs1On2tt/raMELJuDOwXb1lyJAhQ4bbBy8ZdwW8AETYOQ0Ei9Fi1jRyVopMVKI5sxAIAUC4tdtdZ7opmywtFxBaSCCCJzXXQxDeBNJ8s8ELMGbBoU2BUNnW/uAYt9ZOmbv6CO+cE6rch3f8CmPfjZSsNHJq4PfKEjm/Ip280tFyPccweKsKSKpdM4Iwyi9kzxMEQjhOnxtd217Abj3v090aQrr+2KcZ4rK1MPC94K9vn06oJwIphKYZnncE204wC9dISLuxpl572TmerUZ402caodeUEZz5ruu1pyCksxXXnrOnO7Js91p94s/MraWJSdP2mbmJfzNI19DNRahT7vNcZhPSRGx7oAFt6+SFtt64mtO5jcj5Rqt1SpaeEcMBXN+wOsDfWaudcw6HO4mds77dpY4gbtYXeBeYucr7MFXOOyK/fyqv43N5Pbg31v3zOb3/UEGfuK+gH3q4ok/dX9Bjd0W6e94+XEoFrznLe2e/TBwg4MYEdyAb9tyabcmHUT+XqwwZMmTIcOeAJNo1QOAFoYc4Z5mbshEZFpZGo5AG8RDCLWcCZH1Nv8Ymwv9WA9HF84PJif0Y66OdX2sYOet4zRlwhMKkO0Qy6fScuwQIAou63ztf1EfurerYjPTSiWW9cLKlc4uWRj3Ser2rjYZ3uQDJ4540rkdKQtiKree3i3ez44DrxUtv02HruSGMLFnhbGt15GZpGkNtrrq6od3RUTGIvQchMyK21aTpkkilG86BrcebACmLq859BrM0+3lj1fZRYCccQUMLxr7LAftv4jWByBEww9aSni6tdfXUy039r++09aXX8rq8Hlkf8OZaH6ynW/IE+jljLFk0f4+Rr4PTed27J69HD+b1oeNFvf9wpA/fXdYPPljUTzxa1F/6QEk/9f6ifvzRSL/0kXH9+HsL+uBdsZE2n+PF9a4uLqNhK6lULNiHhL0ozHy25wKIMX1ynTGSdgmnuMyEdbNh2bpYGTJkyJDhdmPnUuc2IZAeTIVFIz720e8G20d5zJo+TlrodtoMpCcOpk3GqXlNFgjxgqBOh+ud31mwjKBpGSz3w5I8mJUYtbTRaGvDyBkamJ5FQzthfMLdA8HCxW6zX9D4eFH3H4p0eNaE+GpPL1/o6OxKWbVW5LRpaNaceY1nQRIsy+k8pHGjc1uvbT0OuF6csJ8+DkjvB3Au+DILYD8dnDkzHCux+jFi1l43YraoQndNRZbsGpiog9bMByOr/cTqcTNB2znQglmbFSrWWGUjZb4NIWZosKwlXRw74bdbTLw7hWsyQ9522p28Tl6u6Vsnmzq7ZmRQjG+zfNg1yNhMOafDkLD5vB45EOmxw7E+endJ328E7IcfLuqzj6AJK+kH7ov0049V9EMPxc7B8cFpTODSar2nk4tdPfl6W3/6Yke/9Z2m/vuTdf2Pb7X0u88k+srzjEuLneYsiptWMivpwExLHnh/WCR9rWPVbx8OmN+9njNDhgwZMtwp7JpfYUSj2zptgg84osVcWYxxpUFm/fk0ut2emk0jZCanS8VIMTuYr24kuDFVOeZkxX9LApicRM706ga+21HRJCUpNds9N8MyCL9AIgix08z0VCkVddf+so7ssfiW99fPLWlhre8GZaNlS9eB0wRuITsBId3tQW42h0D00sch+ONRelvTvvY4bDfHT8fbem4UaB9vPuNYjpzVlGutqNRjRQCIi2/ncE8gaHbn8Jy7d4Cwv/X8VuTysfNt1s8zW9MTM6+6Gpg0rc+Fu90gfDvCvEh4MyAPtB2L8veSjmLL+/xE1UhVSQ/tLzqT4xPHC/rYvbE+/UBRP/pIST/xHiNiRso+cnekR91C+XlNGJ/D5HlxtasTl7r69umuvnCirT95oaU/fL6tP3uprW+82tGLl3o6t9LThpEtNxPU2hSN2JX1ttpd65+VouICZXB6Xx+s76M9wxS/agStZcfMm/X9wWMQ04UMGTJkyHB7kDMh8uakzi2CExt9L6wZq5O0u1pv1HVm4aL+7PVY37w4qYu1spo9tA9GhHImWE2wlIqJ3nt8Qt9/j3T6Qk1febWhKxt9EzQVl+5WMpcGz7q2+BCXGwOhnTdiFuMg18RZyZ7x+PGSPnAs1pMvbejZ03Xn4qObMwJgJJCxcgjFeGDOvO+uSX3g7rwmc6t69XxHr19MdHY1VqdfdmQgnYeQP0fSUtiu2XZ6Dmw974/9WCO0WgHh/PD5A62VPx6RJAILmLOluJ58EWVAlLHrWmDfrZ/pztk9SVe95oLqV15WYfE7ms1f0b6pvIqQmlZHbbsO4e22O2q0W0PTZghuvJql5dLjcYN9dy0FN0vTzudKU8pPH3VB4weVr86rX5hStzChvJG2sFKAjLx1aQZn1rR0rb9BWnJOP2qnce8Cl7PA2MA4jlSKYst3X9Vqzz4qIlUsnemxkiZLOY2XO7ZfUNniouWN8tBMC3YMmW8aqeqppHYrMbLU1Wo90gom8haueKWGlQfzPRq+drvul2fqFTU/V9SxAxUdmWzZB0rd5a2eVHRxsalLK30jd139yPft0bmrDX3jxFVdvlpULz9t9YN50z4YCnkd3tPV9z82rp94QDpeaati/blo+adcGTJkyJDh9mNX/foGIoVZk/1C3gReXFDVBF45avq1M9EiuYHkCOKcCeucmvblj3+xkkm9StQx4e9JwvVBsa8Xrg+UbU7hZmnjOLRo57qdxLliKNizc9221mptNTomwNHA9DtWqLYjBtzXTZo6Ol/WE0fzmjaOeebKul67tKGrTRPAfe/KYJiHoNULwc5T3hBG+R2d33xuRFjS2Hp+u+OA9H5AiE8IBCnsh/jpbfo8SO8z/imf66jfWTOCtqyoW3OLnDuHrtxr9AVOBwGDxLmxUAaubQ1bz18LXy9561NxsaAIrZm1Wy4aV1SadcSMsWc8s2N/CQFei9lXZESmUrK2G4u0ZyKvQzN5Hd8nvedwXh+0Nv34fbE+81DZa8HeW9ZPfqCizz4S62P35fWeI3nNj/vxZRuNni4s9/TipURPvtHVF1/t6vMnuvrj5xv6w+ca+r/P1/Ullvda7LoZlFNj0tGZrh4+HOuRg0XdOxdrqsSqFH3tn4z06LGchaLmxrwWeXm9q2XjabUm7jbkljgrl8tuFQ1M8On6gew2LELD7sNxbc/KOqxD6nu7qsyQIUOGDLcUSKxdAahFgCNpJnhMVqpiAnG8FKlqpCtOjTUKgbUGGy1MiTiiLapa9Aun+zFfmwnNKIzufytAUKMNy/eNNBg5syN7tsmxXkc1vK2zWLk9Bw2U8y3Vj502ac6E7HuPl3XXjHR1qaYXzsdarJfU6sWOcA7zld5PhTS2O7/5XJqojcq+9dy2x5ZnZ/YdIKR5LQEjjs9rQIgbwtZzIJA6mFev21Cvta6os6pyrmUk3EgQ5kXLA+4mBvolq9PEtmjcUubQN4kuJs2SkbCSNUSxrCTCaatdiO2PkWlMeomVm+7HepTjFdrMCNBMTvfMx3p0f0GP31XQR+6O9YP3l5wJ8rMPl/Vjj5b1mQdK+tCxsu7ZW9BcNbIyxG7m7SsLHX3nbFtfONE00tXUHzzb0x89L/3pC9JXXs3p2Qs5Xa0ZSewbeTLCyGzedrNjZKnntG7vv7ukT95f0cfu6unjdxkBPB7rEw+O6313lTVf7SnqNRzhu7qR14tnc/ryq7G+fTKnU4uMXbT0ooIzixaLeY0Vjf7nMQ1DPD35hPyylFQNcmbfEjSLu2bv2hBUdTpkyJAhQ4ZbiugfGgb7dxzhdx/Bi/Dmq77TbunKRleXV9u6YkKs1S3Lz1w0CWo3GDUwQpbTEROeRSNzS8vLFk9qyQQwaUE8LBbxrgunmfJEY9vgbXjDMxFaPSONRjfUbLdVqY7pocM5jfdqev5MW0utihN9+X7Bbo3EUJ9q3NP33Teu+w5HWl5u6NmTqzq9WlHSL6lrcTo9k6AuH8BucERphHC0HSnZ6bmArddGx4NtOB5qWSxsOUd+0vex7w8HdW0kw8fxRMrtD8jdsC2MaCWdDfXXTqpQP62pXE2T5bziyC9blRg7I7Q7Rs2sfob3O42O1bBjEr5mRnnZvB9AdXbRyFamFFX3KirtsedMq1Ipaapa1kS5qD0TsQ7OFnRsLta9e2PdtzeybaQHD8R60IjZfftiHZmNtWfMPhaY6GmMG1cp9XZOl9d7OrcmvXKlp+fOdfXCxZ5evCC9caWls6s9XVrtO23Z5fW8lqw/t5O8Pa+iBw5N6JH90oN78npovqR903nrxz3rV3Z9qqQHDpfcxJjzF5f14vmOlozwTY4XND1VdRpH6mVyalz2Cmh9o2ZljzU1hvPmvtVb1/nJOzhXVbmc0/LKqhbXGVuG2xCrR7uH9mGc5p6psh7cK+01MlrsJ1Y2JubYC0WkrdjmVIYMGTJkeOcQ2MCuwtC8aVKgEMUaN0E4xioBTmuClmdABlz282q2umoYt2EY2rgJpUL6q/8dBemifSAfJuwxAxmhYmZhoYCrDCMR3Y4jAri/oBzMT2BNzUeOTeq9dxfUrnf17TfWdOpq3wiZEbNcwfmX8sTs2nwPy2qXCC7xQdju3DBcB1uJS/p4+KxUCOcD0vsgHQ/cbD+9RSfW7TScC41id10lYxgRWizqw4iX17Axm9OIupXJqJm7F2xND7g0U8dbgbm0UikbuRnT/HRVR/dVjFRX9ciRoh47XtAn7i/rB+637b0FffBorEcO9HX3vkgz4/Zsy9bihnRuqa/XrnT19JmOvvpqV597MdHvP5PoT09EeupUT0+f7ui7Z2REzLuBOW6E632HIn3oWEUfODau+QkmtzQ0a2ToseMTes+h2Mh+WwsrG7pixGnf7IQePjKm/dN9xf2mkVP74KhLz51p6MlXW/rqyw0jfka67J04OJPYvR37gJEOTff0/qM9ferBRB+9P6eHDnQ1XbU+xtjNuqVlPAtHzcUI8/BA+2gEjJmjmDNZExYHyvDdUI83qssMGTJkyHDrsGvJGePOCHFcdP7LxgodN15mK9A6sVwS7gD4oq+Y0MJprXNGa4QnLWi2BhC2NwTEyZEnH2I0MDKhOCBTJRN8RRPErU7T0jPBx4B3+JGRxEKhq8P7pEfvszvt9tfOL+i1RROYScXSiIxcmYDkFpcnI1xsU2bNdxJb00sfb/esG+XheufB1muYdCFczsxru8Prxm57rZpy7Q2V+203CJ2JHq4erE48KfPOZ9Np3ujZ10fPmceP7hnTg0Z+3nOsqEfvjvXg0bzuP4xLk4KqxdhptC6t9fT8hba+9npHn2Mc2PNt/eFzLf3xix190cjRd8509eqitaWRtFct3sJqorHxcR2dK2hfpaGpSqT3HCnr0w9K7z9iz5xCM2YE8OiEHtjX02y1qxkjhwf2UAWJnj/d0JdfrutzLzd1blWanJzU4fmiikbikhbvg2WfVTKsr6/Vczq1lNOGEaqJMmMr8fIv94HAu7C4kdOZK4nOr+a11oxU70RatXNU2XjZPnbs44WxftSh63tGePFvVm90VW92bd/X71ur4wwZMmTI8E4AWblrAJ8KAfrjNE+RETP74p8wclZkhpxd5DzCw41bMiBcNgaTAqolZvrhsapn6XQdMXDkYBtsJ4BuKJgGJC2Xt7xZ2o5U5SJHzIw/ulmmmGIBRk+W49m/b0KPPjKmqQkT5mcX9dqFmhGzWEm+6LQUrMHpi3Hzpgh5S+dx67kbhZ1gZ/G8SYytDx6UIJSCBcZdsOvu+S4+8G3m2rifeP9mnbqKRqhLhYIR2NiTMgvUy4i4+udsnRSQ3k+f84DUhXFqRvajCRVKc8rHU6r3xnTeHv2CkatvvFrXF17uGgFr63ef8UTsi6909M3TXT1zoaPXFjq6sNLXUq3r2nffVFEPHSzpnvmSfTREmiz1nXnygf0F7SnVNTuR17FDU5qp9vXMmaZ+9ztNfeHFts6s5FUtdzU7VdL0eE4l69frG8taWk60Us/rSiPRmWXrQ7G0dzpSoVd3Gi2KNFnBXQsrUhTUbHtCj8PanvX9ZSOHaNdOXo31zTciPflqohOXIm0wY1gFrbuVB1gpIFaZBdC1ecIM7jQYt9nADYyly3qdw+ub6jNDhgwZMtwO7CpyhjB1g+2HwWvQcEswViiqzNqDJm4CnNwwqY8PKnw1MRSthP0GW1CCjWaz0N4aAtL7AdeLS55ylgUWt4Y84I+LgePGIVW3PHR7tmMELq9Yc+MlPXpcOmjXl06e05MvruvUxpwJ+JL6rJNoEjYQTIehhm6E8HyjKlZU23fBzltwxGewf02wmnLVkwqb4evapeLIyygfmPAIrqyehVmaPJ84m1MKbZQG9+KGIrH021bGljNNEox4WOj3Wsq1V9Rfv6Ti+hlVmQhQLiuOcerr06deGLrepbJ5NsPY7Zyri3SdbQLnRyHdblRKtzSlN5Zz+u7ZRN95I9EzJwt67kxZL5wv6uRiTxdXurqy0XMrNLQaRXVaReU71nitsnKdyLLBhAHvSPjI/ll97NG79OBcT/fPJTo8nWh1vakLC3VFxbwq5b6Wl87o3JkrurIS69nzHX3x+RV9+0xVi+sltY1MObN4VFHdOm7Tytgwcn/ZiJp1IzcWrtVrasG6sXErjVexSSaKCm3NWWezI7VyVXtWRZ1O1wJxxoz4Scf3Su85mtO9B6W5aetnVg00Y9W+IqpxwSnhqMKwNmi/V1Cr1deiEcF1Y4Y4onWrUqTrL0OGDBky3DZslqp3GIEIALePhirKD2Zh4laD2Y9NE7TdoenPCXG+/BsQASNJxZIKzAwIQhoBQwiMIxXcjMQtZOiGgJxYSHomwFi82hgIy+JMsYa2PaLWyKnd5dnSZDl2M+0eNkG5uMQ4JBP6rZIRs4I9N3LCsWtSc5gHCyGr2wdP0tIBXHueerE03bWtIdTXKHAOeK/+gaSF4O8JaTotX9e2Rio6TNawHbZtI8MQZMbOJZYmg/lJGz+yZSNcxbDCg1Es1uR0xjQjbe3aogqty6rkGm5h7pj2HjzTWtilQb4IaD/hbZz3oL58ObfCnaVclKffcX2pH8VukfOO1bNxGWsnFvqGhGAORM/q08UXXWT/crbN92POuJfEsuJC28jL5aW6riw3jUBJjz9g7XyspFLrqlbX6mp0jWTmCtZ1WR8zZ8+wHDPBwdJcN/JzdR0TouXH8sDi9hPVvJtcUGIdWVYrsIegfIXwQpCaidf+MmlhrJzTVKWjw7MdO5Y2Wjktrba0vt5Rt9XVwwcK+suPl/TLH53UT73fPgyOxKpGLTWsfaiOcciZBfqqM2lSZCunNafzJbdaT2T/jRB7lyIZMmTIkOHOYFeRswCEK8LNmQZNSBVMcFdKkTPj5NG8IGkGMBHuxiVtNBO1OnhkLxiZM4E6GFdzM4Q4noRs3t8aHIFypI5B1HbO9kuWP3yWQckaTZOqJlzHCj29766CHjliwnx9RS+fuapX14qq99F3bIZL9y3iRvfuJF3iXEPSrN5DGFE04rpW8QcGrtM2zFxlDB5b+++EukvXqgLNIISPMf4Mjp8ck2bHE+2f6Wv/dFuV/qLiBBcaDZXziXPvms5PCE4DmnI2685tg23PD87l44LxcQiaZQQP+miMICGoW30MVyYQyr8VkM+GMbuF9a6efn1Nr5xb0tFjE/rAQ9OKW2d15sKqlhpj2qjHbpB+oVCyvuzJulWRWJZqfgJClrO+0tSapTNWqWpuBuNj2+KWNTtRMKJGX0rcMl7OHGnd5qGDY/qJ903pJz84pfsOd3Xhat2NfTu/2telWl9feaWhP3mprT96oaP/+e26fuOphv7shYZeu5rTWt3ybfmhTDj3Rbm8tR5b1p9XLZ26xTMOfs31DBkyZMhw+7AryRkIApKAuatcKpqA7ynKm7QaUgYvRCAC9VbXCTI895fKsRNA6EPeKQRh5Z4HgQialqiviYpdt0fV211EvI6YBP6++0wY2/UXL2zojSuJ1px7jdKA3A2CS2K0vR1Ik46wPyqXCWY3Bm4zQQpI3wu4FMiY0w1Z29BGk1VcM/R0aCanu/fm9cjhnD5wd6QnHoz0sYdjfcrCo0fqmi8vq9RfN/Jt7WwNhhmT56J56ycWIGRo2pyKJ5VPy4Zdddt0/tJI57WHS4iorHyhaiSp7LRozomeay1v2tsO+LILZlYP1jxlOaW+ljcSnb5Y03pjUtXxCY1V24qijiNhrWbbmRkn7fy4dY5ev2XlaLmVDz54PNKxg3kjecs6d7HptGcfPBbp+x+I9OkHSnrf0aJi60wXlpq6Uivq8ir70lq7aOUtaq2T1zPn6vrzl1b14sWcrjSLurja0XfPt/Xnrzb05KmOXrnU09W1REWr17tmC3pwX1cHxqW5ya7mpsgXZNkKYh8wvp742OgaOfMTa5x/uevUa4YMGTJkuPXYVX7OTNR6YTEQDAwK75pghjCs2if960tdXViTms6HWcEEOfG8AC0Ucto3U9RsJdGVta4WNxDyCPx4QKNMFg22W5EW5EHYbxX6Ps4gnu3zbCYGzE3k9fBdOA+VTp9fVK5Q0kP3TenYPDMzL+vbZ9u6ulG0vFieLQ6pEjbJfIN/Hlw5PGdLhE0Y5fdahGvX3h+uUJZUkR3ID2PKOM91FGUspwUZQWMEcbOzRj76TrODJmy8lNNkKa+pcl/7pxIdnc3r7vmcHthndXIgp/v24bw1ryNzOc1P9jQ9zrJG9qCkoaXL53Th1EvK11c0bolVYCkGfJq1nbk0GRI0CBt9Ag2px+ibwuXbrvn6G5XZl4FjKwjLMpXHFY3tVa80LZVmjKgZQ4nLllTBkTU3/op/OTRoMPugSfPnrLUtvbzT6DIzkpWNDll/e/AAs24xnVo6+ViNZkvrRqQOTMU6NJ1TNyqp22kZgc/rwcMTumdPX+vNRGeXm9qo91S1fM3Ztf2TJUuvYBS3ozOLNb18tqWLa5GRsaozN543AvbqQlevL3R06mriTJrFuOBmhu6ZzGt+LKe94/ZhMJ23Oo/00IGC3nuIFQWsPQ50tW/S2tMI4tmrXeuPObWtgfNW9gTTrVWT5VQz9pFxz4GSDo8byY56Klq9uPGErh5S2HKYIUOGDBneWeyatTU9vPANzkadoG63tdE0gbSwpv/zYl1Pns5pobXfBHXFEySTLFGuq/GJgh67b0zvnW/q+XMtPWvCbXUjdk5eQwG3ypTrFfz6VYKg9qFjz0Zw3b8/0o89DlGUnn/9gvNTdcSE8PkrNX37pct6Y6WqDoPKyUcq3a0zSK995qAuhufT131Jts+nJy5+/NhmUFfc4+8LRMfOD4Xv4JkmqAHmyBgyZsyzUpRbRsutE1nqa8KOcU3BtUIhcSY7NGBo0Dq9riPWG62ec8/QbhkhqRtpaXVUryVaWbyspfPfU+3cs9qbX9HU2JiqpaKR8K6azaZbQ5N2Z/WFnp1LksRp04JLDT8GzpfDj5ULYVRmN2bLkTojeOUp5cf3qDD3gHrl/Zbxg46gqTCmvhG0fr6sHATNcu9JGkTLkzN0gtQp/sAYm8W5ghHJ6UpOTzwwrccOtHVqsanC9D5NV1s6c2nF+kFes5MFPXJsXONjkdbXV60cRkDHJqw+avruuY5evthW0ulrfnpSB6zv7rGQV0sLtY4uGxFb4eMiX1GhVLK67xpZsjrOJRovxposFzVZgdAauSu2NDUeu/YpM26PrwQD49UwvbesDlvtRM1erOX1xN6Nri6t5tRKKJOVU378Y9TvODL9M0+M6wfubmm+0tFEoTiYpGEdYdhHDKndDBkyZMjwzmNXkjOTsk6wdkwoI6RrrUTnl2r6vy/W9PWTPZ3d2GeCskI0i2ti00J1rKhHj5X0+OGW3ljq69lTNV1eQh9gxOg6GBV8JG12Uh1e8HcV2fbhIyX9zIcj53cK1wwPmdxfvtrW7317QWcXIyW9qiVqAm5YtMGz+iPtz/DiNfBkxCOdL58Gpr2AEdm7OTmDBHEdoYurEgJlMtmuqaoRgEJHk8VIU0ZAZqt9zVgR2K/GJsTt0ZA33C3gvd8Prs9pxUjVpZWmrtb7Wmt0tNY0YtYxgtHqyviDkYS26t2OYnt2ffW8WgtPabx5WgeidU2MV5WPIyOxHbVaLRc6rbb6RizIK32hmXQciSD/5NsRL8p0A3I2PA85m9inaPYe9avWQNUDylem1Y3HLV5ZvXxBLHbuiJkjZ5EjZ8bYHClz5MzqlxmoXCsX8jowE+ujj+zRZPKGvviS1cfEQ/row0XNjUvffeacXj5fU27igB45JO2bIONFXbFO8srlmhbWrA7aPNP6UC5vxKigyWpFxbinUpyobOcrxaLGrcInJiJnjpyp0C64lClpPC4aEZObhVmzeqpZ5lYbfS3Xe1phW+u5tTXX6kzWsLqyjFMPVlgjfThspv9YsPsYo8k13pQjk5F+/PGqfvyRug5aOaaMhGbkLEOGDBluP3YZOfMgSwhfBDPkrNlu6dJyQ3/80rq+8npPJ9f3GjkbsziWdWfqMqFWKriFoT98T6TL611999UrOnc1r25uciBYri9RdlIF6TgIfjvj/Kk9frysn3l/TpXYyEejoVpnTF9//oq+eqqgpVbkZpoi7sP4qBAciUoTNMMmbdqAsLFousfo4jCdQZpUQzjvBam/HkynmH3xD1fEHGkMjHwzJo/ZrxMs5F3Ja3Y8r8lyTwcnChpjcH6e8X0ul6RgRNnIFjP6aomWan0t2na51tU6JCzJa2GxZq1gZBTih+ZsQKrwB4dzWfyZRb2mW3JoY/F19VZe1nT/qvYXG6qUi/YgfHG1HTFrN5pK2h3lun78GWm5voCNdYA0KQN+fzM5Y61M6iM3NqNo6oiS6r1G0o4oGptWvjhlfGnCEjJyYsEtL5FnkgD9xCrHiBke9NGcQdDceWsvyFsp7ug9x8q6/94DOn/htF4+0zUyOq6je2JNTRV0dX1VF64aCepOOhKF770YVmtwRbCGpgsxJoylx9DCTY0ZGS5Lh6diTVs7sLZn0cUzOmhtB4Gud1qu/leNeOEXbaWZt/rvq2ah3iLIOZ1tJgW1jIBBnOkj1EHenh/Gz4UPBPqN6y8GyNm+iViffriin3qkqXv25DRnecvIWYYMGTLcfuxKcgbS5IywsFbTF05s6MuvtHVida+aPSNnzJ6EnBmBQYjcuy/WRx8ouRl1L7x6Xq9fjtXoj9t1k5ADmrEZXtjvtAqCpgpBaQeWx0Q/8OiE/n+fMAFsAvXkhav60+elb5+KdbFmhMQYGUIZ9wzbkrMtyPdS51LkzMe/No92ZZh3BC9kCgJWKkaKHTXpa9wELGPDCBPlvAUjkiV8XuWHprD0ygv1BmSY9SyZ4cf4qJ4LG0YIGCu1YdeaRgSoY1xF0EbkgTTQYDpSZiSp3/XLLqFlK5pgRwuWs2tJ7aw2Fl7UeP2EpqNVtxg82htMlq6tjZi1my0jcx1n3saRLRo60sVcGnAzcgahoAYUFRVPH7Bwl5LyXUbUDqpQnXHErOc0Z0UjMLHVswXaBEJm7cWW1QpwiusBSaMRWW6pq/2zRU1Mj+vy8pJqDUyDZZWtTjHvxsW2tTmrHZRdu2BqpP4ZH4YGctzI8ES1YG2BI1kjX67Zoba0WNfqv211n1OjlddaQ0b88m6MWb2VGEE2EtbJWVtAxIyAWt2wvqdzB+K6TKoP0b+tHOTBkdTBJfdNMyBojnTiP9Dqf74a6aP3VPTTj3b1yIGc9pa7GTnLkCFDhjuAXU3OCMHUtbTe0J+/tqYvvNjUc6v71OgyCy5yQhniwyLNR/fk9dEHy245pROvntbzlyKtJ2MmS4yFbEvOPLargqBRCAjPYYvQRgXCjLcf+eCY/r+PSStGWj733XN68tWcLtVnnakPgYfgdUIXoW/3hhDy4/c9hpozBG3ekzNHwVwcE7BOk4L5sWdl9Gs3su4oRKtqpGvctpAAk/saLzM+DO2exad+TEAzDokZpcxq7SQm/NvMAuxrpc7sw65Wm10jBF3vf82eyYw91l2EGKHx6dofR7gGeYbTMVSePOJ4w5lKTfK7OEakIK+QTEgbCeSN0DWuvqTWlWe1t3tSs4W2JiYss1Y3rcSPL+wYMYOcufFmgz7AhBBH+mw/gDyE4I89SXT7g7qGHOcKVUXThx0565SOKj9xQMXylHKlCfWjcWfOZDZnF3Jmt3Mv+XEE3IgZ/cBq3RM2R2iMzFobsA7oRDnWWNHq2OKVjRWP2blKsaexUqK58VjOLYZ1ALSUru2slkgvsfatGfnaMJK71uo5Arba6LpjPPU3jXzRPi1MxxBgpwWzehiQdz4S3Lg7qw5cmACv8fPY2ncdKNcAlAWeS1khbm4iiPWp2UqsD90VGznL6QNHYu2vGMnMyFmGDBky3Ha8K8gZQnu13tJTr63q8y/U9J3ledW6VXQyKYGd08GpSE88VHEz0954/aSePhdpqW3krF+269uTs+sVf6uAI94wrglco4WaLHb0I09M6RPHpWdPb+gPvresSysFNXvjTo4jjB05GQhlMErH05qQJlvKQjxmBJI+Qt2ZIk3oYx4rGRFwGhgrDlqw6WpOs2OepDHZEQ0d97cSCFhPLSOMuEZA88VYJJygQgBanb4nZ0aWIF+MS+oMCJADwjqtmUrtu4BOymUbwhGIme0bW3DtMdg6wmRx85ZuZNeTRl2Ny99WbuUFHcpf0VS15zzhMwsTk2bSajtiRpsTyI97vmUrkDN3zJOv2RqBdDU6aju8h+WNhEUzdyk3eZeSymHlq/tUKE8qKjIZoGrt5E2aziu+ha7dS+1DwApGdjGXM7awVGC5pcjaIXJkeGo80p5xaa7a1ViBwfmMRfPt0O12jICxdFLRacA2jPBCwIZayI59NEDMbL9p5Jj1PCG/yaAsrm/YfigbZB24vhGi0KsG5bwWlMXfYzXmtvRHzpFmuA8NIGbTctyx0NJMOdIHj03oBx8q6ZED0qFqRs4yZMiQ4U5gV5MzshbIGZMCvvv6kj733JqeurpPKwnkDMHuCUXfyMWe8Zwef2BC9+6TLp4+qydP93SlbgK4z6SAnZOzILzCljjpeGgc0EZNVLr64EMTOjohPX9ySc9d6Fg+MSiWvBstE6qWLatkr0EjPYRlsM4FbQozIitxT9WU+RGt15jThPU1Y0SAmZCYxxh/xD2k0zWJy8D8upEtnIeuGwGDjGF6ZJ1EzJOYJpsJBMDiJnaXkQBmmjJInHFkFIuykTevXLG8ok0ZaKJcuR0583WBNmx4HhLHvRbX0QGXFioZ33b+hsT+t4zuGGFcv6ruha+pXHtFB8p1IzgFFUrFoXbUac4gaLZNEjRno36AW42bkbO06di1XYTdcFrx7HH1J9Cc7TNyNq8YwlYycpYvWTsam8rHRtjQfhXc+LAKwYgYHvnHK7GmjECOVfOOJLM8WBxZcDZC6rNjJNe3AWO/3AzVTs76AQSsqFaXsXSQYQu237EysARUj+Dqy0jrYItm07XDgP3QPwLQvjoMiJrvz4Nz2yAQMcuhETAj7tYf0biyPmc56jqtbyXf1bh9YEyXu5ouJZqdLOm+g9MWqjoy1ddcyQ8XcHVJCLj+YzNkyJAhwzuAXU/OENIIa8xxz5+6qj95dkVfW9ynpVZFSQ53Gl5z1jPhzcDq99w/qfcfllYvnNXXTvV1br1oRKRqMWBL12K74iOMnEBKITwHIPgiI0ulck/zUxVVjHgsrTbdDLmOpceSU45AmbAN5AwzpBvjhemrkHPmsCk3BswTsKoJSzzBQw5YnDoyppR0jWDh68uYHkSLAd+QLzQuaMBqnOtoQMDkSYA9EAe3jM/yC1j7ckCegoBH60XeKFPOtsM6sAuYudCGUcohIGdWxhDP1YU9IxA4yucDx26k1zBurm8ky9ov169pbemMootf0UzntPYZ4Zwaq6gf5522bDhLc6A1o90xZ5KOC1YPLh+2D+EA4RnAnTey6LaDtsLpbGFyv/Jzd6s7fki9ypzKE3Oqjk2oXJ1UsVh2EyKqpYIR7aIjJ25WajlymjK3goCVptOz+rd6brbzSjqR04Y1mtYWxqqWEyOTdg3XFK3uYBwe91i8JCm6sXTkEq3YKL+Ymkear619DQIG0UxjSM6GCCRthDC2rGCki5mfU0a6JoqJxgqQsEQT1sfGjYRNFNH2dSzwMWDlt48A+uWYkdDZyTH7GChqzOqkYmQ1I2cZMmTIcPuxa8kZ2SIgpBHWdZOAr5xZNnK2pK9cntOV5rhaRouCIM4lPTe4+r57JvWRu6Xu0kV96bWmTi8V1eqNmzwpuHgAvpIuNmQlDTcb0wT9VuQGKi80Z2h8epEfqF6CqDju4AWmF5IyIWmC0MiXc0dR6WuyWjRCwtgkluQxQVmBmGEyy7syNlr4CMMsyYDvnhbWmREpLTXQzLAKgidijEXqGBlDA+bqaSCoEaKUJZQtbIOJMgDZ6rVcEJlwfnTd+QbjmoVhGlAi22cbgBnTXbeHMgHAEzg/7gwKRV4cYet01e1c1cqVE6ouPqk9vXOan6g69xHc32p1nH8zSDhjz6hTT85S2jIjqmwJoc2BuzbEYIxazyorHyuqTqkyc1il+fuUG9+v8sy0Zub3aN/8jGanJtzzWWuybOQXNyKoNyGtLJu05oiwEeCkoMUNOTLMWqqtdmz5tTwYuUr6kbVJy/LgatTVf6p2hu1CvYwIl4/L5I9Ayly7DfaBc4K7Lbbpk9yrxI0xnKrYB0q5Y/2tYx8qLSNnPU0YSRtTx2tmjZxVjaiVYvymobE1clYti+XRIL7FStktQF+pVFQqFlU0chvIWTp/GTJkyJDh1mLXkzMENMSlaQL89KVV/dkLq/rCmXGdrVVU1/hQOONJHoeox++a1icfMGLUXNIXXtrQa5dz6vRnTR5Gjiy4uAM5E+4N50cwIRhMSpjuTDChCUM+Ya6EfDEWzOS6mO0YHLQ6M1gpGmjAmInnr6MJi/FpZXQSsyBCHtcHfjwSwe8HzVizYyTAzrVMpkPUak0jf27lya24VlhvIpWBTA7qcgjL/8hiFjRn/oQjPiaoAyly11yaPt1AP/z9g2dZem7wvyN1sNTBlkvWLmjO+rULql15VuPrz2s+uqqZiTEjRiwE3x1qzSBnrA4AMQvkzD1/CzFz5wxhO4Llx57LvSqUNb5nn6YPHdXs4cO2f1DR2B6NT8w5J65x5B0Dt3qx1be1gdVz05kgre4tsG13cGKMQRZ/dd5EzcB85zfM+kKaFEO4/Nby5+zDth2QMq6JySucdj0J8uXvJZ5fJor+ZSnah4Hva/YBwNhGTJF2vWx9u1JIVIk61u/Qhtm5IhoxtLCyrRExxiRirnREzN9Tsg8Et26pkTFmnrr0h8H4KCZaI2AhFAqRmz3r90sZOcuQIUOGO4B3DznD19lV1hS8qs+fqui1lYrWerM+nsmNvpGDggm1I/sn9elHpInchr740rpeOt9WR3OWogk6N05oM7YW340VM4EZmzBCMBZMqBViE3QFPygfs+NkJefW02Qh9rFy5JyzMibMjQcbCFiAWRFzpBsHZkxrvd4ZEDDImdeEYQ5jPBLmMHiRE/5WDi/U0/m7Nu+OjGzFdchZeruVnLm/6TgWNpMg0vHpepOnx5CAWdYCOUO7yExNrkFO0KJ1mkxHfE2ti09rNjmtvSWj1UbOWB7IactS5Cy0N1vykCaJhE2k8RpQc/6eXrGi6txBTe4/qun9RzQ2c0DN4ox6hSmLw0SSstoJWtVYDat7ZlAmVjRKx5JfkCncZtAhXIn9gDwDRBki5rVbEK2weDoU3vXFQd6smg2h3Twp43ogcZAytFeMOSwYkSrSzxicDwmzRzMurIrpMTYSZsR/stS1vtY2AmZbI2NowojjSBiaMAu4LSlamkxioB+6Z+HWwx17csY5v/X+0zwR84SM4xCHfQL7Ps8ZMmTIkOF2YNeSM0DWgrDGw/zSak1fP7Gkz78a6cWlqq509w5iQg4YU9XXgdlxfeph6cB42+Iu69nTdTX7Rs5ysQnHNAZkwwQZghHB5rRcaBxsi+YBUxGaMLRgjM/BbIrGDD9hBWS31Rz8hwHdzHoMY8HcjDycgxopY7A4LiuaJvnRhvmZeZABu79nObZEQhOMCBMCfCsBefPkLNwfSBQasYBrU2Ps2OCeQZ5Gz4cQ+TTS5Gz4fPLaTdy1HObNXsfFp03UT9RubkhLL6p/4SnN5Ze1b6ynyljVCXzMmYGc0c7JQGvGvUFzRkiTMpfutmDihd1n2U4iI3/TBy0cUWn6gAoT+7VR2KtOPGE8yxrQCBoTN/BxhmbMkQ+nXUqRGtt6ogbp8r3H14gdQ9Y47zSakJcBWUuRGOqTY6yGfBgUbctsztzAyS+zO1mnlPGH9LeJEqFmoeU0YUwOGbfzfARUHHGzXNtjCvRZCJ0FcjDKs12050DC2IcM8vxwfRjsnD8vR8gCKQtx2YaQPs6QIUOGDLcH7wpyhrBGc7ZRr+vbr6/qcy8nemahonOdgy4eRAOzJlqTPVMT+tRD0t2zPX3v5EU9d2pN69pvIixyAtK5pEDIFRCWDMLPOXMkMyMhX2jB3LZkxyY8IW2QAcYiQcAgX2jB/NbP0MNnVRgLRhxmQULG8EvFjEpq2BOLgYAbaMVGFMkTjxE5M5G7o2a5HkkxGEkLafhnj9Jj8H5AyIHFGpKzdCDHzk/ZkPT5bTqOy7+xVIiZesZEjZDxDDRnrNnYqF1W7/LTKl59WntLPc2NF1Q0ZsJg+UDOEsbbDcgZbR40Z+EZOyVnjL/ib6c4reLUXYqnjrkFz3PVebWKe9QrTBgZwT1GxcpUVC9X8CWKoDmWdSM+gdigNcvbfjjnxuC5JvS1FtxVAE9kcH2CI1p80XX9zEg7BwnDDDkWG9kywu80Y2UjXxAwN/7QX3faMqc5w5TJoH5ImAWr+9jSdIuyp4gXCOQpbMmr04YZ6XREzJ4frg/jWmAbzKh+34f0ccDW4wwZMmTIcGvxriFnaM4Q4s+eWdWfPr+ub16o6FT7KNI0RLb/XU2NVfX9D+X0Abt04cq6Xj59Sd143rlJQBMx6dwj5J1ARJDixNNrg/LOpMg4LwbbMyD8yronYGuNrh17Aoapst3pORIG2YKIJbZlhiR0BIEHkXFCjl0n1FJka0jMgN935GcAH+9acrZ9M12PpBhS5AwDY/p+TwL9veQR+Jz4eIGk+VOQRou7DTmDI/l49qwehCxR3sgZBMkvF5VTKWpq7fLLapz+mqZqr2huckwTlZJyds21q7UpBK3b9u1MuBk588/cDpBoyJnVX2VepbnjiqaPOd9mKs+pXZhWPh5zJjzLnRGzsm3xcWaldwTMkxujQ1ZeasTSgQgFYmLXeMaobLK0bN+isiQWpGoMTWuxr+lyW7Oljh378V8sFF+xiKXYz9xFg8aYMsyaaG6ZnVu0Z9kpN5OTrSNU9iw0wp4gQRgtIdvidJn8EMeZH53GzBMvzln2BhMQDC7fPr1QFr/1bRnOswXD8qaw3bkMGTJkyHBrsOvJGULZCfEOs/maevXShj7/3Iq+drqk15pHLY4JFhOmQXjj1PRT9+X1A49a4UzWLC4smaArmxA1AWaCkbE4AbhIWKl1HAm7st5za0ZerWGahHQhuiLnLd+ZyRwRIaAJM2E5MBGyDzGDAFkO3DloGsIsCDTvE2uAbcgZTwrN4LejOOE8SO97BMJ0LVhhwMUmf4TBfsAmE6rte4LqTwZyRqAE25EztlYTXqg7DVFihIUxUX7NTkzBXvvY0stPf1GXX/yqxtsXNDs1rXKpaGl7/3V+zBnuMzw5Y2WAQM5CHgg7IWfO9Gr57BrhYnZmafaY+lNH1C3NOk1aN96jqDhh+SsYoSmpH8VWAkiOH/SOpsy1m90PwYMMhWfjWoMJIJgYPdnqabLK5I/ETwTBBM5apY74GyEjXr5jz2IMWN/NiORDgDGMsT2nYMERMXfsNVjUqHumM6V6zRjZIh7mdOLk46JxM68Vg5S51SqApRHqxeV5wKUYB+m3vjyhX7ry8sRNx9fHza5nyJAhQ4Z3DruenBEcOWs11O40dG6pqS89v6gvvFHQC7W7jBghyBD2FMML0Q8fi/XZxwqam5IuL6xpuR5r0UjXaoMZkd7ciMBjEPjyRluL6yxcjZ8qI2KJF1QIN5fmkEwhnAYaLQjhgJwhuEEQXm47JDLb4AbkDILnYUKYx7gyjZA+9vvXf47Lv8+SxfVEZ3DoELR1kE0vv+04aGns4Y6w2R/y4Sc5MHid/Z7blgqJZsYijRtBKRtBqcTMJOwaEek4XRTe59vthpL6up755td0/sR3NamaJiYwK+atTUfErN32pIx2JtxMa0bYDmFcXD8qKDdxQIW5Y9L0USWFWac1U3HGkbOikTPIkbF1Ky3aMYgO5AvylPfB8ohJsRQlOjhddITLjQ3DL5gRzzBYH6LGPjNz3YoOVk9o0iBddtmlweQSSBmECmLGmLB44NolkCjaCi3dkHRZWm7ppzxe/L1my/ld44IRMvKMydyf9/3OaW0NFt21mdsfVJWlatcD4Uv3hJ3hrdyTIUOGDBneGt415AytWbvT1KXVpr7+4lX96euRvrd6WJ2Egf4mjE145PttE0ENPXKwqE+9b0bjRiC+9dyrem1tj662StroxhYn0b6poh7Zb4IvjvXcyau6eLWjTm/Cnph3A/ydIDKhGgRnQNr8eCOM1sX02LSg+SZ4sjckgoawRaiyv1UounODa9sBQe3RG+V/C1kcETNfv5jDIKv4ZSuV/DgoVitwLkEgIMY2xkpohnpGxIwAx56oYTBtd3tqG3ly5slGopqR3Y16oo1GT1drTdWuntLic3+karKsPeWepsbH3LMaRsbQlmHSdLMz26PxZpCx7TRn6TxvB8itq7dCxS3ZlJ86qtzMUfXKc8pVZlUqTxlpwo0GRMy7jYBsjbMYuREuv0ULltMUJIzrRUgWg/KNeNl9mCbdYvFRz2nCqAfIEGkC9iF+bgmuMO5rOP7Lkyz41XDfrrF1+9xscG1ubea2HFuvRq+GyZWSu/OWCFsmKgzjDbZBWwbs6mALfPoZMmTIkGF3411BzhDUmDU7nZaurLf1zRNX9LkTeX3z6gE1O2gbCl74WbxIHd2zv6gn3jOuqaipbz7zqp69ulcbvYq6+dj5iTo6V9DjR2IjIkW9dPKKzi11tdIoOd9WPSNwXvjdjJxtJ+j89WvvG+xcg83kzMTv4LzBK4FoocHOCEFrtxkD8oIAH9Qb6VEWtChoVSiWiXRHwsolqwsjWRCtsQIrFUBM+pqqdo2w+NmBrBeJOQ3grR8fZLj9wD3IRivRervrSJibIMG6mfWOGg2L14Zk2fmNdbUXX1J54c81qXXtqeY1NVa2HPRUbyZya4AOyFnQnAVytlVbFo7B1m0A9Zgz0lIan1V5z3EVZo4onjmowpgR9am9GqtWNWFtPoU5spLXZNlIpxEyzJJMFGHgftnK7ceTec0ZSzUV0axZ/2IclxvfZftsqVDqF2IGr3J1bTthSzxf/5sJWNiCcD6EcG7rNpDu7eIFbD3OkCFDhgzvTuxqcgbIXiBnmMGu1tp69vVF/fFLfX1tYZ/qLRNy+ZITdpCnyEqzbzavJx4d08FKX8+8+Jq+dWlSxcq4Zk0oT1V6OjCR1wP7bb8s1eoreuNqXi+c6+jUQl7NpOKFnIXgvyrg+iQr4K2TM0c+bDtsjqE0HhEUd2j5CnwtmLEApCuNQqGrSilnRKOv8aI3xVWNfLhlpDBJ2gETI0p5RtbZvTkmMdhGidpJxzlm9e4/vDsQzMEsodXsdG1/MGPVSFoLUtXpKem21bV9iGNEO/TabpZm69Jzmlz5tmaLbc1NlDRuDIiy1hstS8tPCEiTM64FghbKTeA4INRF2AZQj2Pj49p36Ij2HXtAew4c0p79hzQ+PukC5sxKKbLyGxmzOikwY9dIGT7qMDui0UMB5gfkQ8Zsa8TKmyIxMXrtlyNWFlw/MQI3Ogdx8oTYDdCnZmmvLQGkt2EfXC9O6A5ppO/LkCFDhgz/7+BdRc4Q4stGzk6cvao/eKGnr1zcq/WaCe580QnHyP4xpmtmsq/HHx7TI/PSK6+f07OLY3rg0IQeP5zXvnFpqtTVbAWTFrP71vSVV3P6/e+s6Y3LBdW7mDeRvfndQc4MLo7Tqo00YQh/xiNhfmShbueHzciXM0MaEZuuWqhAOCAefWeS87MCfZrUaSPxM1AhXvhmq7PfZBkpI2GJkTI7X+vI6p1xemizmEQxMDvavidRftkm70YDr2A5xf2Wcsm6Gsun1Fl4RrONlzQ3ltPsWFXFAmtOJo6cNdp+UoAjZVs0Z5Q5HXZCztAaHjx4UB/84Af13ve9T4cOHdLY2JhKJSaExANzotd+OS7lDjzJShMyjqlfiJmrbztPCPthS8OGY4InZ4NgWRuO8XL7vj2H1wfHIL0P0nEHOxb8boYMGTJk+H8f7xpyBjFDkK812nrj0qKRs76+cGaPrq4baciXncnJ6IfdEWl8vK9HH6zog4eky+cXdLpW1ScfGNdnH5D2GzkrOqrTV8fI0ZWVDf3pia7+9zev6tSVyhZy5nYNntG88+TMl+9acuaf52GEh8Hpg1l/QdODrzaW69k3GWnPeM4NzmeMmFsyyqoBDRBpuXU6jWytNrrOJ1vDyBZLRa1tdLRi51iyCLcgjY4RYCNnHefSwpMjT5JCYXzZ/EBzzves83hyhpmSwXrO15wRCchZv7WoxuLL0pXnta/7huWxpHEjSoB2xJzZHGjNeB7ELJAznr01BHLGfkB6H0C67r//fn3yk5/U+4yc7d+/360VydiyuDAgYQMCBZFybjNs36iYa+/CwDwOSbPY/pqRN57i9h0Z8/uQNwdLA7g0B3Bx7SY+F4bHg7BTuLjp+Du/NUOGDBkyvMvxriBnCOZAztZNoJ+5vKw/OpHT596YNnKVqJMrmRg04cfEAKNelWqih++r6qPHpZqRr4vNqj5xX16fvluaNuKSH8yLZITa6kZdX3itqd/9zlW9cLasWmd6KEi3krOA6489e/PkDFBGBpjjaBTyBfFiuSjGPuGMlBmR02N5TTBLsJi3eAzIx4mukbWC7aMRM7LQbFt5jYBtGMFCG+ZNk5zDaS6aMc4ZOerK4nbV7hjxscy6/BqxcmTMgpuxaWUJGh9fQspm56C1ll+3AgA+xSy+qw8LECtYRNxvqlO7oPrCcyqtvqy78hc1N1lVqVRxBAxi5gjagJxxXyBopOfyMeiWof39M0fntoJ8FotFPfbYY/rMZz6j9773vZqamnLnHDljrBjByuqID6RqQKzQtjpSFg3IGdozR8R8yXma6xN2zm25P5wjWNmDY9dN2DQzdzPSZbjmvoD0+etEyZAhQ4YM/+/hXUXOGJ9U67R0eWlNn3slrz9+ZVznl41k5CpurJMnZ2WVym3dd9TI2f0mfy3+Uj3SE8djfeyokbOiJdptomYxqgGhaerpC2396XPL+soL0uWNKfVzZbciQDfIVtt3QtiJaWBkJMyARLDbaU/3DHYewmO32D3kyW8xlzknoZHXajHLz3l/t2PGfe2fKaiCSwYjZWNGwjBRsoqBW6/T0o4tIvfhcw0nuHUjXS0jX2vGvhotloeS1iFhgYBBzKyYaL7wxN8Z1CP1RF6pV64FoknZhqSTsg0mHUDQOKaMwVUFcT1h6tKBXPm6vbbTnHGukqu5WZpr576tsdY53V1ZdeQsiotDrRnbECBnnqB5cubztn0AfutNwgEQL0yYn/jEJ/TZz35W73nPe4wMloyYsWYkxCtSyYia14N50EbU7pBkDfyABXLmSBPB4K5TCQO4awO4OnLphH3SHsV9q0g/I0OGDBky/MXBu4acIbgR5LhguLK6qi+/0tcfvRzp9UUjIcIUiSGqYMSoqHKhrSMHivq+hyNNVnpaXm7p/fvz+tQ9Rc1VMWJ1TCgj+PpGXNq6VM/p6TfW9dvf2tDz5wqqd2bw1BX4iYMXzoN9IzFGISxvYUqlh9O2WLqQMMgXGi3nKwufWKW8ykXGuRn5quQ1bsQLEsbsQBaunq7mncsGXCbg8Jb1NxtGwpwJEse4aMUsrLcYF9Y3kspKBVZ2i2NVYuSGpaMwMw7yQn4HY56oQ8aMgSDu/WQC6Km/Tl2AdHcYlg8SBiGl1GiJbI86MB5pZNMv2u23bRVda6zp0mvf1sWXn9JMXHOm5MlxZmlG3pxpIZBt2jVNzNgPeWAbAtcC/DmjiIN4ABI2Pz+vH/3RH9UP/dAP6fjx4wOtGQ5nWdzbE7S0hmtIflLnAHGGGMZ1Gwd2OQ6PT++PcM2JN4V0fjJkyJAhw18svCvIGQFhTmgaAVneWNPXX0v0Jy/29cLFnNY1Y6SMcUOQs0jFKNH+uYI+9EisvXPS6TMrOjqR06cfntLxPdJEDOnoGsnwBGupE+u7p1b1P57csG1kxGfGrR7Q3SIgITRYwtzyRI6oMQbMmxkZiI/WC6ICEZssy/nMmnAD9o2QcQ1NWIyZMKcuBK+L2ZFxYIz3gogxOJ9jFkvPqcU1Owcxa9q2leQtX37tTrjKUNFFC5K3QUuSvtMKWb15Ie8jpps6CH/OBTLi65p6MTLmykrouokHrBMZx4kzs5as/nDBAemkXDhiHYutvLYt5duqL1/QM099UadPfFuVuKc9k9Mar1QdAYOYNRoNR7Rpz63kLGjORvnxIU3OfBxPztjH/MjYsrvuuks/93M/p09/+tPas2eP05yFRb0xbRJvq/mR/dThNQjX0i9JiD7IposT9ke45sQ1yAhYhgwZMmTYDruenAEEMMLbEbRuotX1dX3rdEd/+kJTT58vaimZk/P6H/mVAiJjKbOTkT70UEl3H5ZOvHpFsd3/+IMH9H33yIiaUbN2R/VGU61+rKutWE+fXNXvPl3XixeMenUn1HdL+ngBygzHspEqFkQv4P/LCIf3C2ZEr5zXuBExSArn8BLv1k00FofoJT9tI2ENI1+rTWmjY/st29rxhm0ZB9YyQgZJw4cYg/OZCZnYfdxLoPyYWaFdXp3nmOEQbrzdllZ09w5kP/vXoudNd8bwGCRPGTGbFqKWI7dlu4bne9aCrOAdv4SH/J6Rzq6Rsa5brojzTEAYwzeY1W8V4mkZeeWVV/RHf/R/dfrUG5ZGrPk5I0pxyWnKIGYQtOBCA2IW2jfsB4TyhzoIYD9NziBf4+Pjeuihh/QLv/ALeuKJJ9xKBBA2yBmkDM0Z20GVuLYNyDhShgwZMmTYTXjXkDMEN8KcBdA36nU9d66tL7ywqifPVHS5Pe80XQzopjgQhMlKQY/fV9T7HjRy9spVnb2wobkDR/WR+6Tj81JzranLK00tNfNasXBmsakXz7dtn8HjZRUxRxZN6KP9MtI1aURsphpromJkxEgJ5zFRFo3U4IQU8oQGDBNjzQjXWkNGxrpaq/edKRKTZIOAOTLxMyTbRrSSbiAhkA3PEq5tEj84PyBoyAJJG1EOYvqLJMHYN4fB+DiWXiri18zIl8s362EywxPP/0YoWQ9yKq5b+VpGNn3ZWUvSLVs0WKbIrZdp8Vn02y9XZMTOyFl/YI6EZH37qe/oD37/j7S0eNWRpMnpKceAgtYsmDaJS6B9w5YAQh34utlMzvw5q/NBfMyX09PTzoUG5IzxZtVq1ZEzZ8p05MzXRZqH3YiUDR5/XWSELkOGDBky3Cq8K8gZWWRMlSNnbT+g/KWLNX3l+QV9+fS4zjXm1e4XjHzEftB2P29EQvrA8bI+8liksyfX9OSLV7WUv0v3HMhr/4QJdyN5dSN5jKbCqzzPgLyMlWJnooR04CEfAlbCdOl4kCcISS+vppEstF/rTSNfDZyy9lTvQLq8FgxzJGZJBud3uhAJTyjQigVyMVRtDeHJFrjW5DUiJ0bjXBqOiFkargkxQdox5S/avcVcV5XI9u24YMQKUlaOEysPZKyr8UJXZUe80IR58lXFTBl3VIV8WR2wTBFaQLdOpBEctGtuaSIjZU6jaFn0msW8I0lta5+1jXV9/gtf0uc+/6dK2p2hebFvdUF9B3IWJgMkOyBnnAvHI/hncp709+7d6yYD/PzP/7yOHTs2JGdozqjKUJ3WrG8SW5+7M2QmywwZMmTI8FbxriFnyGzIGQId4f7Gwoa+/vIl/dnr43ptfV6JKiZG846coDFi+Z2HD5f0gx+K1Flr6ruvLepye4+mJ2NNlvuaLLadtogFrosWF6GNNggtEKbDxAKuJmoDMyQkDNMkTllbnfzAY35PDdvHd1g76alLVQ7cJzCmzFet5YnTgYilCJnRHbdNnUohELVAyvyWfLKoOESScWHsFyKvyWLhcbRZkRGx6WJLc5UB8bIyQcTQglXQkBn5GitCYI3A2THjxyBhXpsG6bJgzAuNk5u5aMdurBYGVPbzA1OhxbeNO8fSTvVWUxcXLusP/+//1Ve+9nU3Q3Xf/F6nveri3iNFzoJZkwDJCibNNBFjmw6bMZqtCQk7cuSIfviHf1g/8RM/4YgaMzc5Tz7JIyA+TnlH2JqmjxNwI4KVka8MGTJkyHCr8C4hZ0ZNjCwFYY5gP7u0pm+duKjPvTKmF5dm1cqNm6g1hoEJzwgS2p57Dhb02SeKmldXS6s1NbpFRxQYkwZRYSC/Sw9P+a2cNpgdyTgwPOO32WKalDYYE2YkDG0ZY9sYD8YWwsgsSJe/gaxm/FcQ+uxtEuKOhXmmMCRrmwDh4rwnYswORRsW9RMjYIwHYy1MNGIDrZcRr0KUaMzI1ridZ1xYFU1YzASEpsZLHVWtHooFCJhtjbmRBv7USkawIHFh2SI3Hovg3El4UyBkzBE0d56B8ymCZvkZnjOSyJJPtWZNJ8+e0e///u/rW09+y5kbIWcFq/N2y8ibkbNazdrBCFogZ0lKYxYIWuiSbNPH1wPjzXA+++M//uNuMgAmTr8yQMm1t2XR0rE0rG9ANkN65H0rbnQtjZtdz5AhQ4YMGd4q3hXkDJiMHpIztGcXltf03dcv6E9OjOmZhQnVelPq5opuBiOkBrPc/vmcPv5oRUfLUtJquuWJMDcyJqxphMxpv1odNxYMk2StiWsKzJAWH8/5xrgYE9bte7caVNV2pGokqCFVAzXNtvDX0+PHHLmBJOWMgGGCtG1sZAsyVkIjZsSqLCNZRsYmMDuWWKLJa8QYC1bERBl7s2QFU+VAE+aIlz3IkS8LYX1IR7rsmX4/JjduH5Uc5xm350maP+/dg/h7XX4H5CzEd+cgZx0/nuyll17S7/zO7+jZZ57X+NSkZqemnWmxY20WyNnGxoYjZ5hBAzELAYIWumQgZiHwvHAtPBvgQuPxxx935OwDH/iAJicnHTkLkwGIihEYUN7t0tgON7ueIUOGDBky3Aq8a8gZuex0/IxNyNnl9XU9+8ZFfe7lor59rqL13pySXGUoePGuP16VjhyoqojHemNcjVZiRCw3XFMSs2ViZKvnBuUPhDbbgUzuw/LcjicrI1HtBf32SJGzgYkzzIoMJCzK4Zai6zR4zAJlfNxE3HHjvViUnPFgLMXE+DDcfrAWqCNfRrw8+cIcC+Ey4mQkrmgExA49kYJn2R9ICKSKfLtB8RaPMXmerFhZIr8NJkq/7zV37p5BMdh3ZRo4aHX0hjikTbncOTmyBfl6/vnn9Vu/9Vv67ve+50gSY7/wNZZYu2HOTJs2k5QpMx1ohxDC8VaE55J3XGigMcO/2T333OM0aZVKxZfblc2awtrM5TuVVEgjQ4YMGTJk2E1415AzkNacXanV9fKZS/qjl/L6xulYy539Jn5H5AyhDOsqFY2iRLhQ7ftFu7t572PM+BVaNo8BEzFsJ7Aha16wh3hpcub34XHh3pBu3p6LWRJNVhnzYzFRJep4TVcZNxRdNyNyrNDRJPtRWxNGzsaYFRn3nDsLSGZu4KsLMoYGjOdQPjc4H/Jh58MYMTvyZR8QKnduYIIc3Tta0Hu0NaIVymLnKJdPB5CqJWKAsPrrmxFI18svv6zf/u3f1te+9jVn1oScYV5MEu9EOIw3Yx9yFghYIGFbyVkIYOtzOYb4Pfroo/qRH/kRffSjH9WBAwccOePZ5D8assxBv7CSZMiQIUOGDLsZ70py1mFJpkZTr5y7os+91Nefv5HT1dYBtft+YW2K5MiGCW9I01ATNiBNQXsSTF1DhIgD9Lh3WD1eyAfi4tKwP8yGRAPmTJCxd86KnzC2zH5E2zVupGyy0NdEGWetXTcujPFiaMPKdly2e5lNyYD8YuRNkgzKZ/1MYxj2v8Aof9t6LRfjphyhSpEsd8w+GjLbJ4/Dhb0HcYyapY79vYFwhvMEVz63HZ0PcBpGtx11G667sWRG0M6cOaPf+73f0x/+4R86woZ5EaKEuTIQNLaEnqVxM1IWQsgHgWNAmSBiH/vYx5xJk/U0Z2dnN5k0Ia1pbD7KkCFDhgwZdh/eVeQMAd9uN9VJWlqtN/TGwoo+93KiL5/o61LzoFrd6iCmH/SNcDaRPzi3HUYkCzIHAhExvuWITmz3MwMyl/NmyIJdhnxBuiqYIgfjv8YLHWeOrOCqosixETAjaLiqgHBhioR8FYxkoQ1DocNsR7iD88RveSVAuNwWIhINyBcuQtgOiJe7ZlQr7Lt7OUdIkTN3PLiehhv0P6iWsMQTCPH9/uZ628JbPQYnuaVeb6rdaunq1av60pe+5Eybb7zxhrsOUQraMcJwZuaAeKWJGUhvw37IW8gfQGs2NzenH/uxH3PraeJCg8kAW02aIHXbW8LbvD1DhgwZMmTYMd5V5Iysull+SUNrjabOLC7rC6/19cWXOjqzdkCNrtecGT1xcRHOI3LmCQsYCfiekRo85KOY6hvdGWloCjlMjNJUqaOJMmQMD/jE7RnxQhOWaKKECdK2eMq3a4Q4LlpgnUzvH8ylOeBGRpOUiwtGsrzDXHv48HmEQCiCZgzus4mEOZJocdGBEd/SDfdSPr/vywDszHCf7Yhg2Y2BWA3y5hE0Zls0ioY0ORt1GX8z99AurUZ7aNqEnD355JNaXl52ZAykSZgLdm7TsYWArcc8Y2vAXMp4s7/8l/+yPvnJT7qJAYxz4zx1RvD3+vB28DZvz5AhQ4YMGXaMdxU5A+12YuSsprVmXZdWNvTk60392fN1Pb94ULXezCAW5MzEaRgjhnsNJUZEPBHLO1MkZki5RcchXRCrYhFzZMdpvqpGxqZsO1XqOfLltGOxEYJ8x91DcCZMSyPGRYMxJW+GhDiNCFUIjiygAXPmSbuWtxttP1xjS97c8YAkuqzbduTeYnB9pPYabNLaL7+fvv962Hwp3Q2uJWdpOOLk7h3UrwFzc7PuXWRcvnxZX/3qV/X5z3/eEbX19XVnzgwaM1cGK4xrogEJezPdkHvjyI9ne+yxx/RLv/RLblWA4EIDjZqrbyO/JEs5t6uGbU5lyJAhQ4YMdxzvHnJGLi0kJtxb7XVttJtaXK3rmdNNfe57S3rqwn418vMmcBnIjsnQkxgW7oZw+XUiO45QMeOxUso7k+NkAQ0ZJkh8hOEvjIW88Y7fd571SxEObdGCYZb0BMqbIj3BgHAB9u1gQAq8aTIdAiEJ+7CFoSZsGDwpsxguTRdvgM2ka7MGME3OQPq+t4ftSNqIkKW7DqQLAobmDDJ27tw5PfXUU/ryl7+s06dPa3Fx0RG4JElcfOqB+7dq08h7CFsRzqFhLJerTlOG49mf+ZmfcRMBpqamhr7NfF3fmJxlyJAhQ4YMuxHvPnLWxRv/mjZabS3XGnr5QkN//vyKvnVuUkk8o4LTiEHCukaubD/X0dxErIli4gfiGwHDVxgD8p0pMmq5ZY4qxjmKxpYKKlqI/WB64zx9gjEyRxgG5ApixuB6Z34cmB0d6RpqwvwYMUiCu29LcHHdvq969v12+6bw1z0pCnFBej+N653fCd5qd4BkoRlDc8bkAAjaxYsXnWnzu9/9rk6cOOEIGrM1iRsCCPnlfp4fzqcR6piAxmx+fp9zPPujP/qj+shHPuK0Zqzjyfi2dL0DNm+jSjJkyJAhQ4bbincVOWO2ZafLbL+2GhY2mi2dX+ro+VNLOr2UM0JVNlIGyeo5TRkrAJTyiSbHYiNi0jizI5lBaeedJowZfUayckayckbJRtZCk+T5/tAESXAmyAERw3zJkbvm7h+EATlDkzU8t00YYTM54Xjz9fQ1n/atxtshZwQ0Y2jPwkoA58+f1wsvvKBnn31WJ0+edIQtmDkJIJQrmD0DSQvn2Yd0Ya6EeEHE7r33freWJu4zjh496saahYkA3OfabACSuQ1VlyFDhgwZMrwjeJeRs56Rs8QJb5YLanTaWm8munhlRXUjal4oM5gfp6xGnIyAMX6LgfklE9oM5ndrR5rcZmuxjdBZpNxo0XS0Zd686CcUsHSRJ2KpWZQDSR+OAcQNs6Y/Tp0fbAPSx1s1Z9uRsxFGZONW4u2SMwKkCzcabNGkQchwsXH27FlH0CBsV65c0erqqosTzJ0E7g95CFvqBHLGWpmYLpmV+ZGPfExPPPGEmxCAxgyXGmGsGfEzcpYhQ4YMGd6teNeRs6BdgaT50NXaxrq6ncFYJvfXCgZZgiTZfU5gG/FCXgfyw5bgTJPwKrsGsSNuEPA+BKLlz6ex6ZhVBGB9Dn7r7xttQWp3077HdmO8AjY/+1bh7ZAz7qV9IFlBM8YxRI0lmyBjELULFy4MtysrK+48mja3aoDdG9IgTeoYbRgD/ffs2eO0ZA8//LAee+yDQ2LGODNMnWmt2dY6v7aub4xRNYzqI51mhgwZMmTIcKvwLhtz5scjBXLmPf33nHYmaXcsgh9kzsoAeLJnH4GK8AbXjOkaaLrgWDgrdfuMJkMI2zXSMzHv4zqtFoTPIwjqcJ3jvu3685ADd9ohvX9jvPvJGVuIFdqw0FaYN2kjzkHUIGJra2u6dOmS84tGwOUG5s6w0gBEjfRoO8yVDP4/dOiQ7r33XkfQ9u8/OHSbgZPbsCIA9U8IkwEA9b+1Dfy1N1fW0OYZMmTIkCHDrcS7h5wNEAhA0KCF/WtdZ4ywVZMyJEEDcpYOweErISAsaxSQrrIQb1P81P6bw7uXnHFfCFvbJpA1CBdbAmSNY66zhZARIGcQNbYQLogZWrGZmRnn/R+zJscEzJyYMtPEjC1gG8ry1tvD4+3enyFDhgwZMrwZvCvJGQjCPxAAj+0JzPWIE7MvOd4cBhdT2Klo3u7edxveanfgPkKoX/ZD+0DOCLQTpMxpOgfnQtxA6AKRYx9AsjBXoiGDjLENhIyQHmcW4oe2fKfwTqaVIUOGDBky3AzvOnKWRhD+NyNnIAjYILhHwZ0ebv+i4+10h3BvqGsQ2iiQM0LQnLFPXK5zb4gbjglch3CF2ZphG4gZxA2EeOlnvx28U+lkyJAhQ4YMbxbvanIGgjD3uJacBSE72rqNQyZ/r8Wt6A6BaAVyFohaWnNGG3Iu7LOlzQiBdAUfZmzTpsx0nJthJ3EyZMiQIUOGO4l3PTkDoyJcX/BmMnlnuJXdgbQJgZgFYh3Oh/2whXClQyBhELRw/GaIGcjIWYYMGTJk2O34f4KcZXjncDu6QyBgaWIWQjgH0oQsELE0uUpf2yneTNwMGTJkyJDhTiAjZxk24XZ1h/Cc9Hbr/lYiFsL/v507xAEQBgIg2P+/miCaQA1gyEJm3CUVJ06s6rTOdzx9DwBvE2ec1M/huN8aarur/cUZAHXijM+YpyqwAPgzcQYAEPLOt/MAANwizgAAQsQZAECIOAMACBFnAAAh4gwAIEScAQCEiDMAgBBxBgAQIs4AAELEGQBAiDgDAAgRZwAAIeIMACBjjA2tNEUgJDDkKQAAAABJRU5ErkJggg==;" vertex="1" parent="1">
          <mxGeometry x="670" y="113.65" width="96.37" height="42.15" as="geometry" />
        </mxCell>
        <mxCell id="myMftVf5L6ny_uZTM5kf-9" value="" style="shape=image;verticalLabelPosition=bottom;labelBackgroundColor=default;verticalAlign=top;aspect=fixed;imageAspect=0;image=https://raw.githubusercontent.com/devicons/devicon/ca28c779441053191ff11710fe24a9e6c23690d6/icons/androidstudio/androidstudio-original-wordmark.svg;" vertex="1" parent="1">
          <mxGeometry x="670.0000000000001" y="240" width="80" height="80" as="geometry" />
        </mxCell>
        <mxCell id="myMftVf5L6ny_uZTM5kf-11" value="" style="shape=image;verticalLabelPosition=bottom;labelBackgroundColor=default;verticalAlign=top;aspect=fixed;imageAspect=0;image=https://upload.wikimedia.org/wikipedia/commons/6/6a/JavaScript-logo.png;" vertex="1" parent="1">
          <mxGeometry x="340" y="441" width="58" height="58" as="geometry" />
        </mxCell>
        <mxCell id="myMftVf5L6ny_uZTM5kf-20" value="" style="shape=image;verticalLabelPosition=bottom;labelBackgroundColor=default;verticalAlign=top;aspect=fixed;imageAspect=0;image=https://ubuntu.com/wp-content/uploads/c9f4/visualstudio_code-card.png;" vertex="1" parent="1">
          <mxGeometry x="404.18000000000006" y="441" width="104" height="52" as="geometry" />
        </mxCell>
        <mxCell id="myMftVf5L6ny_uZTM5kf-22" value="" style="endArrow=classic;html=1;rounded=0;exitX=1;exitY=0.5;exitDx=0;exitDy=0;entryX=-0.01;entryY=0.667;entryDx=0;entryDy=0;entryPerimeter=0;" edge="1" parent="1" source="myMftVf5L6ny_uZTM5kf-16" target="myMftVf5L6ny_uZTM5kf-13">
          <mxGeometry width="50" height="50" relative="1" as="geometry">
            <mxPoint x="450" y="250" as="sourcePoint" />
            <mxPoint x="500" y="200" as="targetPoint" />
          </mxGeometry>
        </mxCell>
        <mxCell id="myMftVf5L6ny_uZTM5kf-23" value="" style="endArrow=classic;html=1;rounded=0;exitX=0.5;exitY=0.786;exitDx=0;exitDy=0;exitPerimeter=0;entryX=0.5;entryY=0;entryDx=0;entryDy=0;" edge="1" parent="1" source="myMftVf5L6ny_uZTM5kf-5" target="myMftVf5L6ny_uZTM5kf-13">
          <mxGeometry width="50" height="50" relative="1" as="geometry">
            <mxPoint x="450" y="250" as="sourcePoint" />
            <mxPoint x="500" y="200" as="targetPoint" />
          </mxGeometry>
        </mxCell>
        <mxCell id="myMftVf5L6ny_uZTM5kf-24" value="" style="endArrow=none;html=1;rounded=0;" edge="1" parent="1">
          <mxGeometry width="50" height="50" relative="1" as="geometry">
            <mxPoint x="480" y="220" as="sourcePoint" />
            <mxPoint x="530" y="220" as="targetPoint" />
          </mxGeometry>
        </mxCell>
        <mxCell id="myMftVf5L6ny_uZTM5kf-25" value="" style="endArrow=classic;html=1;rounded=0;entryX=0;entryY=0.5;entryDx=0;entryDy=0;" edge="1" parent="1" target="myMftVf5L6ny_uZTM5kf-17">
          <mxGeometry width="50" height="50" relative="1" as="geometry">
            <mxPoint x="530" y="220" as="sourcePoint" />
            <mxPoint x="500" y="200" as="targetPoint" />
            <Array as="points">
              <mxPoint x="530" y="100" />
            </Array>
          </mxGeometry>
        </mxCell>
        <mxCell id="myMftVf5L6ny_uZTM5kf-26" value="" style="endArrow=classic;html=1;rounded=0;entryX=0;entryY=0.5;entryDx=0;entryDy=0;" edge="1" parent="1" target="myMftVf5L6ny_uZTM5kf-18">
          <mxGeometry width="50" height="50" relative="1" as="geometry">
            <mxPoint x="530" y="220" as="sourcePoint" />
            <mxPoint x="500" y="200" as="targetPoint" />
            <Array as="points">
              <mxPoint x="530" y="245" />
            </Array>
          </mxGeometry>
        </mxCell>
        <mxCell id="myMftVf5L6ny_uZTM5kf-29" value="" style="endArrow=classic;html=1;rounded=0;exitX=0.5;exitY=0;exitDx=0;exitDy=0;entryX=0.5;entryY=1;entryDx=0;entryDy=0;" edge="1" parent="1" source="myMftVf5L6ny_uZTM5kf-19" target="myMftVf5L6ny_uZTM5kf-16">
          <mxGeometry width="50" height="50" relative="1" as="geometry">
            <mxPoint x="450" y="330" as="sourcePoint" />
            <mxPoint x="500" y="280" as="targetPoint" />
            <Array as="points">
              <mxPoint x="419" y="360" />
              <mxPoint x="125" y="360" />
            </Array>
          </mxGeometry>
        </mxCell>
        <mxCell id="myMftVf5L6ny_uZTM5kf-30" value="" style="endArrow=classic;html=1;rounded=0;entryX=0.5;entryY=0.75;entryDx=0;entryDy=0;entryPerimeter=0;" edge="1" parent="1" target="myMftVf5L6ny_uZTM5kf-9">
          <mxGeometry width="50" height="50" relative="1" as="geometry">
            <mxPoint x="420" y="360" as="sourcePoint" />
            <mxPoint x="500" y="280" as="targetPoint" />
            <Array as="points">
              <mxPoint x="720" y="360" />
            </Array>
          </mxGeometry>
        </mxCell>
        <mxCell id="myMftVf5L6ny_uZTM5kf-31" value="" style="endArrow=classic;html=1;rounded=0;entryX=1.001;entryY=0.577;entryDx=0;entryDy=0;entryPerimeter=0;" edge="1" parent="1" target="myMftVf5L6ny_uZTM5kf-17">
          <mxGeometry width="50" height="50" relative="1" as="geometry">
            <mxPoint x="720" y="360" as="sourcePoint" />
            <mxPoint x="920" y="320" as="targetPoint" />
            <Array as="points">
              <mxPoint x="870" y="360" />
              <mxPoint x="880" y="110" />
            </Array>
          </mxGeometry>
        </mxCell>
      </root>
    </mxGraphModel>
  </diagram>
</mxfile>
